# Tiled2Unity generated file. Do not modify by hand.
# Wavefront file for 'Castle4_mesh_0008.obj'

# Vertices (Count = 260)
v -752 -528 0
v -768 -528 0
v -768 -512 0
v -752 -512 0
v -768 -528 0
v -784 -528 0
v -784 -512 0
v -768 -512 0
v -704 -544 0
v -720 -544 0
v -720 -528 0
v -704 -528 0
v -736 -544 0
v -752 -544 0
v -752 -528 0
v -736 -528 0
v -816 -544 0
v -832 -544 0
v -832 -528 0
v -816 -528 0
v -704 -560 0
v -720 -560 0
v -720 -544 0
v -704 -544 0
v -816 -560 0
v -832 -560 0
v -832 -544 0
v -816 -544 0
v -704 -576 0
v -720 -576 0
v -720 -560 0
v -704 -560 0
v -816 -576 0
v -832 -576 0
v -832 -560 0
v -816 -560 0
v -704 -592 0
v -720 -592 0
v -720 -576 0
v -704 -576 0
v -816 -592 0
v -832 -592 0
v -832 -576 0
v -816 -576 0
v -704 -608 0
v -720 -608 0
v -720 -592 0
v -704 -592 0
v -816 -608 0
v -832 -608 0
v -832 -592 0
v -816 -592 0
v -704 -624 0
v -720 -624 0
v -720 -608 0
v -704 -608 0
v -816 -624 0
v -832 -624 0
v -832 -608 0
v -816 -608 0
v -704 -640 0
v -720 -640 0
v -720 -624 0
v -704 -624 0
v -816 -640 0
v -832 -640 0
v -832 -624 0
v -816 -624 0
v -704 -656 0
v -720 -656 0
v -720 -640 0
v -704 -640 0
v -816 -656 0
v -832 -656 0
v -832 -640 0
v -816 -640 0
v -704 -672 0
v -720 -672 0
v -720 -656 0
v -704 -656 0
v -816 -672 0
v -832 -672 0
v -832 -656 0
v -816 -656 0
v -704 -688 0
v -720 -688 0
v -720 -672 0
v -704 -672 0
v -816 -688 0
v -832 -688 0
v -832 -672 0
v -816 -672 0
v -704 -704 0
v -720 -704 0
v -720 -688 0
v -704 -688 0
v -816 -704 0
v -832 -704 0
v -832 -688 0
v -816 -688 0
v -704 -720 0
v -720 -720 0
v -720 -704 0
v -704 -704 0
v -816 -720 0
v -832 -720 0
v -832 -704 0
v -816 -704 0
v -704 -736 0
v -720 -736 0
v -720 -720 0
v -704 -720 0
v -816 -736 0
v -832 -736 0
v -832 -720 0
v -816 -720 0
v -704 -752 0
v -720 -752 0
v -720 -736 0
v -704 -736 0
v -816 -752 0
v -832 -752 0
v -832 -736 0
v -816 -736 0
v -704 -768 0
v -720 -768 0
v -720 -752 0
v -704 -752 0
v -816 -768 0
v -832 -768 0
v -832 -752 0
v -816 -752 0
v -704 -784 0
v -720 -784 0
v -720 -768 0
v -704 -768 0
v -816 -784 0
v -832 -784 0
v -832 -768 0
v -816 -768 0
v -704 -800 0
v -720 -800 0
v -720 -784 0
v -704 -784 0
v -816 -800 0
v -832 -800 0
v -832 -784 0
v -816 -784 0
v -704 -816 0
v -720 -816 0
v -720 -800 0
v -704 -800 0
v -816 -816 0
v -832 -816 0
v -832 -800 0
v -816 -800 0
v -704 -832 0
v -720 -832 0
v -720 -816 0
v -704 -816 0
v -816 -832 0
v -832 -832 0
v -832 -816 0
v -816 -816 0
v -704 -848 0
v -720 -848 0
v -720 -832 0
v -704 -832 0
v -816 -848 0
v -832 -848 0
v -832 -832 0
v -816 -832 0
v -704 -864 0
v -720 -864 0
v -720 -848 0
v -704 -848 0
v -816 -864 0
v -832 -864 0
v -832 -848 0
v -816 -848 0
v -704 -880 0
v -720 -880 0
v -720 -864 0
v -704 -864 0
v -816 -880 0
v -832 -880 0
v -832 -864 0
v -816 -864 0
v -704 -896 0
v -720 -896 0
v -720 -880 0
v -704 -880 0
v -816 -896 0
v -832 -896 0
v -832 -880 0
v -816 -880 0
v -704 -912 0
v -720 -912 0
v -720 -896 0
v -704 -896 0
v -816 -912 0
v -832 -912 0
v -832 -896 0
v -816 -896 0
v -704 -928 0
v -720 -928 0
v -720 -912 0
v -704 -912 0
v -816 -928 0
v -832 -928 0
v -832 -912 0
v -816 -912 0
v -704 -944 0
v -720 -944 0
v -720 -928 0
v -704 -928 0
v -816 -944 0
v -832 -944 0
v -832 -928 0
v -816 -928 0
v -704 -960 0
v -720 -960 0
v -720 -944 0
v -704 -944 0
v -816 -960 0
v -832 -960 0
v -832 -944 0
v -816 -944 0
v -704 -976 0
v -720 -976 0
v -720 -960 0
v -704 -960 0
v -816 -976 0
v -832 -976 0
v -832 -960 0
v -816 -960 0
v -704 -992 0
v -720 -992 0
v -720 -976 0
v -704 -976 0
v -816 -992 0
v -832 -992 0
v -832 -976 0
v -816 -976 0
v -704 -1008 0
v -720 -1008 0
v -720 -992 0
v -704 -992 0
v -752 -1008 0
v -768 -1008 0
v -768 -992 0
v -752 -992 0
v -768 -1008 0
v -784 -1008 0
v -784 -992 0
v -768 -992 0
v -816 -1008 0
v -832 -1008 0
v -832 -992 0
v -816 -992 0

# Texture cooridinates (Count = 20)
vt 0.5971074 0.8403042
vt 0.6136364 0.8403042
vt 0.6136364 0.8707224
vt 0.5971074 0.8707224
vt 0.4741735 0.3231939
vt 0.4907025 0.3231939
vt 0.4907025 0.3536122
vt 0.4741735 0.3536122
vt 0.1931818 0.6140684
vt 0.2097107 0.6140684
vt 0.2097107 0.6444867
vt 0.1931818 0.6444867
vt 0.4917355 0.3555133
vt 0.5082645 0.3555133
vt 0.5082645 0.3859316
vt 0.4917355 0.3859316
vt 0.4917355 0.3231939
vt 0.5082645 0.3231939
vt 0.5082645 0.3536122
vt 0.4917355 0.3536122

# Normal
vn 0 0 -1

# Mesh description
g Castle4_mesh_0008

# Faces
f 1/1/1 2/2/1 3/3/1 4/4/1
f 5/1/1 6/2/1 7/3/1 8/4/1
f 9/5/1 10/6/1 11/7/1 12/8/1
f 13/9/1 14/10/1 15/11/1 16/12/1
f 17/5/1 18/6/1 19/7/1 20/8/1
f 21/13/1 22/14/1 23/15/1 24/16/1
f 25/13/1 26/14/1 27/15/1 28/16/1
f 29/13/1 30/14/1 31/15/1 32/16/1
f 33/13/1 34/14/1 35/15/1 36/16/1
f 37/13/1 38/14/1 39/15/1 40/16/1
f 41/13/1 42/14/1 43/15/1 44/16/1
f 45/17/1 46/18/1 47/19/1 48/20/1
f 49/17/1 50/18/1 51/19/1 52/20/1
f 53/5/1 54/6/1 55/7/1 56/8/1
f 57/5/1 58/6/1 59/7/1 60/8/1
f 61/13/1 62/14/1 63/15/1 64/16/1
f 65/13/1 66/14/1 67/15/1 68/16/1
f 69/13/1 70/14/1 71/15/1 72/16/1
f 73/13/1 74/14/1 75/15/1 76/16/1
f 77/13/1 78/14/1 79/15/1 80/16/1
f 81/13/1 82/14/1 83/15/1 84/16/1
f 85/17/1 86/18/1 87/19/1 88/20/1
f 89/17/1 90/18/1 91/19/1 92/20/1
f 93/5/1 94/6/1 95/7/1 96/8/1
f 97/5/1 98/6/1 99/7/1 100/8/1
f 101/13/1 102/14/1 103/15/1 104/16/1
f 105/13/1 106/14/1 107/15/1 108/16/1
f 109/13/1 110/14/1 111/15/1 112/16/1
f 113/13/1 114/14/1 115/15/1 116/16/1
f 117/13/1 118/14/1 119/15/1 120/16/1
f 121/13/1 122/14/1 123/15/1 124/16/1
f 125/17/1 126/18/1 127/19/1 128/20/1
f 129/17/1 130/18/1 131/19/1 132/20/1
f 133/5/1 134/6/1 135/7/1 136/8/1
f 137/5/1 138/6/1 139/7/1 140/8/1
f 141/13/1 142/14/1 143/15/1 144/16/1
f 145/13/1 146/14/1 147/15/1 148/16/1
f 149/13/1 150/14/1 151/15/1 152/16/1
f 153/13/1 154/14/1 155/15/1 156/16/1
f 157/13/1 158/14/1 159/15/1 160/16/1
f 161/13/1 162/14/1 163/15/1 164/16/1
f 165/17/1 166/18/1 167/19/1 168/20/1
f 169/17/1 170/18/1 171/19/1 172/20/1
f 173/5/1 174/6/1 175/7/1 176/8/1
f 177/5/1 178/6/1 179/7/1 180/8/1
f 181/13/1 182/14/1 183/15/1 184/16/1
f 185/13/1 186/14/1 187/15/1 188/16/1
f 189/13/1 190/14/1 191/15/1 192/16/1
f 193/13/1 194/14/1 195/15/1 196/16/1
f 197/13/1 198/14/1 199/15/1 200/16/1
f 201/13/1 202/14/1 203/15/1 204/16/1
f 205/17/1 206/18/1 207/19/1 208/20/1
f 209/17/1 210/18/1 211/19/1 212/20/1
f 213/5/1 214/6/1 215/7/1 216/8/1
f 217/5/1 218/6/1 219/7/1 220/8/1
f 221/13/1 222/14/1 223/15/1 224/16/1
f 225/13/1 226/14/1 227/15/1 228/16/1
f 229/13/1 230/14/1 231/15/1 232/16/1
f 233/13/1 234/14/1 235/15/1 236/16/1
f 237/13/1 238/14/1 239/15/1 240/16/1
f 241/13/1 242/14/1 243/15/1 244/16/1
f 245/17/1 246/18/1 247/19/1 248/20/1
f 249/1/1 250/2/1 251/3/1 252/4/1
f 253/1/1 254/2/1 255/3/1 256/4/1
f 257/17/1 258/18/1 259/19/1 260/20/1

