# Tiled2Unity generated file. Do not modify by hand.
# Wavefront file for 'Castle3_mesh_0006.obj'

# Vertices (Count = 132)
v -800 -240 0
v -816 -240 0
v -816 -224 0
v -800 -224 0
v -816 -240 0
v -832 -240 0
v -832 -224 0
v -816 -224 0
v -832 -240 0
v -848 -240 0
v -848 -224 0
v -832 -224 0
v -848 -240 0
v -864 -240 0
v -864 -224 0
v -848 -224 0
v -864 -240 0
v -880 -240 0
v -880 -224 0
v -864 -224 0
v -832 -256 0
v -848 -256 0
v -848 -240 0
v -832 -240 0
v -800 -272 0
v -816 -272 0
v -816 -256 0
v -800 -256 0
v -832 -272 0
v -848 -272 0
v -848 -256 0
v -832 -256 0
v -832 -288 0
v -848 -288 0
v -848 -272 0
v -832 -272 0
v -832 -304 0
v -848 -304 0
v -848 -288 0
v -832 -288 0
v -864 -304 0
v -880 -304 0
v -880 -288 0
v -864 -288 0
v -832 -320 0
v -848 -320 0
v -848 -304 0
v -832 -304 0
v -832 -336 0
v -848 -336 0
v -848 -320 0
v -832 -320 0
v -832 -352 0
v -848 -352 0
v -848 -336 0
v -832 -336 0
v -800 -368 0
v -816 -368 0
v -816 -352 0
v -800 -352 0
v -832 -368 0
v -848 -368 0
v -848 -352 0
v -832 -352 0
v -832 -384 0
v -848 -384 0
v -848 -368 0
v -832 -368 0
v -848 -384 0
v -864 -384 0
v -864 -368 0
v -848 -368 0
v -832 -400 0
v -848 -400 0
v -848 -384 0
v -832 -384 0
v -832 -416 0
v -848 -416 0
v -848 -400 0
v -832 -400 0
v -864 -416 0
v -880 -416 0
v -880 -400 0
v -864 -400 0
v -832 -448 0
v -848 -448 0
v -848 -432 0
v -832 -432 0
v -816 -464 0
v -832 -464 0
v -832 -448 0
v -816 -448 0
v -848 -496 0
v -864 -496 0
v -864 -480 0
v -848 -480 0
v -800 -528 0
v -816 -528 0
v -816 -512 0
v -800 -512 0
v -848 -576 0
v -864 -576 0
v -864 -560 0
v -848 -560 0
v -816 -592 0
v -832 -592 0
v -832 -576 0
v -816 -576 0
v -816 -640 0
v -832 -640 0
v -832 -624 0
v -816 -624 0
v -848 -640 0
v -864 -640 0
v -864 -624 0
v -848 -624 0
v -816 -672 0
v -832 -672 0
v -832 -656 0
v -816 -656 0
v -848 -704 0
v -864 -704 0
v -864 -688 0
v -848 -688 0
v -816 -720 0
v -832 -720 0
v -832 -704 0
v -816 -704 0
v -832 -720 0
v -848 -720 0
v -848 -704 0
v -832 -704 0

# Texture cooridinates (Count = 24)
vt 0.5971074 0.8403042
vt 0.6136364 0.8403042
vt 0.6136364 0.8707224
vt 0.5971074 0.8707224
vt 0.4741735 0.3231939
vt 0.4907025 0.3231939
vt 0.4907025 0.3536122
vt 0.4741735 0.3536122
vt 0.4917355 0.3555133
vt 0.5082645 0.3555133
vt 0.5082645 0.3859316
vt 0.4917355 0.3859316
vt 0.5795454 0.3555133
vt 0.5960744 0.3555133
vt 0.5960744 0.3859316
vt 0.5795454 0.3859316
vt 0.4917355 0.3231939
vt 0.5082645 0.3231939
vt 0.5082645 0.3536122
vt 0.4917355 0.3536122
vt 0.1931818 0.6140684
vt 0.2097107 0.6140684
vt 0.2097107 0.6444867
vt 0.1931818 0.6444867

# Normal
vn 0 0 -1

# Mesh description
g Castle3_mesh_0006

# Faces
f 1/1/1 2/2/1 3/3/1 4/4/1
f 5/1/1 6/2/1 7/3/1 8/4/1
f 9/5/1 10/6/1 11/7/1 12/8/1
f 13/1/1 14/2/1 15/3/1 16/4/1
f 17/1/1 18/2/1 19/3/1 20/4/1
f 21/9/1 22/10/1 23/11/1 24/12/1
f 25/13/1 26/14/1 27/15/1 28/16/1
f 29/9/1 30/10/1 31/11/1 32/12/1
f 33/9/1 34/10/1 35/11/1 36/12/1
f 37/9/1 38/10/1 39/11/1 40/12/1
f 41/13/1 42/14/1 43/15/1 44/16/1
f 45/9/1 46/10/1 47/11/1 48/12/1
f 49/9/1 50/10/1 51/11/1 52/12/1
f 53/9/1 54/10/1 55/11/1 56/12/1
f 57/13/1 58/14/1 59/15/1 60/16/1
f 61/9/1 62/10/1 63/11/1 64/12/1
f 65/9/1 66/10/1 67/11/1 68/12/1
f 69/13/1 70/14/1 71/15/1 72/16/1
f 73/9/1 74/10/1 75/11/1 76/12/1
f 77/17/1 78/18/1 79/19/1 80/20/1
f 81/13/1 82/14/1 83/15/1 84/16/1
f 85/21/1 86/22/1 87/23/1 88/24/1
f 89/13/1 90/14/1 91/15/1 92/16/1
f 93/13/1 94/14/1 95/15/1 96/16/1
f 97/13/1 98/14/1 99/15/1 100/16/1
f 101/13/1 102/14/1 103/15/1 104/16/1
f 105/13/1 106/14/1 107/15/1 108/16/1
f 109/13/1 110/14/1 111/15/1 112/16/1
f 113/13/1 114/14/1 115/15/1 116/16/1
f 117/13/1 118/14/1 119/15/1 120/16/1
f 121/13/1 122/14/1 123/15/1 124/16/1
f 125/1/1 126/2/1 127/3/1 128/4/1
f 129/1/1 130/2/1 131/3/1 132/4/1

