# Tiled2Unity generated file. Do not modify by hand.
# Wavefront file for 'Castle3_mesh_0002.obj'

# Vertices (Count = 76)
v -800 -240 0
v -816 -240 0
v -816 -224 0
v -800 -224 0
v -816 -240 0
v -832 -240 0
v -832 -224 0
v -816 -224 0
v -832 -240 0
v -848 -240 0
v -848 -224 0
v -832 -224 0
v -848 -240 0
v -864 -240 0
v -864 -224 0
v -848 -224 0
v -864 -240 0
v -880 -240 0
v -880 -224 0
v -864 -224 0
v -832 -256 0
v -848 -256 0
v -848 -240 0
v -832 -240 0
v -832 -272 0
v -848 -272 0
v -848 -256 0
v -832 -256 0
v -832 -288 0
v -848 -288 0
v -848 -272 0
v -832 -272 0
v -832 -304 0
v -848 -304 0
v -848 -288 0
v -832 -288 0
v -832 -320 0
v -848 -320 0
v -848 -304 0
v -832 -304 0
v -832 -336 0
v -848 -336 0
v -848 -320 0
v -832 -320 0
v -832 -352 0
v -848 -352 0
v -848 -336 0
v -832 -336 0
v -832 -368 0
v -848 -368 0
v -848 -352 0
v -832 -352 0
v -832 -384 0
v -848 -384 0
v -848 -368 0
v -832 -368 0
v -832 -400 0
v -848 -400 0
v -848 -384 0
v -832 -384 0
v -832 -416 0
v -848 -416 0
v -848 -400 0
v -832 -400 0
v -832 -448 0
v -848 -448 0
v -848 -432 0
v -832 -432 0
v -816 -720 0
v -832 -720 0
v -832 -704 0
v -816 -704 0
v -832 -720 0
v -848 -720 0
v -848 -704 0
v -832 -704 0

# Texture cooridinates (Count = 20)
vt 0.5971074 0.8403042
vt 0.6136364 0.8403042
vt 0.6136364 0.8707224
vt 0.5971074 0.8707224
vt 0.4741735 0.3231939
vt 0.4907025 0.3231939
vt 0.4907025 0.3536122
vt 0.4741735 0.3536122
vt 0.4917355 0.3555133
vt 0.5082645 0.3555133
vt 0.5082645 0.3859316
vt 0.4917355 0.3859316
vt 0.4917355 0.3231939
vt 0.5082645 0.3231939
vt 0.5082645 0.3536122
vt 0.4917355 0.3536122
vt 0.1931818 0.6140684
vt 0.2097107 0.6140684
vt 0.2097107 0.6444867
vt 0.1931818 0.6444867

# Normal
vn 0 0 -1

# Mesh description
g Castle3_mesh_0002

# Faces
f 1/1/1 2/2/1 3/3/1 4/4/1
f 5/1/1 6/2/1 7/3/1 8/4/1
f 9/5/1 10/6/1 11/7/1 12/8/1
f 13/1/1 14/2/1 15/3/1 16/4/1
f 17/1/1 18/2/1 19/3/1 20/4/1
f 21/9/1 22/10/1 23/11/1 24/12/1
f 25/9/1 26/10/1 27/11/1 28/12/1
f 29/9/1 30/10/1 31/11/1 32/12/1
f 33/9/1 34/10/1 35/11/1 36/12/1
f 37/9/1 38/10/1 39/11/1 40/12/1
f 41/9/1 42/10/1 43/11/1 44/12/1
f 45/9/1 46/10/1 47/11/1 48/12/1
f 49/9/1 50/10/1 51/11/1 52/12/1
f 53/9/1 54/10/1 55/11/1 56/12/1
f 57/9/1 58/10/1 59/11/1 60/12/1
f 61/13/1 62/14/1 63/15/1 64/16/1
f 65/17/1 66/18/1 67/19/1 68/20/1
f 69/1/1 70/2/1 71/3/1 72/4/1
f 73/1/1 74/2/1 75/3/1 76/4/1

