# Tiled2Unity generated file. Do not modify by hand.
# Wavefront file for 'TileTest_mesh_0001.obj'

# Vertices (Count = 728)
v -37 -1 0
v -38 -1 0
v -38 0 0
v -37 0 0
v -36 -1 0
v -37 -1 0
v -37 0 0
v -36 0 0
v -35 -1 0
v -36 -1 0
v -36 0 0
v -35 0 0
v -34 -1 0
v -35 -1 0
v -35 0 0
v -34 0 0
v -33 -1 0
v -34 -1 0
v -34 0 0
v -33 0 0
v -32 -1 0
v -33 -1 0
v -33 0 0
v -32 0 0
v -31 -1 0
v -32 -1 0
v -32 0 0
v -31 0 0
v -30 -1 0
v -31 -1 0
v -31 0 0
v -30 0 0
v -29 -1 0
v -30 -1 0
v -30 0 0
v -29 0 0
v -28 -1 0
v -29 -1 0
v -29 0 0
v -28 0 0
v -27 -1 0
v -28 -1 0
v -28 0 0
v -27 0 0
v -26 -1 0
v -27 -1 0
v -27 0 0
v -26 0 0
v -25 -1 0
v -26 -1 0
v -26 0 0
v -25 0 0
v -24 -1 0
v -25 -1 0
v -25 0 0
v -24 0 0
v -37 -2 0
v -38 -2 0
v -38 -1 0
v -37 -1 0
v -36 -2 0
v -37 -2 0
v -37 -1 0
v -36 -1 0
v -35 -2 0
v -36 -2 0
v -36 -1 0
v -35 -1 0
v -34 -2 0
v -35 -2 0
v -35 -1 0
v -34 -1 0
v -33 -2 0
v -34 -2 0
v -34 -1 0
v -33 -1 0
v -32 -2 0
v -33 -2 0
v -33 -1 0
v -32 -1 0
v -31 -2 0
v -32 -2 0
v -32 -1 0
v -31 -1 0
v -30 -2 0
v -31 -2 0
v -31 -1 0
v -30 -1 0
v -29 -2 0
v -30 -2 0
v -30 -1 0
v -29 -1 0
v -28 -2 0
v -29 -2 0
v -29 -1 0
v -28 -1 0
v -27 -2 0
v -28 -2 0
v -28 -1 0
v -27 -1 0
v -26 -2 0
v -27 -2 0
v -27 -1 0
v -26 -1 0
v -25 -2 0
v -26 -2 0
v -26 -1 0
v -25 -1 0
v -24 -2 0
v -25 -2 0
v -25 -1 0
v -24 -1 0
v -37 -3 0
v -38 -3 0
v -38 -2 0
v -37 -2 0
v -36 -3 0
v -37 -3 0
v -37 -2 0
v -36 -2 0
v -35 -3 0
v -36 -3 0
v -36 -2 0
v -35 -2 0
v -34 -3 0
v -35 -3 0
v -35 -2 0
v -34 -2 0
v -33 -3 0
v -34 -3 0
v -34 -2 0
v -33 -2 0
v -32 -3 0
v -33 -3 0
v -33 -2 0
v -32 -2 0
v -31 -3 0
v -32 -3 0
v -32 -2 0
v -31 -2 0
v -30 -3 0
v -31 -3 0
v -31 -2 0
v -30 -2 0
v -29 -3 0
v -30 -3 0
v -30 -2 0
v -29 -2 0
v -28 -3 0
v -29 -3 0
v -29 -2 0
v -28 -2 0
v -27 -3 0
v -28 -3 0
v -28 -2 0
v -27 -2 0
v -26 -3 0
v -27 -3 0
v -27 -2 0
v -26 -2 0
v -25 -3 0
v -26 -3 0
v -26 -2 0
v -25 -2 0
v -24 -3 0
v -25 -3 0
v -25 -2 0
v -24 -2 0
v -37 -4 0
v -38 -4 0
v -38 -3 0
v -37 -3 0
v -36 -4 0
v -37 -4 0
v -37 -3 0
v -36 -3 0
v -35 -4 0
v -36 -4 0
v -36 -3 0
v -35 -3 0
v -34 -4 0
v -35 -4 0
v -35 -3 0
v -34 -3 0
v -33 -4 0
v -34 -4 0
v -34 -3 0
v -33 -3 0
v -32 -4 0
v -33 -4 0
v -33 -3 0
v -32 -3 0
v -31 -4 0
v -32 -4 0
v -32 -3 0
v -31 -3 0
v -30 -4 0
v -31 -4 0
v -31 -3 0
v -30 -3 0
v -29 -4 0
v -30 -4 0
v -30 -3 0
v -29 -3 0
v -28 -4 0
v -29 -4 0
v -29 -3 0
v -28 -3 0
v -27 -4 0
v -28 -4 0
v -28 -3 0
v -27 -3 0
v -26 -4 0
v -27 -4 0
v -27 -3 0
v -26 -3 0
v -25 -4 0
v -26 -4 0
v -26 -3 0
v -25 -3 0
v -24 -4 0
v -25 -4 0
v -25 -3 0
v -24 -3 0
v -37 -5 0
v -38 -5 0
v -38 -4 0
v -37 -4 0
v -36 -5 0
v -37 -5 0
v -37 -4 0
v -36 -4 0
v -35 -5 0
v -36 -5 0
v -36 -4 0
v -35 -4 0
v -34 -5 0
v -35 -5 0
v -35 -4 0
v -34 -4 0
v -33 -5 0
v -34 -5 0
v -34 -4 0
v -33 -4 0
v -32 -5 0
v -33 -5 0
v -33 -4 0
v -32 -4 0
v -31 -5 0
v -32 -5 0
v -32 -4 0
v -31 -4 0
v -30 -5 0
v -31 -5 0
v -31 -4 0
v -30 -4 0
v -29 -5 0
v -30 -5 0
v -30 -4 0
v -29 -4 0
v -28 -5 0
v -29 -5 0
v -29 -4 0
v -28 -4 0
v -27 -5 0
v -28 -5 0
v -28 -4 0
v -27 -4 0
v -26 -5 0
v -27 -5 0
v -27 -4 0
v -26 -4 0
v -25 -5 0
v -26 -5 0
v -26 -4 0
v -25 -4 0
v -24 -5 0
v -25 -5 0
v -25 -4 0
v -24 -4 0
v -37 -6 0
v -38 -6 0
v -38 -5 0
v -37 -5 0
v -36 -6 0
v -37 -6 0
v -37 -5 0
v -36 -5 0
v -35 -6 0
v -36 -6 0
v -36 -5 0
v -35 -5 0
v -34 -6 0
v -35 -6 0
v -35 -5 0
v -34 -5 0
v -33 -6 0
v -34 -6 0
v -34 -5 0
v -33 -5 0
v -32 -6 0
v -33 -6 0
v -33 -5 0
v -32 -5 0
v -31 -6 0
v -32 -6 0
v -32 -5 0
v -31 -5 0
v -30 -6 0
v -31 -6 0
v -31 -5 0
v -30 -5 0
v -29 -6 0
v -30 -6 0
v -30 -5 0
v -29 -5 0
v -28 -6 0
v -29 -6 0
v -29 -5 0
v -28 -5 0
v -27 -6 0
v -28 -6 0
v -28 -5 0
v -27 -5 0
v -26 -6 0
v -27 -6 0
v -27 -5 0
v -26 -5 0
v -25 -6 0
v -26 -6 0
v -26 -5 0
v -25 -5 0
v -24 -6 0
v -25 -6 0
v -25 -5 0
v -24 -5 0
v -37 -7 0
v -38 -7 0
v -38 -6 0
v -37 -6 0
v -36 -7 0
v -37 -7 0
v -37 -6 0
v -36 -6 0
v -35 -7 0
v -36 -7 0
v -36 -6 0
v -35 -6 0
v -34 -7 0
v -35 -7 0
v -35 -6 0
v -34 -6 0
v -33 -7 0
v -34 -7 0
v -34 -6 0
v -33 -6 0
v -32 -7 0
v -33 -7 0
v -33 -6 0
v -32 -6 0
v -31 -7 0
v -32 -7 0
v -32 -6 0
v -31 -6 0
v -30 -7 0
v -31 -7 0
v -31 -6 0
v -30 -6 0
v -29 -7 0
v -30 -7 0
v -30 -6 0
v -29 -6 0
v -28 -7 0
v -29 -7 0
v -29 -6 0
v -28 -6 0
v -27 -7 0
v -28 -7 0
v -28 -6 0
v -27 -6 0
v -26 -7 0
v -27 -7 0
v -27 -6 0
v -26 -6 0
v -25 -7 0
v -26 -7 0
v -26 -6 0
v -25 -6 0
v -24 -7 0
v -25 -7 0
v -25 -6 0
v -24 -6 0
v -37 -8 0
v -38 -8 0
v -38 -7 0
v -37 -7 0
v -36 -8 0
v -37 -8 0
v -37 -7 0
v -36 -7 0
v -35 -8 0
v -36 -8 0
v -36 -7 0
v -35 -7 0
v -34 -8 0
v -35 -8 0
v -35 -7 0
v -34 -7 0
v -33 -8 0
v -34 -8 0
v -34 -7 0
v -33 -7 0
v -32 -8 0
v -33 -8 0
v -33 -7 0
v -32 -7 0
v -31 -8 0
v -32 -8 0
v -32 -7 0
v -31 -7 0
v -30 -8 0
v -31 -8 0
v -31 -7 0
v -30 -7 0
v -29 -8 0
v -30 -8 0
v -30 -7 0
v -29 -7 0
v -28 -8 0
v -29 -8 0
v -29 -7 0
v -28 -7 0
v -27 -8 0
v -28 -8 0
v -28 -7 0
v -27 -7 0
v -26 -8 0
v -27 -8 0
v -27 -7 0
v -26 -7 0
v -25 -8 0
v -26 -8 0
v -26 -7 0
v -25 -7 0
v -24 -8 0
v -25 -8 0
v -25 -7 0
v -24 -7 0
v -37 -9 0
v -38 -9 0
v -38 -8 0
v -37 -8 0
v -36 -9 0
v -37 -9 0
v -37 -8 0
v -36 -8 0
v -35 -9 0
v -36 -9 0
v -36 -8 0
v -35 -8 0
v -34 -9 0
v -35 -9 0
v -35 -8 0
v -34 -8 0
v -33 -9 0
v -34 -9 0
v -34 -8 0
v -33 -8 0
v -32 -9 0
v -33 -9 0
v -33 -8 0
v -32 -8 0
v -31 -9 0
v -32 -9 0
v -32 -8 0
v -31 -8 0
v -30 -9 0
v -31 -9 0
v -31 -8 0
v -30 -8 0
v -29 -9 0
v -30 -9 0
v -30 -8 0
v -29 -8 0
v -28 -9 0
v -29 -9 0
v -29 -8 0
v -28 -8 0
v -27 -9 0
v -28 -9 0
v -28 -8 0
v -27 -8 0
v -26 -9 0
v -27 -9 0
v -27 -8 0
v -26 -8 0
v -25 -9 0
v -26 -9 0
v -26 -8 0
v -25 -8 0
v -24 -9 0
v -25 -9 0
v -25 -8 0
v -24 -8 0
v -37 -10 0
v -38 -10 0
v -38 -9 0
v -37 -9 0
v -36 -10 0
v -37 -10 0
v -37 -9 0
v -36 -9 0
v -35 -10 0
v -36 -10 0
v -36 -9 0
v -35 -9 0
v -34 -10 0
v -35 -10 0
v -35 -9 0
v -34 -9 0
v -33 -10 0
v -34 -10 0
v -34 -9 0
v -33 -9 0
v -32 -10 0
v -33 -10 0
v -33 -9 0
v -32 -9 0
v -31 -10 0
v -32 -10 0
v -32 -9 0
v -31 -9 0
v -30 -10 0
v -31 -10 0
v -31 -9 0
v -30 -9 0
v -29 -10 0
v -30 -10 0
v -30 -9 0
v -29 -9 0
v -28 -10 0
v -29 -10 0
v -29 -9 0
v -28 -9 0
v -27 -10 0
v -28 -10 0
v -28 -9 0
v -27 -9 0
v -26 -10 0
v -27 -10 0
v -27 -9 0
v -26 -9 0
v -25 -10 0
v -26 -10 0
v -26 -9 0
v -25 -9 0
v -24 -10 0
v -25 -10 0
v -25 -9 0
v -24 -9 0
v -37 -11 0
v -38 -11 0
v -38 -10 0
v -37 -10 0
v -36 -11 0
v -37 -11 0
v -37 -10 0
v -36 -10 0
v -35 -11 0
v -36 -11 0
v -36 -10 0
v -35 -10 0
v -34 -11 0
v -35 -11 0
v -35 -10 0
v -34 -10 0
v -33 -11 0
v -34 -11 0
v -34 -10 0
v -33 -10 0
v -32 -11 0
v -33 -11 0
v -33 -10 0
v -32 -10 0
v -31 -11 0
v -32 -11 0
v -32 -10 0
v -31 -10 0
v -30 -11 0
v -31 -11 0
v -31 -10 0
v -30 -10 0
v -29 -11 0
v -30 -11 0
v -30 -10 0
v -29 -10 0
v -28 -11 0
v -29 -11 0
v -29 -10 0
v -28 -10 0
v -27 -11 0
v -28 -11 0
v -28 -10 0
v -27 -10 0
v -26 -11 0
v -27 -11 0
v -27 -10 0
v -26 -10 0
v -25 -11 0
v -26 -11 0
v -26 -10 0
v -25 -10 0
v -24 -11 0
v -25 -11 0
v -25 -10 0
v -24 -10 0
v -37 -12 0
v -38 -12 0
v -38 -11 0
v -37 -11 0
v -36 -12 0
v -37 -12 0
v -37 -11 0
v -36 -11 0
v -35 -12 0
v -36 -12 0
v -36 -11 0
v -35 -11 0
v -34 -12 0
v -35 -12 0
v -35 -11 0
v -34 -11 0
v -33 -12 0
v -34 -12 0
v -34 -11 0
v -33 -11 0
v -32 -12 0
v -33 -12 0
v -33 -11 0
v -32 -11 0
v -31 -12 0
v -32 -12 0
v -32 -11 0
v -31 -11 0
v -30 -12 0
v -31 -12 0
v -31 -11 0
v -30 -11 0
v -29 -12 0
v -30 -12 0
v -30 -11 0
v -29 -11 0
v -28 -12 0
v -29 -12 0
v -29 -11 0
v -28 -11 0
v -27 -12 0
v -28 -12 0
v -28 -11 0
v -27 -11 0
v -26 -12 0
v -27 -12 0
v -27 -11 0
v -26 -11 0
v -25 -12 0
v -26 -12 0
v -26 -11 0
v -25 -11 0
v -24 -12 0
v -25 -12 0
v -25 -11 0
v -24 -11 0
v -37 -13 0
v -38 -13 0
v -38 -12 0
v -37 -12 0
v -36 -13 0
v -37 -13 0
v -37 -12 0
v -36 -12 0
v -35 -13 0
v -36 -13 0
v -36 -12 0
v -35 -12 0
v -34 -13 0
v -35 -13 0
v -35 -12 0
v -34 -12 0
v -33 -13 0
v -34 -13 0
v -34 -12 0
v -33 -12 0
v -32 -13 0
v -33 -13 0
v -33 -12 0
v -32 -12 0
v -31 -13 0
v -32 -13 0
v -32 -12 0
v -31 -12 0
v -30 -13 0
v -31 -13 0
v -31 -12 0
v -30 -12 0
v -29 -13 0
v -30 -13 0
v -30 -12 0
v -29 -12 0
v -28 -13 0
v -29 -13 0
v -29 -12 0
v -28 -12 0
v -27 -13 0
v -28 -13 0
v -28 -12 0
v -27 -12 0
v -26 -13 0
v -27 -13 0
v -27 -12 0
v -26 -12 0
v -25 -13 0
v -26 -13 0
v -26 -12 0
v -25 -12 0
v -24 -13 0
v -25 -13 0
v -25 -12 0
v -24 -12 0

# Texture cooridinates (Count = 40)
vt 0 0.9695817
vt 0.01652892 0.9695817
vt 0.01652892 1
vt 0 1
vt 0.1580579 0.6787072
vt 0.1745868 0.6787072
vt 0.1745868 0.7091255
vt 0.1580579 0.7091255
vt 0.1404959 0.6787072
vt 0.1570248 0.6787072
vt 0.1570248 0.7091255
vt 0.1404959 0.7091255
vt 0.1229339 0.6787072
vt 0.1394628 0.6787072
vt 0.1394628 0.7091255
vt 0.1229339 0.7091255
vt 0.1580579 0.6463878
vt 0.1745868 0.6463878
vt 0.1745868 0.6768061
vt 0.1580579 0.6768061
vt 0.1404959 0.6463878
vt 0.1570248 0.6463878
vt 0.1570248 0.6768061
vt 0.1404959 0.6768061
vt 0.1229339 0.6463878
vt 0.1394628 0.6463878
vt 0.1394628 0.6768061
vt 0.1229339 0.6768061
vt 0.1580579 0.6140684
vt 0.1745868 0.6140684
vt 0.1745868 0.6444867
vt 0.1580579 0.6444867
vt 0.1404959 0.6140684
vt 0.1570248 0.6140684
vt 0.1570248 0.6444867
vt 0.1404959 0.6444867
vt 0.1229339 0.6140684
vt 0.1394628 0.6140684
vt 0.1394628 0.6444867
vt 0.1229339 0.6444867

# Normal
vn 0 0 -1

# Mesh description
g TileTest_mesh_0001

# Faces
f 1/1/1 2/2/1 3/3/1 4/4/1
f 5/5/1 6/6/1 7/7/1 8/8/1
f 9/9/1 10/10/1 11/11/1 12/12/1
f 13/9/1 14/10/1 15/11/1 16/12/1
f 17/9/1 18/10/1 19/11/1 20/12/1
f 21/9/1 22/10/1 23/11/1 24/12/1
f 25/9/1 26/10/1 27/11/1 28/12/1
f 29/9/1 30/10/1 31/11/1 32/12/1
f 33/9/1 34/10/1 35/11/1 36/12/1
f 37/9/1 38/10/1 39/11/1 40/12/1
f 41/9/1 42/10/1 43/11/1 44/12/1
f 45/9/1 46/10/1 47/11/1 48/12/1
f 49/13/1 50/14/1 51/15/1 52/16/1
f 53/1/1 54/2/1 55/3/1 56/4/1
f 57/1/1 58/2/1 59/3/1 60/4/1
f 61/17/1 62/18/1 63/19/1 64/20/1
f 65/21/1 66/22/1 67/23/1 68/24/1
f 69/21/1 70/22/1 71/23/1 72/24/1
f 73/21/1 74/22/1 75/23/1 76/24/1
f 77/21/1 78/22/1 79/23/1 80/24/1
f 81/21/1 82/22/1 83/23/1 84/24/1
f 85/21/1 86/22/1 87/23/1 88/24/1
f 89/21/1 90/22/1 91/23/1 92/24/1
f 93/21/1 94/22/1 95/23/1 96/24/1
f 97/21/1 98/22/1 99/23/1 100/24/1
f 101/21/1 102/22/1 103/23/1 104/24/1
f 105/25/1 106/26/1 107/27/1 108/28/1
f 109/1/1 110/2/1 111/3/1 112/4/1
f 113/1/1 114/2/1 115/3/1 116/4/1
f 117/17/1 118/18/1 119/19/1 120/20/1
f 121/21/1 122/22/1 123/23/1 124/24/1
f 125/21/1 126/22/1 127/23/1 128/24/1
f 129/21/1 130/22/1 131/23/1 132/24/1
f 133/21/1 134/22/1 135/23/1 136/24/1
f 137/21/1 138/22/1 139/23/1 140/24/1
f 141/21/1 142/22/1 143/23/1 144/24/1
f 145/21/1 146/22/1 147/23/1 148/24/1
f 149/21/1 150/22/1 151/23/1 152/24/1
f 153/21/1 154/22/1 155/23/1 156/24/1
f 157/21/1 158/22/1 159/23/1 160/24/1
f 161/25/1 162/26/1 163/27/1 164/28/1
f 165/1/1 166/2/1 167/3/1 168/4/1
f 169/1/1 170/2/1 171/3/1 172/4/1
f 173/17/1 174/18/1 175/19/1 176/20/1
f 177/21/1 178/22/1 179/23/1 180/24/1
f 181/21/1 182/22/1 183/23/1 184/24/1
f 185/21/1 186/22/1 187/23/1 188/24/1
f 189/21/1 190/22/1 191/23/1 192/24/1
f 193/21/1 194/22/1 195/23/1 196/24/1
f 197/21/1 198/22/1 199/23/1 200/24/1
f 201/21/1 202/22/1 203/23/1 204/24/1
f 205/21/1 206/22/1 207/23/1 208/24/1
f 209/21/1 210/22/1 211/23/1 212/24/1
f 213/21/1 214/22/1 215/23/1 216/24/1
f 217/25/1 218/26/1 219/27/1 220/28/1
f 221/1/1 222/2/1 223/3/1 224/4/1
f 225/1/1 226/2/1 227/3/1 228/4/1
f 229/17/1 230/18/1 231/19/1 232/20/1
f 233/21/1 234/22/1 235/23/1 236/24/1
f 237/21/1 238/22/1 239/23/1 240/24/1
f 241/21/1 242/22/1 243/23/1 244/24/1
f 245/21/1 246/22/1 247/23/1 248/24/1
f 249/21/1 250/22/1 251/23/1 252/24/1
f 253/21/1 254/22/1 255/23/1 256/24/1
f 257/21/1 258/22/1 259/23/1 260/24/1
f 261/21/1 262/22/1 263/23/1 264/24/1
f 265/21/1 266/22/1 267/23/1 268/24/1
f 269/21/1 270/22/1 271/23/1 272/24/1
f 273/25/1 274/26/1 275/27/1 276/28/1
f 277/1/1 278/2/1 279/3/1 280/4/1
f 281/1/1 282/2/1 283/3/1 284/4/1
f 285/17/1 286/18/1 287/19/1 288/20/1
f 289/21/1 290/22/1 291/23/1 292/24/1
f 293/21/1 294/22/1 295/23/1 296/24/1
f 297/21/1 298/22/1 299/23/1 300/24/1
f 301/21/1 302/22/1 303/23/1 304/24/1
f 305/21/1 306/22/1 307/23/1 308/24/1
f 309/21/1 310/22/1 311/23/1 312/24/1
f 313/21/1 314/22/1 315/23/1 316/24/1
f 317/21/1 318/22/1 319/23/1 320/24/1
f 321/21/1 322/22/1 323/23/1 324/24/1
f 325/21/1 326/22/1 327/23/1 328/24/1
f 329/25/1 330/26/1 331/27/1 332/28/1
f 333/1/1 334/2/1 335/3/1 336/4/1
f 337/1/1 338/2/1 339/3/1 340/4/1
f 341/17/1 342/18/1 343/19/1 344/20/1
f 345/21/1 346/22/1 347/23/1 348/24/1
f 349/21/1 350/22/1 351/23/1 352/24/1
f 353/21/1 354/22/1 355/23/1 356/24/1
f 357/21/1 358/22/1 359/23/1 360/24/1
f 361/21/1 362/22/1 363/23/1 364/24/1
f 365/21/1 366/22/1 367/23/1 368/24/1
f 369/21/1 370/22/1 371/23/1 372/24/1
f 373/21/1 374/22/1 375/23/1 376/24/1
f 377/21/1 378/22/1 379/23/1 380/24/1
f 381/21/1 382/22/1 383/23/1 384/24/1
f 385/25/1 386/26/1 387/27/1 388/28/1
f 389/1/1 390/2/1 391/3/1 392/4/1
f 393/1/1 394/2/1 395/3/1 396/4/1
f 397/17/1 398/18/1 399/19/1 400/20/1
f 401/21/1 402/22/1 403/23/1 404/24/1
f 405/21/1 406/22/1 407/23/1 408/24/1
f 409/21/1 410/22/1 411/23/1 412/24/1
f 413/21/1 414/22/1 415/23/1 416/24/1
f 417/21/1 418/22/1 419/23/1 420/24/1
f 421/21/1 422/22/1 423/23/1 424/24/1
f 425/21/1 426/22/1 427/23/1 428/24/1
f 429/21/1 430/22/1 431/23/1 432/24/1
f 433/21/1 434/22/1 435/23/1 436/24/1
f 437/21/1 438/22/1 439/23/1 440/24/1
f 441/25/1 442/26/1 443/27/1 444/28/1
f 445/1/1 446/2/1 447/3/1 448/4/1
f 449/1/1 450/2/1 451/3/1 452/4/1
f 453/17/1 454/18/1 455/19/1 456/20/1
f 457/21/1 458/22/1 459/23/1 460/24/1
f 461/21/1 462/22/1 463/23/1 464/24/1
f 465/21/1 466/22/1 467/23/1 468/24/1
f 469/21/1 470/22/1 471/23/1 472/24/1
f 473/21/1 474/22/1 475/23/1 476/24/1
f 477/21/1 478/22/1 479/23/1 480/24/1
f 481/21/1 482/22/1 483/23/1 484/24/1
f 485/21/1 486/22/1 487/23/1 488/24/1
f 489/21/1 490/22/1 491/23/1 492/24/1
f 493/21/1 494/22/1 495/23/1 496/24/1
f 497/25/1 498/26/1 499/27/1 500/28/1
f 501/1/1 502/2/1 503/3/1 504/4/1
f 505/1/1 506/2/1 507/3/1 508/4/1
f 509/17/1 510/18/1 511/19/1 512/20/1
f 513/21/1 514/22/1 515/23/1 516/24/1
f 517/21/1 518/22/1 519/23/1 520/24/1
f 521/21/1 522/22/1 523/23/1 524/24/1
f 525/21/1 526/22/1 527/23/1 528/24/1
f 529/21/1 530/22/1 531/23/1 532/24/1
f 533/21/1 534/22/1 535/23/1 536/24/1
f 537/21/1 538/22/1 539/23/1 540/24/1
f 541/21/1 542/22/1 543/23/1 544/24/1
f 545/21/1 546/22/1 547/23/1 548/24/1
f 549/21/1 550/22/1 551/23/1 552/24/1
f 553/25/1 554/26/1 555/27/1 556/28/1
f 557/1/1 558/2/1 559/3/1 560/4/1
f 561/1/1 562/2/1 563/3/1 564/4/1
f 565/17/1 566/18/1 567/19/1 568/20/1
f 569/21/1 570/22/1 571/23/1 572/24/1
f 573/21/1 574/22/1 575/23/1 576/24/1
f 577/21/1 578/22/1 579/23/1 580/24/1
f 581/21/1 582/22/1 583/23/1 584/24/1
f 585/21/1 586/22/1 587/23/1 588/24/1
f 589/21/1 590/22/1 591/23/1 592/24/1
f 593/21/1 594/22/1 595/23/1 596/24/1
f 597/21/1 598/22/1 599/23/1 600/24/1
f 601/21/1 602/22/1 603/23/1 604/24/1
f 605/21/1 606/22/1 607/23/1 608/24/1
f 609/25/1 610/26/1 611/27/1 612/28/1
f 613/1/1 614/2/1 615/3/1 616/4/1
f 617/1/1 618/2/1 619/3/1 620/4/1
f 621/29/1 622/30/1 623/31/1 624/32/1
f 625/33/1 626/34/1 627/35/1 628/36/1
f 629/33/1 630/34/1 631/35/1 632/36/1
f 633/33/1 634/34/1 635/35/1 636/36/1
f 637/33/1 638/34/1 639/35/1 640/36/1
f 641/33/1 642/34/1 643/35/1 644/36/1
f 645/33/1 646/34/1 647/35/1 648/36/1
f 649/33/1 650/34/1 651/35/1 652/36/1
f 653/33/1 654/34/1 655/35/1 656/36/1
f 657/33/1 658/34/1 659/35/1 660/36/1
f 661/33/1 662/34/1 663/35/1 664/36/1
f 665/37/1 666/38/1 667/39/1 668/40/1
f 669/1/1 670/2/1 671/3/1 672/4/1
f 673/1/1 674/2/1 675/3/1 676/4/1
f 677/1/1 678/2/1 679/3/1 680/4/1
f 681/1/1 682/2/1 683/3/1 684/4/1
f 685/1/1 686/2/1 687/3/1 688/4/1
f 689/1/1 690/2/1 691/3/1 692/4/1
f 693/1/1 694/2/1 695/3/1 696/4/1
f 697/1/1 698/2/1 699/3/1 700/4/1
f 701/1/1 702/2/1 703/3/1 704/4/1
f 705/1/1 706/2/1 707/3/1 708/4/1
f 709/1/1 710/2/1 711/3/1 712/4/1
f 713/1/1 714/2/1 715/3/1 716/4/1
f 717/1/1 718/2/1 719/3/1 720/4/1
f 721/1/1 722/2/1 723/3/1 724/4/1
f 725/1/1 726/2/1 727/3/1 728/4/1

