# Tiled2Unity generated file. Do not modify by hand.
# Wavefront file for 'AHouse_mesh_0004.obj'

# Vertices (Count = 8)
v -44 -48 0
v -45 -48 0
v -45 -47 0
v -44 -47 0
v -33 -57 0
v -34 -57 0
v -34 -56 0
v -33 -56 0

# Texture cooridinates (Count = 8)
vt 0.3512397 0.7110266
vt 0.3677686 0.7110266
vt 0.3677686 0.7414448
vt 0.3512397 0.7414448
vt 0.4039256 0.7110266
vt 0.4204545 0.7110266
vt 0.4204545 0.7414448
vt 0.4039256 0.7414448

# Normal
vn 0 0 -1

# Mesh description
g AHouse_mesh_0004

# Faces
f 1/1/1 2/2/1 3/3/1 4/4/1
f 5/5/1 6/6/1 7/7/1 8/8/1

