# Tiled2Unity generated file. Do not modify by hand.
# Wavefront file for 'AHouse_mesh_0002.obj'

# Vertices (Count = 524)
v -37 -40 0
v -38 -40 0
v -38 -39 0
v -37 -39 0
v -45 -41 0
v -46 -41 0
v -46 -40 0
v -45 -40 0
v -44 -41 0
v -45 -41 0
v -45 -40 0
v -44 -40 0
v -43 -41 0
v -44 -41 0
v -44 -40 0
v -43 -40 0
v -42 -41 0
v -43 -41 0
v -43 -40 0
v -42 -40 0
v -40 -41 0
v -41 -41 0
v -41 -40 0
v -40 -40 0
v -39 -41 0
v -40 -41 0
v -40 -40 0
v -39 -40 0
v -38 -41 0
v -39 -41 0
v -39 -40 0
v -38 -40 0
v -37 -41 0
v -38 -41 0
v -38 -40 0
v -37 -40 0
v -36 -41 0
v -37 -41 0
v -37 -40 0
v -36 -40 0
v -45 -42 0
v -46 -42 0
v -46 -41 0
v -45 -41 0
v -43 -42 0
v -44 -42 0
v -44 -41 0
v -43 -41 0
v -42 -42 0
v -43 -42 0
v -43 -41 0
v -42 -41 0
v -41 -42 0
v -42 -42 0
v -42 -41 0
v -41 -41 0
v -40 -42 0
v -41 -42 0
v -41 -41 0
v -40 -41 0
v -39 -42 0
v -40 -42 0
v -40 -41 0
v -39 -41 0
v -38 -42 0
v -39 -42 0
v -39 -41 0
v -38 -41 0
v -37 -42 0
v -38 -42 0
v -38 -41 0
v -37 -41 0
v -36 -42 0
v -37 -42 0
v -37 -41 0
v -36 -41 0
v -35 -42 0
v -36 -42 0
v -36 -41 0
v -35 -41 0
v -43 -43 0
v -44 -43 0
v -44 -42 0
v -43 -42 0
v -42 -43 0
v -43 -43 0
v -43 -42 0
v -42 -42 0
v -39 -43 0
v -40 -43 0
v -40 -42 0
v -39 -42 0
v -39 -44 0
v -40 -44 0
v -40 -43 0
v -39 -43 0
v -48 -45 0
v -49 -45 0
v -49 -44 0
v -48 -44 0
v -48 -46 0
v -49 -46 0
v -49 -45 0
v -48 -45 0
v -47 -46 0
v -48 -46 0
v -48 -45 0
v -47 -45 0
v -41 -46 0
v -42 -46 0
v -42 -45 0
v -41 -45 0
v -40 -46 0
v -41 -46 0
v -41 -45 0
v -40 -45 0
v -39 -46 0
v -40 -46 0
v -40 -45 0
v -39 -45 0
v -38 -46 0
v -39 -46 0
v -39 -45 0
v -38 -45 0
v -33 -46 0
v -34 -46 0
v -34 -45 0
v -33 -45 0
v -48 -47 0
v -49 -47 0
v -49 -46 0
v -48 -46 0
v -46 -47 0
v -47 -47 0
v -47 -46 0
v -46 -46 0
v -45 -47 0
v -46 -47 0
v -46 -46 0
v -45 -46 0
v -44 -47 0
v -45 -47 0
v -45 -46 0
v -44 -46 0
v -43 -47 0
v -44 -47 0
v -44 -46 0
v -43 -46 0
v -42 -47 0
v -43 -47 0
v -43 -46 0
v -42 -46 0
v -41 -47 0
v -42 -47 0
v -42 -46 0
v -41 -46 0
v -40 -47 0
v -41 -47 0
v -41 -46 0
v -40 -46 0
v -39 -47 0
v -40 -47 0
v -40 -46 0
v -39 -46 0
v -38 -47 0
v -39 -47 0
v -39 -46 0
v -38 -46 0
v -37 -47 0
v -38 -47 0
v -38 -46 0
v -37 -46 0
v -33 -47 0
v -34 -47 0
v -34 -46 0
v -33 -46 0
v -48 -48 0
v -49 -48 0
v -49 -47 0
v -48 -47 0
v -46 -48 0
v -47 -48 0
v -47 -47 0
v -46 -47 0
v -45 -48 0
v -46 -48 0
v -46 -47 0
v -45 -47 0
v -44 -48 0
v -45 -48 0
v -45 -47 0
v -44 -47 0
v -43 -48 0
v -44 -48 0
v -44 -47 0
v -43 -47 0
v -42 -48 0
v -43 -48 0
v -43 -47 0
v -42 -47 0
v -41 -48 0
v -42 -48 0
v -42 -47 0
v -41 -47 0
v -40 -48 0
v -41 -48 0
v -41 -47 0
v -40 -47 0
v -39 -48 0
v -40 -48 0
v -40 -47 0
v -39 -47 0
v -38 -48 0
v -39 -48 0
v -39 -47 0
v -38 -47 0
v -33 -48 0
v -34 -48 0
v -34 -47 0
v -33 -47 0
v -48 -49 0
v -49 -49 0
v -49 -48 0
v -48 -48 0
v -46 -49 0
v -47 -49 0
v -47 -48 0
v -46 -48 0
v -41 -49 0
v -42 -49 0
v -42 -48 0
v -41 -48 0
v -40 -49 0
v -41 -49 0
v -41 -48 0
v -40 -48 0
v -39 -49 0
v -40 -49 0
v -40 -48 0
v -39 -48 0
v -38 -49 0
v -39 -49 0
v -39 -48 0
v -38 -48 0
v -33 -49 0
v -34 -49 0
v -34 -48 0
v -33 -48 0
v -48 -50 0
v -49 -50 0
v -49 -49 0
v -48 -49 0
v -46 -50 0
v -47 -50 0
v -47 -49 0
v -46 -49 0
v -45 -50 0
v -46 -50 0
v -46 -49 0
v -45 -49 0
v -41 -50 0
v -42 -50 0
v -42 -49 0
v -41 -49 0
v -40 -50 0
v -41 -50 0
v -41 -49 0
v -40 -49 0
v -39 -50 0
v -40 -50 0
v -40 -49 0
v -39 -49 0
v -38 -50 0
v -39 -50 0
v -39 -49 0
v -38 -49 0
v -33 -50 0
v -34 -50 0
v -34 -49 0
v -33 -49 0
v -48 -51 0
v -49 -51 0
v -49 -50 0
v -48 -50 0
v -46 -51 0
v -47 -51 0
v -47 -50 0
v -46 -50 0
v -45 -51 0
v -46 -51 0
v -46 -50 0
v -45 -50 0
v -44 -51 0
v -45 -51 0
v -45 -50 0
v -44 -50 0
v -35 -51 0
v -36 -51 0
v -36 -50 0
v -35 -50 0
v -34 -51 0
v -35 -51 0
v -35 -50 0
v -34 -50 0
v -33 -51 0
v -34 -51 0
v -34 -50 0
v -33 -50 0
v -48 -52 0
v -49 -52 0
v -49 -51 0
v -48 -51 0
v -46 -52 0
v -47 -52 0
v -47 -51 0
v -46 -51 0
v -45 -52 0
v -46 -52 0
v -46 -51 0
v -45 -51 0
v -44 -52 0
v -45 -52 0
v -45 -51 0
v -44 -51 0
v -40 -52 0
v -41 -52 0
v -41 -51 0
v -40 -51 0
v -39 -52 0
v -40 -52 0
v -40 -51 0
v -39 -51 0
v -38 -52 0
v -39 -52 0
v -39 -51 0
v -38 -51 0
v -37 -52 0
v -38 -52 0
v -38 -51 0
v -37 -51 0
v -36 -52 0
v -37 -52 0
v -37 -51 0
v -36 -51 0
v -35 -52 0
v -36 -52 0
v -36 -51 0
v -35 -51 0
v -34 -52 0
v -35 -52 0
v -35 -51 0
v -34 -51 0
v -33 -52 0
v -34 -52 0
v -34 -51 0
v -33 -51 0
v -48 -53 0
v -49 -53 0
v -49 -52 0
v -48 -52 0
v -43 -53 0
v -44 -53 0
v -44 -52 0
v -43 -52 0
v -42 -53 0
v -43 -53 0
v -43 -52 0
v -42 -52 0
v -41 -53 0
v -42 -53 0
v -42 -52 0
v -41 -52 0
v -40 -53 0
v -41 -53 0
v -41 -52 0
v -40 -52 0
v -36 -53 0
v -37 -53 0
v -37 -52 0
v -36 -52 0
v -35 -53 0
v -36 -53 0
v -36 -52 0
v -35 -52 0
v -34 -53 0
v -35 -53 0
v -35 -52 0
v -34 -52 0
v -33 -53 0
v -34 -53 0
v -34 -52 0
v -33 -52 0
v -48 -54 0
v -49 -54 0
v -49 -53 0
v -48 -53 0
v -44 -55 0
v -45 -55 0
v -45 -54 0
v -44 -54 0
v -39 -55 0
v -40 -55 0
v -40 -54 0
v -39 -54 0
v -36 -55 0
v -37 -55 0
v -37 -54 0
v -36 -54 0
v -49 -56 0
v -50 -56 0
v -50 -55 0
v -49 -55 0
v -48 -56 0
v -49 -56 0
v -49 -55 0
v -48 -55 0
v -47 -56 0
v -48 -56 0
v -48 -55 0
v -47 -55 0
v -49 -57 0
v -50 -57 0
v -50 -56 0
v -49 -56 0
v -48 -57 0
v -49 -57 0
v -49 -56 0
v -48 -56 0
v -47 -57 0
v -48 -57 0
v -48 -56 0
v -47 -56 0
v -40 -57 0
v -41 -57 0
v -41 -56 0
v -40 -56 0
v -39 -57 0
v -40 -57 0
v -40 -56 0
v -39 -56 0
v -38 -57 0
v -39 -57 0
v -39 -56 0
v -38 -56 0
v -37 -57 0
v -38 -57 0
v -38 -56 0
v -37 -56 0
v -36 -57 0
v -37 -57 0
v -37 -56 0
v -36 -56 0
v -35 -57 0
v -36 -57 0
v -36 -56 0
v -35 -56 0
v -34 -57 0
v -35 -57 0
v -35 -56 0
v -34 -56 0
v -33 -57 0
v -34 -57 0
v -34 -56 0
v -33 -56 0
v -49 -58 0
v -50 -58 0
v -50 -57 0
v -49 -57 0
v -48 -58 0
v -49 -58 0
v -49 -57 0
v -48 -57 0
v -47 -58 0
v -48 -58 0
v -48 -57 0
v -47 -57 0
v -38 -58 0
v -39 -58 0
v -39 -57 0
v -38 -57 0
v -34 -58 0
v -35 -58 0
v -35 -57 0
v -34 -57 0
v -33 -58 0
v -34 -58 0
v -34 -57 0
v -33 -57 0
v -49 -59 0
v -50 -59 0
v -50 -58 0
v -49 -58 0
v -48 -59 0
v -49 -59 0
v -49 -58 0
v -48 -58 0
v -40 -59 0
v -41 -59 0
v -41 -58 0
v -40 -58 0
v -39 -59 0
v -40 -59 0
v -40 -58 0
v -39 -58 0
v -38 -59 0
v -39 -59 0
v -39 -58 0
v -38 -58 0
v -34 -59 0
v -35 -59 0
v -35 -58 0
v -34 -58 0
v -33 -59 0
v -34 -59 0
v -34 -58 0
v -33 -58 0
v -40 -60 0
v -41 -60 0
v -41 -59 0
v -40 -59 0
v -39 -60 0
v -40 -60 0
v -40 -59 0
v -39 -59 0

# Texture cooridinates (Count = 76)
vt 0.08780992 0.8403042
vt 0.1043388 0.8403042
vt 0.1043388 0.8707224
vt 0.08780992 0.8707224
vt 0.1404959 0.8726236
vt 0.1570248 0.8726236
vt 0.1570248 0.9030418
vt 0.1404959 0.9030418
vt 0.1580579 0.8079848
vt 0.1745868 0.8079848
vt 0.1745868 0.838403
vt 0.1580579 0.838403
vt 0.08780992 0.8726236
vt 0.1043388 0.8726236
vt 0.1043388 0.9030418
vt 0.08780992 0.9030418
vt 0.6497934 0.6787072
vt 0.6663223 0.6787072
vt 0.6663223 0.7091255
vt 0.6497934 0.7091255
vt 0.1053719 0.8079848
vt 0.1219008 0.8079848
vt 0.1219008 0.838403
vt 0.1053719 0.838403
vt 0.4390496 0.1292776
vt 0.4555785 0.1292776
vt 0.4555785 0.1596958
vt 0.4390496 0.1596958
vt 0.1053719 0.8403042
vt 0.1219008 0.8403042
vt 0.1219008 0.8707224
vt 0.1053719 0.8707224
vt 0.3688017 0.8726236
vt 0.3853306 0.8726236
vt 0.3853306 0.9030418
vt 0.3688017 0.9030418
vt 0.4390496 0.9695817
vt 0.4555785 0.9695817
vt 0.4555785 1
vt 0.4390496 1
vt 0.8780992 0.8079848
vt 0.8946281 0.8079848
vt 0.8946281 0.838403
vt 0.8780992 0.838403
vt 0.2458678 0.904943
vt 0.2623967 0.904943
vt 0.2623967 0.9353612
vt 0.2458678 0.9353612
vt 0.1404959 0.8403042
vt 0.1570248 0.8403042
vt 0.1570248 0.8707224
vt 0.1404959 0.8707224
vt 0.6322314 0.5171102
vt 0.6487603 0.5171102
vt 0.6487603 0.5475285
vt 0.6322314 0.5475285
vt 0.6673554 0.4524715
vt 0.6838843 0.4524715
vt 0.6838843 0.4828897
vt 0.6673554 0.4828897
vt 0.4917355 0.9372624
vt 0.5082645 0.9372624
vt 0.5082645 0.9676806
vt 0.4917355 0.9676806
vt 0.1229339 0.8079848
vt 0.1394628 0.8079848
vt 0.1394628 0.838403
vt 0.1229339 0.838403
vt 0.1229339 0.8403042
vt 0.1394628 0.8403042
vt 0.1394628 0.8707224
vt 0.1229339 0.8707224
vt 0.2283058 0.03231937
vt 0.2448347 0.03231937
vt 0.2448347 0.06273764
vt 0.2283058 0.06273764

# Normal
vn 0 0 -1

# Mesh description
g AHouse_mesh_0002

# Faces
f 1/1/1 2/2/1 3/3/1 4/4/1
f 5/5/1 6/6/1 7/7/1 8/8/1
f 9/9/1 10/10/1 11/11/1 12/12/1
f 13/9/1 14/10/1 15/11/1 16/12/1
f 17/9/1 18/10/1 19/11/1 20/12/1
f 21/9/1 22/10/1 23/11/1 24/12/1
f 25/9/1 26/10/1 27/11/1 28/12/1
f 29/5/1 30/6/1 31/7/1 32/8/1
f 33/1/1 34/2/1 35/3/1 36/4/1
f 37/1/1 38/2/1 39/3/1 40/4/1
f 41/9/1 42/10/1 43/11/1 44/12/1
f 45/13/1 46/14/1 47/15/1 48/16/1
f 49/13/1 50/14/1 51/15/1 52/16/1
f 53/1/1 54/2/1 55/3/1 56/4/1
f 57/1/1 58/2/1 59/3/1 60/4/1
f 61/1/1 62/2/1 63/3/1 64/4/1
f 65/9/1 66/10/1 67/11/1 68/12/1
f 69/9/1 70/10/1 71/11/1 72/12/1
f 73/17/1 74/18/1 75/19/1 76/20/1
f 77/1/1 78/2/1 79/3/1 80/4/1
f 81/13/1 82/14/1 83/15/1 84/16/1
f 85/13/1 86/14/1 87/15/1 88/16/1
f 89/21/1 90/22/1 91/23/1 92/24/1
f 93/21/1 94/22/1 95/23/1 96/24/1
f 97/1/1 98/2/1 99/3/1 100/4/1
f 101/25/1 102/26/1 103/27/1 104/28/1
f 105/9/1 106/10/1 107/11/1 108/12/1
f 109/29/1 110/30/1 111/31/1 112/32/1
f 113/29/1 114/30/1 115/31/1 116/32/1
f 117/29/1 118/30/1 119/31/1 120/32/1
f 121/29/1 122/30/1 123/31/1 124/32/1
f 125/25/1 126/26/1 127/27/1 128/28/1
f 129/25/1 130/26/1 131/27/1 132/28/1
f 133/29/1 134/30/1 135/31/1 136/32/1
f 137/29/1 138/30/1 139/31/1 140/32/1
f 141/29/1 142/30/1 143/31/1 144/32/1
f 145/29/1 146/30/1 147/31/1 148/32/1
f 149/29/1 150/30/1 151/31/1 152/32/1
f 153/29/1 154/30/1 155/31/1 156/32/1
f 157/29/1 158/30/1 159/31/1 160/32/1
f 161/29/1 162/30/1 163/31/1 164/32/1
f 165/29/1 166/30/1 167/31/1 168/32/1
f 169/33/1 170/34/1 171/35/1 172/36/1
f 173/25/1 174/26/1 175/27/1 176/28/1
f 177/25/1 178/26/1 179/27/1 180/28/1
f 181/29/1 182/30/1 183/31/1 184/32/1
f 185/29/1 186/30/1 187/31/1 188/32/1
f 189/29/1 190/30/1 191/31/1 192/32/1
f 193/29/1 194/30/1 195/31/1 196/32/1
f 197/29/1 198/30/1 199/31/1 200/32/1
f 201/29/1 202/30/1 203/31/1 204/32/1
f 205/29/1 206/30/1 207/31/1 208/32/1
f 209/29/1 210/30/1 211/31/1 212/32/1
f 213/29/1 214/30/1 215/31/1 216/32/1
f 217/25/1 218/26/1 219/27/1 220/28/1
f 221/37/1 222/38/1 223/39/1 224/40/1
f 225/41/1 226/42/1 227/43/1 228/44/1
f 229/29/1 230/30/1 231/31/1 232/32/1
f 233/29/1 234/30/1 235/31/1 236/32/1
f 237/29/1 238/30/1 239/31/1 240/32/1
f 241/29/1 242/30/1 243/31/1 244/32/1
f 245/45/1 246/46/1 247/47/1 248/48/1
f 249/49/1 250/50/1 251/51/1 252/52/1
f 253/53/1 254/54/1 255/55/1 256/56/1
f 257/53/1 258/54/1 259/55/1 260/56/1
f 261/29/1 262/30/1 263/31/1 264/32/1
f 265/29/1 266/30/1 267/31/1 268/32/1
f 269/29/1 270/30/1 271/31/1 272/32/1
f 273/29/1 274/30/1 275/31/1 276/32/1
f 277/57/1 278/58/1 279/59/1 280/60/1
f 281/9/1 282/10/1 283/11/1 284/12/1
f 285/53/1 286/54/1 287/55/1 288/56/1
f 289/53/1 290/54/1 291/55/1 292/56/1
f 293/61/1 294/62/1 295/63/1 296/64/1
f 297/9/1 298/10/1 299/11/1 300/12/1
f 301/9/1 302/10/1 303/11/1 304/12/1
f 305/57/1 306/58/1 307/59/1 308/60/1
f 309/9/1 310/10/1 311/11/1 312/12/1
f 313/53/1 314/54/1 315/55/1 316/56/1
f 317/53/1 318/54/1 319/55/1 320/56/1
f 321/65/1 322/66/1 323/67/1 324/68/1
f 325/5/1 326/6/1 327/7/1 328/8/1
f 329/5/1 330/6/1 331/7/1 332/8/1
f 333/5/1 334/6/1 335/7/1 336/8/1
f 337/5/1 338/6/1 339/7/1 340/8/1
f 341/5/1 342/6/1 343/7/1 344/8/1
f 345/9/1 346/10/1 347/11/1 348/12/1
f 349/9/1 350/10/1 351/11/1 352/12/1
f 353/57/1 354/58/1 355/59/1 356/60/1
f 357/65/1 358/66/1 359/67/1 360/68/1
f 361/5/1 362/6/1 363/7/1 364/8/1
f 365/5/1 366/6/1 367/7/1 368/8/1
f 369/5/1 370/6/1 371/7/1 372/8/1
f 373/5/1 374/6/1 375/7/1 376/8/1
f 377/13/1 378/14/1 379/15/1 380/16/1
f 381/13/1 382/14/1 383/15/1 384/16/1
f 385/13/1 386/14/1 387/15/1 388/16/1
f 389/13/1 390/14/1 391/15/1 392/16/1
f 393/65/1 394/66/1 395/67/1 396/68/1
f 397/13/1 398/14/1 399/15/1 400/16/1
f 401/69/1 402/70/1 403/71/1 404/72/1
f 405/13/1 406/14/1 407/15/1 408/16/1
f 409/9/1 410/10/1 411/11/1 412/12/1
f 413/9/1 414/10/1 415/11/1 416/12/1
f 417/9/1 418/10/1 419/11/1 420/12/1
f 421/9/1 422/10/1 423/11/1 424/12/1
f 425/9/1 426/10/1 427/11/1 428/12/1
f 429/9/1 430/10/1 431/11/1 432/12/1
f 433/65/1 434/66/1 435/67/1 436/68/1
f 437/65/1 438/66/1 439/67/1 440/68/1
f 441/65/1 442/66/1 443/67/1 444/68/1
f 445/65/1 446/66/1 447/67/1 448/68/1
f 449/65/1 450/66/1 451/67/1 452/68/1
f 453/65/1 454/66/1 455/67/1 456/68/1
f 457/65/1 458/66/1 459/67/1 460/68/1
f 461/65/1 462/66/1 463/67/1 464/68/1
f 465/9/1 466/10/1 467/11/1 468/12/1
f 469/9/1 470/10/1 471/11/1 472/12/1
f 473/69/1 474/70/1 475/71/1 476/72/1
f 477/13/1 478/14/1 479/15/1 480/16/1
f 481/65/1 482/66/1 483/67/1 484/68/1
f 485/65/1 486/66/1 487/67/1 488/68/1
f 489/9/1 490/10/1 491/11/1 492/12/1
f 493/9/1 494/10/1 495/11/1 496/12/1
f 497/13/1 498/14/1 499/15/1 500/16/1
f 501/13/1 502/14/1 503/15/1 504/16/1
f 505/13/1 506/14/1 507/15/1 508/16/1
f 509/65/1 510/66/1 511/67/1 512/68/1
f 513/65/1 514/66/1 515/67/1 516/68/1
f 517/73/1 518/74/1 519/75/1 520/76/1
f 521/73/1 522/74/1 523/75/1 524/76/1

