# Tiled2Unity generated file. Do not modify by hand.
# Wavefront file for 'StartOfTheGame2_mesh_0002.obj'

# Vertices (Count = 928)
v -31 -9 0
v -32 -9 0
v -32 -8 0
v -31 -8 0
v -30 -9 0
v -31 -9 0
v -31 -8 0
v -30 -8 0
v -29 -9 0
v -30 -9 0
v -30 -8 0
v -29 -8 0
v -28 -9 0
v -29 -9 0
v -29 -8 0
v -28 -8 0
v -27 -9 0
v -28 -9 0
v -28 -8 0
v -27 -8 0
v -26 -9 0
v -27 -9 0
v -27 -8 0
v -26 -8 0
v -25 -9 0
v -26 -9 0
v -26 -8 0
v -25 -8 0
v -24 -9 0
v -25 -9 0
v -25 -8 0
v -24 -8 0
v -23 -9 0
v -24 -9 0
v -24 -8 0
v -23 -8 0
v -22 -9 0
v -23 -9 0
v -23 -8 0
v -22 -8 0
v -21 -9 0
v -22 -9 0
v -22 -8 0
v -21 -8 0
v -20 -9 0
v -21 -9 0
v -21 -8 0
v -20 -8 0
v -19 -9 0
v -20 -9 0
v -20 -8 0
v -19 -8 0
v -18 -9 0
v -19 -9 0
v -19 -8 0
v -18 -8 0
v -17 -9 0
v -18 -9 0
v -18 -8 0
v -17 -8 0
v -16 -9 0
v -17 -9 0
v -17 -8 0
v -16 -8 0
v -15 -9 0
v -16 -9 0
v -16 -8 0
v -15 -8 0
v -14 -9 0
v -15 -9 0
v -15 -8 0
v -14 -8 0
v -13 -9 0
v -14 -9 0
v -14 -8 0
v -13 -8 0
v -12 -9 0
v -13 -9 0
v -13 -8 0
v -12 -8 0
v -11 -9 0
v -12 -9 0
v -12 -8 0
v -11 -8 0
v -10 -9 0
v -11 -9 0
v -11 -8 0
v -10 -8 0
v -9 -9 0
v -10 -9 0
v -10 -8 0
v -9 -8 0
v -8 -9 0
v -9 -9 0
v -9 -8 0
v -8 -8 0
v -7 -9 0
v -8 -9 0
v -8 -8 0
v -7 -8 0
v -6 -9 0
v -7 -9 0
v -7 -8 0
v -6 -8 0
v -31 -10 0
v -32 -10 0
v -32 -9 0
v -31 -9 0
v -30 -10 0
v -31 -10 0
v -31 -9 0
v -30 -9 0
v -29 -10 0
v -30 -10 0
v -30 -9 0
v -29 -9 0
v -28 -10 0
v -29 -10 0
v -29 -9 0
v -28 -9 0
v -27 -10 0
v -28 -10 0
v -28 -9 0
v -27 -9 0
v -26 -10 0
v -27 -10 0
v -27 -9 0
v -26 -9 0
v -25 -10 0
v -26 -10 0
v -26 -9 0
v -25 -9 0
v -24 -10 0
v -25 -10 0
v -25 -9 0
v -24 -9 0
v -23 -10 0
v -24 -10 0
v -24 -9 0
v -23 -9 0
v -22 -10 0
v -23 -10 0
v -23 -9 0
v -22 -9 0
v -21 -10 0
v -22 -10 0
v -22 -9 0
v -21 -9 0
v -20 -10 0
v -21 -10 0
v -21 -9 0
v -20 -9 0
v -19 -10 0
v -20 -10 0
v -20 -9 0
v -19 -9 0
v -18 -10 0
v -19 -10 0
v -19 -9 0
v -18 -9 0
v -17 -10 0
v -18 -10 0
v -18 -9 0
v -17 -9 0
v -16 -10 0
v -17 -10 0
v -17 -9 0
v -16 -9 0
v -15 -10 0
v -16 -10 0
v -16 -9 0
v -15 -9 0
v -14 -10 0
v -15 -10 0
v -15 -9 0
v -14 -9 0
v -13 -10 0
v -14 -10 0
v -14 -9 0
v -13 -9 0
v -12 -10 0
v -13 -10 0
v -13 -9 0
v -12 -9 0
v -11 -10 0
v -12 -10 0
v -12 -9 0
v -11 -9 0
v -10 -10 0
v -11 -10 0
v -11 -9 0
v -10 -9 0
v -9 -10 0
v -10 -10 0
v -10 -9 0
v -9 -9 0
v -8 -10 0
v -9 -10 0
v -9 -9 0
v -8 -9 0
v -7 -10 0
v -8 -10 0
v -8 -9 0
v -7 -9 0
v -6 -10 0
v -7 -10 0
v -7 -9 0
v -6 -9 0
v -31 -11 0
v -32 -11 0
v -32 -10 0
v -31 -10 0
v -30 -11 0
v -31 -11 0
v -31 -10 0
v -30 -10 0
v -29 -11 0
v -30 -11 0
v -30 -10 0
v -29 -10 0
v -6 -11 0
v -7 -11 0
v -7 -10 0
v -6 -10 0
v -31 -12 0
v -32 -12 0
v -32 -11 0
v -31 -11 0
v -30 -12 0
v -31 -12 0
v -31 -11 0
v -30 -11 0
v -29 -12 0
v -30 -12 0
v -30 -11 0
v -29 -11 0
v -6 -12 0
v -7 -12 0
v -7 -11 0
v -6 -11 0
v -31 -13 0
v -32 -13 0
v -32 -12 0
v -31 -12 0
v -30 -13 0
v -31 -13 0
v -31 -12 0
v -30 -12 0
v -29 -13 0
v -30 -13 0
v -30 -12 0
v -29 -12 0
v -13 -13 0
v -14 -13 0
v -14 -12 0
v -13 -12 0
v -6 -13 0
v -7 -13 0
v -7 -12 0
v -6 -12 0
v -31 -14 0
v -32 -14 0
v -32 -13 0
v -31 -13 0
v -30 -14 0
v -31 -14 0
v -31 -13 0
v -30 -13 0
v -29 -14 0
v -30 -14 0
v -30 -13 0
v -29 -13 0
v -6 -14 0
v -7 -14 0
v -7 -13 0
v -6 -13 0
v -31 -15 0
v -32 -15 0
v -32 -14 0
v -31 -14 0
v -30 -15 0
v -31 -15 0
v -31 -14 0
v -30 -14 0
v -29 -15 0
v -30 -15 0
v -30 -14 0
v -29 -14 0
v -10 -15 0
v -11 -15 0
v -11 -14 0
v -10 -14 0
v -6 -15 0
v -7 -15 0
v -7 -14 0
v -6 -14 0
v -31 -16 0
v -32 -16 0
v -32 -15 0
v -31 -15 0
v -30 -16 0
v -31 -16 0
v -31 -15 0
v -30 -15 0
v -29 -16 0
v -30 -16 0
v -30 -15 0
v -29 -15 0
v -27 -16 0
v -28 -16 0
v -28 -15 0
v -27 -15 0
v -17 -16 0
v -18 -16 0
v -18 -15 0
v -17 -15 0
v -7 -16 0
v -8 -16 0
v -8 -15 0
v -7 -15 0
v -6 -16 0
v -7 -16 0
v -7 -15 0
v -6 -15 0
v -28 -17 0
v -29 -17 0
v -29 -16 0
v -28 -16 0
v -27 -17 0
v -28 -17 0
v -28 -16 0
v -27 -16 0
v -26 -17 0
v -27 -17 0
v -27 -16 0
v -26 -16 0
v -25 -17 0
v -26 -17 0
v -26 -16 0
v -25 -16 0
v -24 -17 0
v -25 -17 0
v -25 -16 0
v -24 -16 0
v -23 -17 0
v -24 -17 0
v -24 -16 0
v -23 -16 0
v -22 -17 0
v -23 -17 0
v -23 -16 0
v -22 -16 0
v -21 -17 0
v -22 -17 0
v -22 -16 0
v -21 -16 0
v -20 -17 0
v -21 -17 0
v -21 -16 0
v -20 -16 0
v -19 -17 0
v -20 -17 0
v -20 -16 0
v -19 -16 0
v -18 -17 0
v -19 -17 0
v -19 -16 0
v -18 -16 0
v -17 -17 0
v -18 -17 0
v -18 -16 0
v -17 -16 0
v -16 -17 0
v -17 -17 0
v -17 -16 0
v -16 -16 0
v -15 -17 0
v -16 -17 0
v -16 -16 0
v -15 -16 0
v -14 -17 0
v -15 -17 0
v -15 -16 0
v -14 -16 0
v -13 -17 0
v -14 -17 0
v -14 -16 0
v -13 -16 0
v -12 -17 0
v -13 -17 0
v -13 -16 0
v -12 -16 0
v -11 -17 0
v -12 -17 0
v -12 -16 0
v -11 -16 0
v -10 -17 0
v -11 -17 0
v -11 -16 0
v -10 -16 0
v -9 -17 0
v -10 -17 0
v -10 -16 0
v -9 -16 0
v -8 -17 0
v -9 -17 0
v -9 -16 0
v -8 -16 0
v -7 -17 0
v -8 -17 0
v -8 -16 0
v -7 -16 0
v -6 -17 0
v -7 -17 0
v -7 -16 0
v -6 -16 0
v -28 -18 0
v -29 -18 0
v -29 -17 0
v -28 -17 0
v -27 -18 0
v -28 -18 0
v -28 -17 0
v -27 -17 0
v -26 -18 0
v -27 -18 0
v -27 -17 0
v -26 -17 0
v -25 -18 0
v -26 -18 0
v -26 -17 0
v -25 -17 0
v -24 -18 0
v -25 -18 0
v -25 -17 0
v -24 -17 0
v -23 -18 0
v -24 -18 0
v -24 -17 0
v -23 -17 0
v -22 -18 0
v -23 -18 0
v -23 -17 0
v -22 -17 0
v -21 -18 0
v -22 -18 0
v -22 -17 0
v -21 -17 0
v -20 -18 0
v -21 -18 0
v -21 -17 0
v -20 -17 0
v -19 -18 0
v -20 -18 0
v -20 -17 0
v -19 -17 0
v -18 -18 0
v -19 -18 0
v -19 -17 0
v -18 -17 0
v -17 -18 0
v -18 -18 0
v -18 -17 0
v -17 -17 0
v -16 -18 0
v -17 -18 0
v -17 -17 0
v -16 -17 0
v -15 -18 0
v -16 -18 0
v -16 -17 0
v -15 -17 0
v -14 -18 0
v -15 -18 0
v -15 -17 0
v -14 -17 0
v -13 -18 0
v -14 -18 0
v -14 -17 0
v -13 -17 0
v -12 -18 0
v -13 -18 0
v -13 -17 0
v -12 -17 0
v -11 -18 0
v -12 -18 0
v -12 -17 0
v -11 -17 0
v -10 -18 0
v -11 -18 0
v -11 -17 0
v -10 -17 0
v -9 -18 0
v -10 -18 0
v -10 -17 0
v -9 -17 0
v -8 -18 0
v -9 -18 0
v -9 -17 0
v -8 -17 0
v -7 -18 0
v -8 -18 0
v -8 -17 0
v -7 -17 0
v -6 -18 0
v -7 -18 0
v -7 -17 0
v -6 -17 0
v -31 -19 0
v -32 -19 0
v -32 -18 0
v -31 -18 0
v -30 -19 0
v -31 -19 0
v -31 -18 0
v -30 -18 0
v -29 -19 0
v -30 -19 0
v -30 -18 0
v -29 -18 0
v -28 -19 0
v -29 -19 0
v -29 -18 0
v -28 -18 0
v -7 -19 0
v -8 -19 0
v -8 -18 0
v -7 -18 0
v -6 -19 0
v -7 -19 0
v -7 -18 0
v -6 -18 0
v -31 -20 0
v -32 -20 0
v -32 -19 0
v -31 -19 0
v -30 -20 0
v -31 -20 0
v -31 -19 0
v -30 -19 0
v -29 -20 0
v -30 -20 0
v -30 -19 0
v -29 -19 0
v -25 -20 0
v -26 -20 0
v -26 -19 0
v -25 -19 0
v -24 -20 0
v -25 -20 0
v -25 -19 0
v -24 -19 0
v -23 -20 0
v -24 -20 0
v -24 -19 0
v -23 -19 0
v -22 -20 0
v -23 -20 0
v -23 -19 0
v -22 -19 0
v -21 -20 0
v -22 -20 0
v -22 -19 0
v -21 -19 0
v -10 -20 0
v -11 -20 0
v -11 -19 0
v -10 -19 0
v -6 -20 0
v -7 -20 0
v -7 -19 0
v -6 -19 0
v -31 -21 0
v -32 -21 0
v -32 -20 0
v -31 -20 0
v -30 -21 0
v -31 -21 0
v -31 -20 0
v -30 -20 0
v -29 -21 0
v -30 -21 0
v -30 -20 0
v -29 -20 0
v -25 -21 0
v -26 -21 0
v -26 -20 0
v -25 -20 0
v -24 -21 0
v -25 -21 0
v -25 -20 0
v -24 -20 0
v -23 -21 0
v -24 -21 0
v -24 -20 0
v -23 -20 0
v -22 -21 0
v -23 -21 0
v -23 -20 0
v -22 -20 0
v -21 -21 0
v -22 -21 0
v -22 -20 0
v -21 -20 0
v -6 -21 0
v -7 -21 0
v -7 -20 0
v -6 -20 0
v -31 -22 0
v -32 -22 0
v -32 -21 0
v -31 -21 0
v -30 -22 0
v -31 -22 0
v -31 -21 0
v -30 -21 0
v -29 -22 0
v -30 -22 0
v -30 -21 0
v -29 -21 0
v -25 -22 0
v -26 -22 0
v -26 -21 0
v -25 -21 0
v -24 -22 0
v -25 -22 0
v -25 -21 0
v -24 -21 0
v -23 -22 0
v -24 -22 0
v -24 -21 0
v -23 -21 0
v -22 -22 0
v -23 -22 0
v -23 -21 0
v -22 -21 0
v -21 -22 0
v -22 -22 0
v -22 -21 0
v -21 -21 0
v -6 -22 0
v -7 -22 0
v -7 -21 0
v -6 -21 0
v -31 -23 0
v -32 -23 0
v -32 -22 0
v -31 -22 0
v -30 -23 0
v -31 -23 0
v -31 -22 0
v -30 -22 0
v -29 -23 0
v -30 -23 0
v -30 -22 0
v -29 -22 0
v -25 -23 0
v -26 -23 0
v -26 -22 0
v -25 -22 0
v -24 -23 0
v -25 -23 0
v -25 -22 0
v -24 -22 0
v -23 -23 0
v -24 -23 0
v -24 -22 0
v -23 -22 0
v -22 -23 0
v -23 -23 0
v -23 -22 0
v -22 -22 0
v -21 -23 0
v -22 -23 0
v -22 -22 0
v -21 -22 0
v -10 -23 0
v -11 -23 0
v -11 -22 0
v -10 -22 0
v -6 -23 0
v -7 -23 0
v -7 -22 0
v -6 -22 0
v -31 -24 0
v -32 -24 0
v -32 -23 0
v -31 -23 0
v -30 -24 0
v -31 -24 0
v -31 -23 0
v -30 -23 0
v -29 -24 0
v -30 -24 0
v -30 -23 0
v -29 -23 0
v -25 -24 0
v -26 -24 0
v -26 -23 0
v -25 -23 0
v -24 -24 0
v -25 -24 0
v -25 -23 0
v -24 -23 0
v -23 -24 0
v -24 -24 0
v -24 -23 0
v -23 -23 0
v -22 -24 0
v -23 -24 0
v -23 -23 0
v -22 -23 0
v -21 -24 0
v -22 -24 0
v -22 -23 0
v -21 -23 0
v -6 -24 0
v -7 -24 0
v -7 -23 0
v -6 -23 0
v -31 -25 0
v -32 -25 0
v -32 -24 0
v -31 -24 0
v -30 -25 0
v -31 -25 0
v -31 -24 0
v -30 -24 0
v -29 -25 0
v -30 -25 0
v -30 -24 0
v -29 -24 0
v -28 -25 0
v -29 -25 0
v -29 -24 0
v -28 -24 0
v -27 -25 0
v -28 -25 0
v -28 -24 0
v -27 -24 0
v -26 -25 0
v -27 -25 0
v -27 -24 0
v -26 -24 0
v -25 -25 0
v -26 -25 0
v -26 -24 0
v -25 -24 0
v -24 -25 0
v -25 -25 0
v -25 -24 0
v -24 -24 0
v -23 -25 0
v -24 -25 0
v -24 -24 0
v -23 -24 0
v -22 -25 0
v -23 -25 0
v -23 -24 0
v -22 -24 0
v -21 -25 0
v -22 -25 0
v -22 -24 0
v -21 -24 0
v -20 -25 0
v -21 -25 0
v -21 -24 0
v -20 -24 0
v -19 -25 0
v -20 -25 0
v -20 -24 0
v -19 -24 0
v -18 -25 0
v -19 -25 0
v -19 -24 0
v -18 -24 0
v -17 -25 0
v -18 -25 0
v -18 -24 0
v -17 -24 0
v -16 -25 0
v -17 -25 0
v -17 -24 0
v -16 -24 0
v -15 -25 0
v -16 -25 0
v -16 -24 0
v -15 -24 0
v -14 -25 0
v -15 -25 0
v -15 -24 0
v -14 -24 0
v -13 -25 0
v -14 -25 0
v -14 -24 0
v -13 -24 0
v -12 -25 0
v -13 -25 0
v -13 -24 0
v -12 -24 0
v -11 -25 0
v -12 -25 0
v -12 -24 0
v -11 -24 0
v -10 -25 0
v -11 -25 0
v -11 -24 0
v -10 -24 0
v -9 -25 0
v -10 -25 0
v -10 -24 0
v -9 -24 0
v -8 -25 0
v -9 -25 0
v -9 -24 0
v -8 -24 0
v -7 -25 0
v -8 -25 0
v -8 -24 0
v -7 -24 0
v -6 -25 0
v -7 -25 0
v -7 -24 0
v -6 -24 0
v -31 -26 0
v -32 -26 0
v -32 -25 0
v -31 -25 0
v -30 -26 0
v -31 -26 0
v -31 -25 0
v -30 -25 0
v -29 -26 0
v -30 -26 0
v -30 -25 0
v -29 -25 0
v -28 -26 0
v -29 -26 0
v -29 -25 0
v -28 -25 0
v -27 -26 0
v -28 -26 0
v -28 -25 0
v -27 -25 0
v -26 -26 0
v -27 -26 0
v -27 -25 0
v -26 -25 0
v -25 -26 0
v -26 -26 0
v -26 -25 0
v -25 -25 0
v -24 -26 0
v -25 -26 0
v -25 -25 0
v -24 -25 0
v -23 -26 0
v -24 -26 0
v -24 -25 0
v -23 -25 0
v -22 -26 0
v -23 -26 0
v -23 -25 0
v -22 -25 0
v -21 -26 0
v -22 -26 0
v -22 -25 0
v -21 -25 0
v -20 -26 0
v -21 -26 0
v -21 -25 0
v -20 -25 0
v -19 -26 0
v -20 -26 0
v -20 -25 0
v -19 -25 0
v -18 -26 0
v -19 -26 0
v -19 -25 0
v -18 -25 0
v -17 -26 0
v -18 -26 0
v -18 -25 0
v -17 -25 0
v -16 -26 0
v -17 -26 0
v -17 -25 0
v -16 -25 0
v -15 -26 0
v -16 -26 0
v -16 -25 0
v -15 -25 0
v -14 -26 0
v -15 -26 0
v -15 -25 0
v -14 -25 0
v -13 -26 0
v -14 -26 0
v -14 -25 0
v -13 -25 0
v -12 -26 0
v -13 -26 0
v -13 -25 0
v -12 -25 0
v -11 -26 0
v -12 -26 0
v -12 -25 0
v -11 -25 0
v -10 -26 0
v -11 -26 0
v -11 -25 0
v -10 -25 0
v -9 -26 0
v -10 -26 0
v -10 -25 0
v -9 -25 0
v -8 -26 0
v -9 -26 0
v -9 -25 0
v -8 -25 0
v -7 -26 0
v -8 -26 0
v -8 -25 0
v -7 -25 0
v -6 -26 0
v -7 -26 0
v -7 -25 0
v -6 -25 0

# Texture cooridinates (Count = 56)
vt 0.4039256 0.6463878
vt 0.4204545 0.6463878
vt 0.4204545 0.6768061
vt 0.4039256 0.6768061
vt 0.3161157 0.6463878
vt 0.3326446 0.6463878
vt 0.3326446 0.6768061
vt 0.3161157 0.6768061
vt 0.4039256 0.6140684
vt 0.4204545 0.6140684
vt 0.4204545 0.6444867
vt 0.4039256 0.6444867
vt 0.3161157 0.6140684
vt 0.3326446 0.6140684
vt 0.3326446 0.6444867
vt 0.3161157 0.6444867
vt 0.4917355 0.6787072
vt 0.5082645 0.6787072
vt 0.5082645 0.7091255
vt 0.4917355 0.7091255
vt 0.3336777 0.9695817
vt 0.3502066 0.9695817
vt 0.3502066 1
vt 0.3336777 1
vt 0.4566116 0.6787072
vt 0.4731405 0.6787072
vt 0.4731405 0.7091255
vt 0.4566116 0.7091255
vt 0.4566116 0.6463878
vt 0.4731405 0.6463878
vt 0.4731405 0.6768061
vt 0.4566116 0.6768061
vt 0.1229339 0.9695817
vt 0.1394628 0.9695817
vt 0.1394628 1
vt 0.1229339 1
vt 0.2283058 0.1292776
vt 0.2448347 0.1292776
vt 0.2448347 0.1596958
vt 0.2283058 0.1596958
vt 0.2283058 0.03231937
vt 0.2448347 0.03231937
vt 0.2448347 0.06273764
vt 0.2283058 0.06273764
vt 0.5092975 0.6787072
vt 0.5258265 0.6787072
vt 0.5258265 0.7091255
vt 0.5092975 0.7091255
vt 0.5444215 0.6787072
vt 0.5609504 0.6787072
vt 0.5609504 0.7091255
vt 0.5444215 0.7091255
vt 0.5268595 0.6787072
vt 0.5433884 0.6787072
vt 0.5433884 0.7091255
vt 0.5268595 0.7091255

# Normal
vn 0 0 -1

# Mesh description
g StartOfTheGame2_mesh_0002

# Faces
f 1/1/1 2/2/1 3/3/1 4/4/1
f 5/1/1 6/2/1 7/3/1 8/4/1
f 9/5/1 10/6/1 11/7/1 12/8/1
f 13/5/1 14/6/1 15/7/1 16/8/1
f 17/5/1 18/6/1 19/7/1 20/8/1
f 21/5/1 22/6/1 23/7/1 24/8/1
f 25/5/1 26/6/1 27/7/1 28/8/1
f 29/5/1 30/6/1 31/7/1 32/8/1
f 33/5/1 34/6/1 35/7/1 36/8/1
f 37/5/1 38/6/1 39/7/1 40/8/1
f 41/5/1 42/6/1 43/7/1 44/8/1
f 45/5/1 46/6/1 47/7/1 48/8/1
f 49/5/1 50/6/1 51/7/1 52/8/1
f 53/5/1 54/6/1 55/7/1 56/8/1
f 57/5/1 58/6/1 59/7/1 60/8/1
f 61/5/1 62/6/1 63/7/1 64/8/1
f 65/5/1 66/6/1 67/7/1 68/8/1
f 69/5/1 70/6/1 71/7/1 72/8/1
f 73/5/1 74/6/1 75/7/1 76/8/1
f 77/5/1 78/6/1 79/7/1 80/8/1
f 81/5/1 82/6/1 83/7/1 84/8/1
f 85/5/1 86/6/1 87/7/1 88/8/1
f 89/5/1 90/6/1 91/7/1 92/8/1
f 93/5/1 94/6/1 95/7/1 96/8/1
f 97/5/1 98/6/1 99/7/1 100/8/1
f 101/5/1 102/6/1 103/7/1 104/8/1
f 105/9/1 106/10/1 107/11/1 108/12/1
f 109/9/1 110/10/1 111/11/1 112/12/1
f 113/13/1 114/14/1 115/15/1 116/16/1
f 117/13/1 118/14/1 119/15/1 120/16/1
f 121/13/1 122/14/1 123/15/1 124/16/1
f 125/13/1 126/14/1 127/15/1 128/16/1
f 129/13/1 130/14/1 131/15/1 132/16/1
f 133/13/1 134/14/1 135/15/1 136/16/1
f 137/13/1 138/14/1 139/15/1 140/16/1
f 141/13/1 142/14/1 143/15/1 144/16/1
f 145/13/1 146/14/1 147/15/1 148/16/1
f 149/13/1 150/14/1 151/15/1 152/16/1
f 153/13/1 154/14/1 155/15/1 156/16/1
f 157/13/1 158/14/1 159/15/1 160/16/1
f 161/13/1 162/14/1 163/15/1 164/16/1
f 165/13/1 166/14/1 167/15/1 168/16/1
f 169/13/1 170/14/1 171/15/1 172/16/1
f 173/13/1 174/14/1 175/15/1 176/16/1
f 177/13/1 178/14/1 179/15/1 180/16/1
f 181/13/1 182/14/1 183/15/1 184/16/1
f 185/13/1 186/14/1 187/15/1 188/16/1
f 189/13/1 190/14/1 191/15/1 192/16/1
f 193/13/1 194/14/1 195/15/1 196/16/1
f 197/13/1 198/14/1 199/15/1 200/16/1
f 201/13/1 202/14/1 203/15/1 204/16/1
f 205/13/1 206/14/1 207/15/1 208/16/1
f 209/1/1 210/2/1 211/3/1 212/4/1
f 213/1/1 214/2/1 215/3/1 216/4/1
f 217/5/1 218/6/1 219/7/1 220/8/1
f 221/5/1 222/6/1 223/7/1 224/8/1
f 225/9/1 226/10/1 227/11/1 228/12/1
f 229/9/1 230/10/1 231/11/1 232/12/1
f 233/13/1 234/14/1 235/15/1 236/16/1
f 237/13/1 238/14/1 239/15/1 240/16/1
f 241/1/1 242/2/1 243/3/1 244/4/1
f 245/1/1 246/2/1 247/3/1 248/4/1
f 249/5/1 250/6/1 251/7/1 252/8/1
f 253/17/1 254/18/1 255/19/1 256/20/1
f 257/5/1 258/6/1 259/7/1 260/8/1
f 261/9/1 262/10/1 263/11/1 264/12/1
f 265/9/1 266/10/1 267/11/1 268/12/1
f 269/13/1 270/14/1 271/15/1 272/16/1
f 273/13/1 274/14/1 275/15/1 276/16/1
f 277/1/1 278/2/1 279/3/1 280/4/1
f 281/1/1 282/2/1 283/3/1 284/4/1
f 285/5/1 286/6/1 287/7/1 288/8/1
f 289/17/1 290/18/1 291/19/1 292/20/1
f 293/5/1 294/6/1 295/7/1 296/8/1
f 297/9/1 298/10/1 299/11/1 300/12/1
f 301/9/1 302/10/1 303/11/1 304/12/1
f 305/13/1 306/14/1 307/15/1 308/16/1
f 309/21/1 310/22/1 311/23/1 312/24/1
f 313/25/1 314/26/1 315/27/1 316/28/1
f 317/29/1 318/30/1 319/31/1 320/32/1
f 321/13/1 322/14/1 323/15/1 324/16/1
f 325/33/1 326/34/1 327/35/1 328/36/1
f 329/37/1 330/38/1 331/39/1 332/40/1
f 333/33/1 334/34/1 335/35/1 336/36/1
f 337/33/1 338/34/1 339/35/1 340/36/1
f 341/33/1 342/34/1 343/35/1 344/36/1
f 345/33/1 346/34/1 347/35/1 348/36/1
f 349/33/1 350/34/1 351/35/1 352/36/1
f 353/33/1 354/34/1 355/35/1 356/36/1
f 357/33/1 358/34/1 359/35/1 360/36/1
f 361/33/1 362/34/1 363/35/1 364/36/1
f 365/33/1 366/34/1 367/35/1 368/36/1
f 369/33/1 370/34/1 371/35/1 372/36/1
f 373/33/1 374/34/1 375/35/1 376/36/1
f 377/33/1 378/34/1 379/35/1 380/36/1
f 381/33/1 382/34/1 383/35/1 384/36/1
f 385/33/1 386/34/1 387/35/1 388/36/1
f 389/33/1 390/34/1 391/35/1 392/36/1
f 393/33/1 394/34/1 395/35/1 396/36/1
f 397/33/1 398/34/1 399/35/1 400/36/1
f 401/33/1 402/34/1 403/35/1 404/36/1
f 405/33/1 406/34/1 407/35/1 408/36/1
f 409/33/1 410/34/1 411/35/1 412/36/1
f 413/41/1 414/42/1 415/43/1 416/44/1
f 417/33/1 418/34/1 419/35/1 420/36/1
f 421/33/1 422/34/1 423/35/1 424/36/1
f 425/33/1 426/34/1 427/35/1 428/36/1
f 429/33/1 430/34/1 431/35/1 432/36/1
f 433/33/1 434/34/1 435/35/1 436/36/1
f 437/33/1 438/34/1 439/35/1 440/36/1
f 441/33/1 442/34/1 443/35/1 444/36/1
f 445/33/1 446/34/1 447/35/1 448/36/1
f 449/33/1 450/34/1 451/35/1 452/36/1
f 453/33/1 454/34/1 455/35/1 456/36/1
f 457/33/1 458/34/1 459/35/1 460/36/1
f 461/33/1 462/34/1 463/35/1 464/36/1
f 465/33/1 466/34/1 467/35/1 468/36/1
f 469/33/1 470/34/1 471/35/1 472/36/1
f 473/33/1 474/34/1 475/35/1 476/36/1
f 477/33/1 478/34/1 479/35/1 480/36/1
f 481/33/1 482/34/1 483/35/1 484/36/1
f 485/33/1 486/34/1 487/35/1 488/36/1
f 489/33/1 490/34/1 491/35/1 492/36/1
f 493/33/1 494/34/1 495/35/1 496/36/1
f 497/33/1 498/34/1 499/35/1 500/36/1
f 501/33/1 502/34/1 503/35/1 504/36/1
f 505/41/1 506/42/1 507/43/1 508/44/1
f 509/1/1 510/2/1 511/3/1 512/4/1
f 513/1/1 514/2/1 515/3/1 516/4/1
f 517/5/1 518/6/1 519/7/1 520/8/1
f 521/25/1 522/26/1 523/27/1 524/28/1
f 525/29/1 526/30/1 527/31/1 528/32/1
f 529/5/1 530/6/1 531/7/1 532/8/1
f 533/9/1 534/10/1 535/11/1 536/12/1
f 537/9/1 538/10/1 539/11/1 540/12/1
f 541/13/1 542/14/1 543/15/1 544/16/1
f 545/17/1 546/18/1 547/19/1 548/20/1
f 549/17/1 550/18/1 551/19/1 552/20/1
f 553/17/1 554/18/1 555/19/1 556/20/1
f 557/17/1 558/18/1 559/19/1 560/20/1
f 561/17/1 562/18/1 563/19/1 564/20/1
f 565/17/1 566/18/1 567/19/1 568/20/1
f 569/13/1 570/14/1 571/15/1 572/16/1
f 573/1/1 574/2/1 575/3/1 576/4/1
f 577/1/1 578/2/1 579/3/1 580/4/1
f 581/5/1 582/6/1 583/7/1 584/8/1
f 585/17/1 586/18/1 587/19/1 588/20/1
f 589/45/1 590/46/1 591/47/1 592/48/1
f 593/49/1 594/50/1 595/51/1 596/52/1
f 597/53/1 598/54/1 599/55/1 600/56/1
f 601/17/1 602/18/1 603/19/1 604/20/1
f 605/5/1 606/6/1 607/7/1 608/8/1
f 609/9/1 610/10/1 611/11/1 612/12/1
f 613/9/1 614/10/1 615/11/1 616/12/1
f 617/13/1 618/14/1 619/15/1 620/16/1
f 621/17/1 622/18/1 623/19/1 624/20/1
f 625/45/1 626/46/1 627/47/1 628/48/1
f 629/49/1 630/50/1 631/51/1 632/52/1
f 633/53/1 634/54/1 635/55/1 636/56/1
f 637/17/1 638/18/1 639/19/1 640/20/1
f 641/13/1 642/14/1 643/15/1 644/16/1
f 645/1/1 646/2/1 647/3/1 648/4/1
f 649/1/1 650/2/1 651/3/1 652/4/1
f 653/5/1 654/6/1 655/7/1 656/8/1
f 657/17/1 658/18/1 659/19/1 660/20/1
f 661/45/1 662/46/1 663/47/1 664/48/1
f 665/49/1 666/50/1 667/51/1 668/52/1
f 669/53/1 670/54/1 671/55/1 672/56/1
f 673/17/1 674/18/1 675/19/1 676/20/1
f 677/17/1 678/18/1 679/19/1 680/20/1
f 681/5/1 682/6/1 683/7/1 684/8/1
f 685/9/1 686/10/1 687/11/1 688/12/1
f 689/9/1 690/10/1 691/11/1 692/12/1
f 693/13/1 694/14/1 695/15/1 696/16/1
f 697/17/1 698/18/1 699/19/1 700/20/1
f 701/17/1 702/18/1 703/19/1 704/20/1
f 705/17/1 706/18/1 707/19/1 708/20/1
f 709/17/1 710/18/1 711/19/1 712/20/1
f 713/17/1 714/18/1 715/19/1 716/20/1
f 717/13/1 718/14/1 719/15/1 720/16/1
f 721/1/1 722/2/1 723/3/1 724/4/1
f 725/1/1 726/2/1 727/3/1 728/4/1
f 729/5/1 730/6/1 731/7/1 732/8/1
f 733/5/1 734/6/1 735/7/1 736/8/1
f 737/5/1 738/6/1 739/7/1 740/8/1
f 741/5/1 742/6/1 743/7/1 744/8/1
f 745/5/1 746/6/1 747/7/1 748/8/1
f 749/5/1 750/6/1 751/7/1 752/8/1
f 753/5/1 754/6/1 755/7/1 756/8/1
f 757/5/1 758/6/1 759/7/1 760/8/1
f 761/5/1 762/6/1 763/7/1 764/8/1
f 765/5/1 766/6/1 767/7/1 768/8/1
f 769/5/1 770/6/1 771/7/1 772/8/1
f 773/5/1 774/6/1 775/7/1 776/8/1
f 777/5/1 778/6/1 779/7/1 780/8/1
f 781/5/1 782/6/1 783/7/1 784/8/1
f 785/5/1 786/6/1 787/7/1 788/8/1
f 789/5/1 790/6/1 791/7/1 792/8/1
f 793/5/1 794/6/1 795/7/1 796/8/1
f 797/5/1 798/6/1 799/7/1 800/8/1
f 801/5/1 802/6/1 803/7/1 804/8/1
f 805/5/1 806/6/1 807/7/1 808/8/1
f 809/5/1 810/6/1 811/7/1 812/8/1
f 813/5/1 814/6/1 815/7/1 816/8/1
f 817/5/1 818/6/1 819/7/1 820/8/1
f 821/5/1 822/6/1 823/7/1 824/8/1
f 825/9/1 826/10/1 827/11/1 828/12/1
f 829/9/1 830/10/1 831/11/1 832/12/1
f 833/13/1 834/14/1 835/15/1 836/16/1
f 837/13/1 838/14/1 839/15/1 840/16/1
f 841/13/1 842/14/1 843/15/1 844/16/1
f 845/13/1 846/14/1 847/15/1 848/16/1
f 849/13/1 850/14/1 851/15/1 852/16/1
f 853/13/1 854/14/1 855/15/1 856/16/1
f 857/13/1 858/14/1 859/15/1 860/16/1
f 861/13/1 862/14/1 863/15/1 864/16/1
f 865/13/1 866/14/1 867/15/1 868/16/1
f 869/13/1 870/14/1 871/15/1 872/16/1
f 873/13/1 874/14/1 875/15/1 876/16/1
f 877/13/1 878/14/1 879/15/1 880/16/1
f 881/13/1 882/14/1 883/15/1 884/16/1
f 885/13/1 886/14/1 887/15/1 888/16/1
f 889/13/1 890/14/1 891/15/1 892/16/1
f 893/13/1 894/14/1 895/15/1 896/16/1
f 897/13/1 898/14/1 899/15/1 900/16/1
f 901/13/1 902/14/1 903/15/1 904/16/1
f 905/13/1 906/14/1 907/15/1 908/16/1
f 909/13/1 910/14/1 911/15/1 912/16/1
f 913/13/1 914/14/1 915/15/1 916/16/1
f 917/13/1 918/14/1 919/15/1 920/16/1
f 921/13/1 922/14/1 923/15/1 924/16/1
f 925/13/1 926/14/1 927/15/1 928/16/1

