# Tiled2Unity generated file. Do not modify by hand.
# Wavefront file for 'Ken'sMap_mesh_0001.obj'

# Vertices (Count = 156)
v -784 -784 0
v -800 -784 0
v -800 -768 0
v -784 -768 0
v -800 -784 0
v -816 -784 0
v -816 -768 0
v -800 -768 0
v -832 -784 0
v -848 -784 0
v -848 -768 0
v -832 -768 0
v -848 -784 0
v -864 -784 0
v -864 -768 0
v -848 -768 0
v -864 -784 0
v -880 -784 0
v -880 -768 0
v -864 -768 0
v -784 -800 0
v -800 -800 0
v -800 -784 0
v -784 -784 0
v -800 -800 0
v -816 -800 0
v -816 -784 0
v -800 -784 0
v -832 -800 0
v -848 -800 0
v -848 -784 0
v -832 -784 0
v -848 -800 0
v -864 -800 0
v -864 -784 0
v -848 -784 0
v -864 -800 0
v -880 -800 0
v -880 -784 0
v -864 -784 0
v -768 -816 0
v -784 -816 0
v -784 -800 0
v -768 -800 0
v -784 -816 0
v -800 -816 0
v -800 -800 0
v -784 -800 0
v -800 -816 0
v -816 -816 0
v -816 -800 0
v -800 -800 0
v -816 -816 0
v -832 -816 0
v -832 -800 0
v -816 -800 0
v -832 -816 0
v -848 -816 0
v -848 -800 0
v -832 -800 0
v -848 -816 0
v -864 -816 0
v -864 -800 0
v -848 -800 0
v -768 -832 0
v -784 -832 0
v -784 -816 0
v -768 -816 0
v -784 -832 0
v -800 -832 0
v -800 -816 0
v -784 -816 0
v -800 -832 0
v -816 -832 0
v -816 -816 0
v -800 -816 0
v -816 -832 0
v -832 -832 0
v -832 -816 0
v -816 -816 0
v -832 -832 0
v -848 -832 0
v -848 -816 0
v -832 -816 0
v -848 -832 0
v -864 -832 0
v -864 -816 0
v -848 -816 0
v -864 -832 0
v -880 -832 0
v -880 -816 0
v -864 -816 0
v -768 -848 0
v -784 -848 0
v -784 -832 0
v -768 -832 0
v -784 -848 0
v -800 -848 0
v -800 -832 0
v -784 -832 0
v -800 -848 0
v -816 -848 0
v -816 -832 0
v -800 -832 0
v -816 -848 0
v -832 -848 0
v -832 -832 0
v -816 -832 0
v -832 -848 0
v -848 -848 0
v -848 -832 0
v -832 -832 0
v -848 -848 0
v -864 -848 0
v -864 -832 0
v -848 -832 0
v -864 -848 0
v -880 -848 0
v -880 -832 0
v -864 -832 0
v -768 -864 0
v -784 -864 0
v -784 -848 0
v -768 -848 0
v -784 -864 0
v -800 -864 0
v -800 -848 0
v -784 -848 0
v -800 -864 0
v -816 -864 0
v -816 -848 0
v -800 -848 0
v -816 -864 0
v -832 -864 0
v -832 -848 0
v -816 -848 0
v -832 -864 0
v -848 -864 0
v -848 -848 0
v -832 -848 0
v -784 -880 0
v -800 -880 0
v -800 -864 0
v -784 -864 0
v -800 -880 0
v -816 -880 0
v -816 -864 0
v -800 -864 0
v -816 -880 0
v -832 -880 0
v -832 -864 0
v -816 -864 0
v -832 -880 0
v -848 -880 0
v -848 -864 0
v -832 -864 0

# Texture cooridinates (Count = 16)
vt 0.03512397 0.9695817
vt 0.05165289 0.9695817
vt 0.05165289 1
vt 0.03512397 1
vt 0.05268595 0.9695817
vt 0.06921487 0.9695817
vt 0.06921487 1
vt 0.05268595 1
vt 0.03512397 0.9372624
vt 0.05165289 0.9372624
vt 0.05165289 0.9676806
vt 0.03512397 0.9676806
vt 0.05268595 0.9372624
vt 0.06921487 0.9372624
vt 0.06921487 0.9676806
vt 0.05268595 0.9676806

# Normal
vn 0 0 -1

# Mesh description
g Ken'sMap_mesh_0001

# Faces
f 1/1/1 2/2/1 3/3/1 4/4/1
f 5/5/1 6/6/1 7/7/1 8/8/1
f 9/1/1 10/2/1 11/3/1 12/4/1
f 13/5/1 14/6/1 15/7/1 16/8/1
f 17/5/1 18/6/1 19/7/1 20/8/1
f 21/9/1 22/10/1 23/11/1 24/12/1
f 25/13/1 26/14/1 27/15/1 28/16/1
f 29/1/1 30/2/1 31/3/1 32/4/1
f 33/5/1 34/6/1 35/7/1 36/8/1
f 37/13/1 38/14/1 39/15/1 40/16/1
f 41/1/1 42/2/1 43/3/1 44/4/1
f 45/5/1 46/6/1 47/7/1 48/8/1
f 49/1/1 50/2/1 51/3/1 52/4/1
f 53/5/1 54/6/1 55/7/1 56/8/1
f 57/9/1 58/10/1 59/11/1 60/12/1
f 61/13/1 62/14/1 63/15/1 64/16/1
f 65/9/1 66/10/1 67/11/1 68/12/1
f 69/13/1 70/14/1 71/15/1 72/16/1
f 73/1/1 74/2/1 75/3/1 76/4/1
f 77/5/1 78/6/1 79/7/1 80/8/1
f 81/1/1 82/2/1 83/3/1 84/4/1
f 85/1/1 86/2/1 87/3/1 88/4/1
f 89/5/1 90/6/1 91/7/1 92/8/1
f 93/1/1 94/2/1 95/3/1 96/4/1
f 97/5/1 98/6/1 99/7/1 100/8/1
f 101/9/1 102/10/1 103/11/1 104/12/1
f 105/13/1 106/14/1 107/15/1 108/16/1
f 109/9/1 110/10/1 111/11/1 112/12/1
f 113/9/1 114/10/1 115/11/1 116/12/1
f 117/13/1 118/14/1 119/15/1 120/16/1
f 121/9/1 122/10/1 123/11/1 124/12/1
f 125/1/1 126/2/1 127/3/1 128/4/1
f 129/9/1 130/10/1 131/11/1 132/12/1
f 133/13/1 134/14/1 135/15/1 136/16/1
f 137/5/1 138/6/1 139/7/1 140/8/1
f 141/9/1 142/10/1 143/11/1 144/12/1
f 145/13/1 146/14/1 147/15/1 148/16/1
f 149/9/1 150/10/1 151/11/1 152/12/1
f 153/13/1 154/14/1 155/15/1 156/16/1

