# Tiled2Unity generated file. Do not modify by hand.
# Wavefront file for 'StartHouse_mesh_0004.obj'

# Vertices (Count = 592)
v -15 -9 0
v -16 -9 0
v -16 -8 0
v -15 -8 0
v -14 -9 0
v -15 -9 0
v -15 -8 0
v -14 -8 0
v -16 -10 0
v -17 -10 0
v -17 -9 0
v -16 -9 0
v -15 -10 0
v -16 -10 0
v -16 -9 0
v -15 -9 0
v -14 -10 0
v -15 -10 0
v -15 -9 0
v -14 -9 0
v -13 -10 0
v -14 -10 0
v -14 -9 0
v -13 -9 0
v -17 -11 0
v -18 -11 0
v -18 -10 0
v -17 -10 0
v -16 -11 0
v -17 -11 0
v -17 -10 0
v -16 -10 0
v -15 -11 0
v -16 -11 0
v -16 -10 0
v -15 -10 0
v -14 -11 0
v -15 -11 0
v -15 -10 0
v -14 -10 0
v -13 -11 0
v -14 -11 0
v -14 -10 0
v -13 -10 0
v -12 -11 0
v -13 -11 0
v -13 -10 0
v -12 -10 0
v -18 -12 0
v -19 -12 0
v -19 -11 0
v -18 -11 0
v -17 -12 0
v -18 -12 0
v -18 -11 0
v -17 -11 0
v -16 -12 0
v -17 -12 0
v -17 -11 0
v -16 -11 0
v -15 -12 0
v -16 -12 0
v -16 -11 0
v -15 -11 0
v -14 -12 0
v -15 -12 0
v -15 -11 0
v -14 -11 0
v -13 -12 0
v -14 -12 0
v -14 -11 0
v -13 -11 0
v -12 -12 0
v -13 -12 0
v -13 -11 0
v -12 -11 0
v -11 -12 0
v -12 -12 0
v -12 -11 0
v -11 -11 0
v -19 -13 0
v -20 -13 0
v -20 -12 0
v -19 -12 0
v -18 -13 0
v -19 -13 0
v -19 -12 0
v -18 -12 0
v -17 -13 0
v -18 -13 0
v -18 -12 0
v -17 -12 0
v -16 -13 0
v -17 -13 0
v -17 -12 0
v -16 -12 0
v -12 -13 0
v -13 -13 0
v -13 -12 0
v -12 -12 0
v -11 -13 0
v -12 -13 0
v -12 -12 0
v -11 -12 0
v -10 -13 0
v -11 -13 0
v -11 -12 0
v -10 -12 0
v -20 -14 0
v -21 -14 0
v -21 -13 0
v -20 -13 0
v -19 -14 0
v -20 -14 0
v -20 -13 0
v -19 -13 0
v -18 -14 0
v -19 -14 0
v -19 -13 0
v -18 -13 0
v -16 -14 0
v -17 -14 0
v -17 -13 0
v -16 -13 0
v -15 -14 0
v -16 -14 0
v -16 -13 0
v -15 -13 0
v -14 -14 0
v -15 -14 0
v -15 -13 0
v -14 -13 0
v -13 -14 0
v -14 -14 0
v -14 -13 0
v -13 -13 0
v -11 -14 0
v -12 -14 0
v -12 -13 0
v -11 -13 0
v -10 -14 0
v -11 -14 0
v -11 -13 0
v -10 -13 0
v -9 -14 0
v -10 -14 0
v -10 -13 0
v -9 -13 0
v -21 -15 0
v -22 -15 0
v -22 -14 0
v -21 -14 0
v -20 -15 0
v -21 -15 0
v -21 -14 0
v -20 -14 0
v -19 -15 0
v -20 -15 0
v -20 -14 0
v -19 -14 0
v -17 -15 0
v -18 -15 0
v -18 -14 0
v -17 -14 0
v -16 -15 0
v -17 -15 0
v -17 -14 0
v -16 -14 0
v -15 -15 0
v -16 -15 0
v -16 -14 0
v -15 -14 0
v -14 -15 0
v -15 -15 0
v -15 -14 0
v -14 -14 0
v -13 -15 0
v -14 -15 0
v -14 -14 0
v -13 -14 0
v -12 -15 0
v -13 -15 0
v -13 -14 0
v -12 -14 0
v -10 -15 0
v -11 -15 0
v -11 -14 0
v -10 -14 0
v -9 -15 0
v -10 -15 0
v -10 -14 0
v -9 -14 0
v -8 -15 0
v -9 -15 0
v -9 -14 0
v -8 -14 0
v -22 -16 0
v -23 -16 0
v -23 -15 0
v -22 -15 0
v -21 -16 0
v -22 -16 0
v -22 -15 0
v -21 -15 0
v -20 -16 0
v -21 -16 0
v -21 -15 0
v -20 -15 0
v -19 -16 0
v -20 -16 0
v -20 -15 0
v -19 -15 0
v -18 -16 0
v -19 -16 0
v -19 -15 0
v -18 -15 0
v -17 -16 0
v -18 -16 0
v -18 -15 0
v -17 -15 0
v -16 -16 0
v -17 -16 0
v -17 -15 0
v -16 -15 0
v -15 -16 0
v -16 -16 0
v -16 -15 0
v -15 -15 0
v -14 -16 0
v -15 -16 0
v -15 -15 0
v -14 -15 0
v -13 -16 0
v -14 -16 0
v -14 -15 0
v -13 -15 0
v -12 -16 0
v -13 -16 0
v -13 -15 0
v -12 -15 0
v -10 -16 0
v -11 -16 0
v -11 -15 0
v -10 -15 0
v -9 -16 0
v -10 -16 0
v -10 -15 0
v -9 -15 0
v -8 -16 0
v -9 -16 0
v -9 -15 0
v -8 -15 0
v -7 -16 0
v -8 -16 0
v -8 -15 0
v -7 -15 0
v -22 -17 0
v -23 -17 0
v -23 -16 0
v -22 -16 0
v -21 -17 0
v -22 -17 0
v -22 -16 0
v -21 -16 0
v -20 -17 0
v -21 -17 0
v -21 -16 0
v -20 -16 0
v -19 -17 0
v -20 -17 0
v -20 -16 0
v -19 -16 0
v -18 -17 0
v -19 -17 0
v -19 -16 0
v -18 -16 0
v -17 -17 0
v -18 -17 0
v -18 -16 0
v -17 -16 0
v -16 -17 0
v -17 -17 0
v -17 -16 0
v -16 -16 0
v -15 -17 0
v -16 -17 0
v -16 -16 0
v -15 -16 0
v -14 -17 0
v -15 -17 0
v -15 -16 0
v -14 -16 0
v -13 -17 0
v -14 -17 0
v -14 -16 0
v -13 -16 0
v -12 -17 0
v -13 -17 0
v -13 -16 0
v -12 -16 0
v -11 -17 0
v -12 -17 0
v -12 -16 0
v -11 -16 0
v -9 -17 0
v -10 -17 0
v -10 -16 0
v -9 -16 0
v -8 -17 0
v -9 -17 0
v -9 -16 0
v -8 -16 0
v -7 -17 0
v -8 -17 0
v -8 -16 0
v -7 -16 0
v -22 -18 0
v -23 -18 0
v -23 -17 0
v -22 -17 0
v -21 -18 0
v -22 -18 0
v -22 -17 0
v -21 -17 0
v -20 -18 0
v -21 -18 0
v -21 -17 0
v -20 -17 0
v -18 -18 0
v -19 -18 0
v -19 -17 0
v -18 -17 0
v -17 -18 0
v -18 -18 0
v -18 -17 0
v -17 -17 0
v -16 -18 0
v -17 -18 0
v -17 -17 0
v -16 -17 0
v -15 -18 0
v -16 -18 0
v -16 -17 0
v -15 -17 0
v -14 -18 0
v -15 -18 0
v -15 -17 0
v -14 -17 0
v -13 -18 0
v -14 -18 0
v -14 -17 0
v -13 -17 0
v -12 -18 0
v -13 -18 0
v -13 -17 0
v -12 -17 0
v -11 -18 0
v -12 -18 0
v -12 -17 0
v -11 -17 0
v -9 -18 0
v -10 -18 0
v -10 -17 0
v -9 -17 0
v -8 -18 0
v -9 -18 0
v -9 -17 0
v -8 -17 0
v -7 -18 0
v -8 -18 0
v -8 -17 0
v -7 -17 0
v -22 -19 0
v -23 -19 0
v -23 -18 0
v -22 -18 0
v -7 -19 0
v -8 -19 0
v -8 -18 0
v -7 -18 0
v -22 -20 0
v -23 -20 0
v -23 -19 0
v -22 -19 0
v -16 -20 0
v -17 -20 0
v -17 -19 0
v -16 -19 0
v -15 -20 0
v -16 -20 0
v -16 -19 0
v -15 -19 0
v -14 -20 0
v -15 -20 0
v -15 -19 0
v -14 -19 0
v -13 -20 0
v -14 -20 0
v -14 -19 0
v -13 -19 0
v -7 -20 0
v -8 -20 0
v -8 -19 0
v -7 -19 0
v -22 -21 0
v -23 -21 0
v -23 -20 0
v -22 -20 0
v -21 -21 0
v -22 -21 0
v -22 -20 0
v -21 -20 0
v -16 -21 0
v -17 -21 0
v -17 -20 0
v -16 -20 0
v -15 -21 0
v -16 -21 0
v -16 -20 0
v -15 -20 0
v -14 -21 0
v -15 -21 0
v -15 -20 0
v -14 -20 0
v -13 -21 0
v -14 -21 0
v -14 -20 0
v -13 -20 0
v -7 -21 0
v -8 -21 0
v -8 -20 0
v -7 -20 0
v -22 -22 0
v -23 -22 0
v -23 -21 0
v -22 -21 0
v -21 -22 0
v -22 -22 0
v -22 -21 0
v -21 -21 0
v -16 -22 0
v -17 -22 0
v -17 -21 0
v -16 -21 0
v -15 -22 0
v -16 -22 0
v -16 -21 0
v -15 -21 0
v -14 -22 0
v -15 -22 0
v -15 -21 0
v -14 -21 0
v -13 -22 0
v -14 -22 0
v -14 -21 0
v -13 -21 0
v -7 -22 0
v -8 -22 0
v -8 -21 0
v -7 -21 0
v -22 -23 0
v -23 -23 0
v -23 -22 0
v -22 -22 0
v -21 -23 0
v -22 -23 0
v -22 -22 0
v -21 -22 0
v -10 -23 0
v -11 -23 0
v -11 -22 0
v -10 -22 0
v -9 -23 0
v -10 -23 0
v -10 -22 0
v -9 -22 0
v -7 -23 0
v -8 -23 0
v -8 -22 0
v -7 -22 0
v -22 -24 0
v -23 -24 0
v -23 -23 0
v -22 -23 0
v -21 -24 0
v -22 -24 0
v -22 -23 0
v -21 -23 0
v -11 -24 0
v -12 -24 0
v -12 -23 0
v -11 -23 0
v -10 -24 0
v -11 -24 0
v -11 -23 0
v -10 -23 0
v -9 -24 0
v -10 -24 0
v -10 -23 0
v -9 -23 0
v -7 -24 0
v -8 -24 0
v -8 -23 0
v -7 -23 0
v -22 -25 0
v -23 -25 0
v -23 -24 0
v -22 -24 0
v -21 -25 0
v -22 -25 0
v -22 -24 0
v -21 -24 0
v -19 -25 0
v -20 -25 0
v -20 -24 0
v -19 -24 0
v -18 -25 0
v -19 -25 0
v -19 -24 0
v -18 -24 0
v -17 -25 0
v -18 -25 0
v -18 -24 0
v -17 -24 0
v -16 -25 0
v -17 -25 0
v -17 -24 0
v -16 -24 0
v -8 -25 0
v -9 -25 0
v -9 -24 0
v -8 -24 0
v -7 -25 0
v -8 -25 0
v -8 -24 0
v -7 -24 0
v -22 -26 0
v -23 -26 0
v -23 -25 0
v -22 -25 0
v -21 -26 0
v -22 -26 0
v -22 -25 0
v -21 -25 0
v -20 -26 0
v -21 -26 0
v -21 -25 0
v -20 -25 0
v -19 -26 0
v -20 -26 0
v -20 -25 0
v -19 -25 0
v -18 -26 0
v -19 -26 0
v -19 -25 0
v -18 -25 0
v -17 -26 0
v -18 -26 0
v -18 -25 0
v -17 -25 0
v -16 -26 0
v -17 -26 0
v -17 -25 0
v -16 -25 0
v -13 -26 0
v -14 -26 0
v -14 -25 0
v -13 -25 0
v -12 -26 0
v -13 -26 0
v -13 -25 0
v -12 -25 0
v -11 -26 0
v -12 -26 0
v -12 -25 0
v -11 -25 0
v -10 -26 0
v -11 -26 0
v -11 -25 0
v -10 -25 0
v -9 -26 0
v -10 -26 0
v -10 -25 0
v -9 -25 0
v -8 -26 0
v -9 -26 0
v -9 -25 0
v -8 -25 0
v -7 -26 0
v -8 -26 0
v -8 -25 0
v -7 -25 0

# Texture cooridinates (Count = 156)
vt 0.6146694 0.2908745
vt 0.6311983 0.2908745
vt 0.6311983 0.3212928
vt 0.6146694 0.3212928
vt 0.5971074 0.2908745
vt 0.6136364 0.2908745
vt 0.6136364 0.3212928
vt 0.5971074 0.3212928
vt 0.8780992 0.9695817
vt 0.8946281 0.9695817
vt 0.8946281 1
vt 0.8780992 1
vt 0.8780992 0.8726236
vt 0.8946281 0.8726236
vt 0.8946281 0.9030418
vt 0.8780992 0.9030418
vt 0.7727273 0.904943
vt 0.7892562 0.904943
vt 0.7892562 0.9353612
vt 0.7727273 0.9353612
vt 0.8780992 0.9372624
vt 0.8946281 0.9372624
vt 0.8946281 0.9676806
vt 0.8780992 0.9676806
vt 0.8780992 0.8403042
vt 0.8946281 0.8403042
vt 0.8946281 0.8707224
vt 0.8780992 0.8707224
vt 0.8254132 0.5817491
vt 0.8419421 0.5817491
vt 0.8419421 0.6121673
vt 0.8254132 0.6121673
vt 0.7727273 0.8726236
vt 0.7892562 0.8726236
vt 0.7892562 0.9030418
vt 0.7727273 0.9030418
vt 0.8780992 0.904943
vt 0.8946281 0.904943
vt 0.8946281 0.9353612
vt 0.8780992 0.9353612
vt 0.8780992 0.8079848
vt 0.8946281 0.8079848
vt 0.8946281 0.838403
vt 0.8780992 0.838403
vt 0.2985537 0.743346
vt 0.3150826 0.743346
vt 0.3150826 0.7737643
vt 0.2985537 0.7737643
vt 0.1053719 0.8079848
vt 0.1219008 0.8079848
vt 0.1219008 0.838403
vt 0.1053719 0.838403
vt 0.8078513 0.5817491
vt 0.8243802 0.5817491
vt 0.8243802 0.6121673
vt 0.8078513 0.6121673
vt 0.8780992 0.5817491
vt 0.8946281 0.5817491
vt 0.8946281 0.6121673
vt 0.8780992 0.6121673
vt 0.2107438 0.7756654
vt 0.2272727 0.7756654
vt 0.2272727 0.8060837
vt 0.2107438 0.8060837
vt 0.2107438 0.8079848
vt 0.2272727 0.8079848
vt 0.2272727 0.838403
vt 0.2107438 0.838403
vt 0.8780992 0.5494297
vt 0.8946281 0.5494297
vt 0.8946281 0.5798479
vt 0.8780992 0.5798479
vt 0.4917355 0.8726236
vt 0.5082645 0.8726236
vt 0.5082645 0.9030418
vt 0.4917355 0.9030418
vt 0.5092975 0.8726236
vt 0.5258265 0.8726236
vt 0.5258265 0.9030418
vt 0.5092975 0.9030418
vt 0.2634298 0.9695817
vt 0.2799587 0.9695817
vt 0.2799587 1
vt 0.2634298 1
vt 0.8780992 0.5171102
vt 0.8946281 0.5171102
vt 0.8946281 0.5475285
vt 0.8780992 0.5475285
vt 0.4917355 0.8403042
vt 0.5082645 0.8403042
vt 0.5082645 0.8707224
vt 0.4917355 0.8707224
vt 0.5092975 0.8403042
vt 0.5258265 0.8403042
vt 0.5258265 0.8707224
vt 0.5092975 0.8707224
vt 0.6146694 0.6463878
vt 0.6311983 0.6463878
vt 0.6311983 0.6768061
vt 0.6146694 0.6768061
vt 0.2107438 0.8403042
vt 0.2272727 0.8403042
vt 0.2272727 0.8707224
vt 0.2107438 0.8707224
vt 0.1931818 0.8403042
vt 0.2097107 0.8403042
vt 0.2097107 0.8707224
vt 0.1931818 0.8707224
vt 0.7727273 0.5494297
vt 0.7892562 0.5494297
vt 0.7892562 0.5798479
vt 0.7727273 0.5798479
vt 0.9483471 0.7110266
vt 0.9648761 0.7110266
vt 0.9648761 0.7414448
vt 0.9483471 0.7414448
vt 0.1931818 0.8079848
vt 0.2097107 0.8079848
vt 0.2097107 0.838403
vt 0.1931818 0.838403
vt 0.1931818 0.7756654
vt 0.2097107 0.7756654
vt 0.2097107 0.8060837
vt 0.1931818 0.8060837
vt 0.4039256 0.7756654
vt 0.4204545 0.7756654
vt 0.4204545 0.8060837
vt 0.4039256 0.8060837
vt 0.3853306 0.8726236
vt 0.3688017 0.8726236
vt 0.3688017 0.9030418
vt 0.3853306 0.9030418
vt 0.4039256 0.8403042
vt 0.4204545 0.8403042
vt 0.4204545 0.8707224
vt 0.4039256 0.8707224
vt 0.3688017 0.8403042
vt 0.3853306 0.8403042
vt 0.3853306 0.8707224
vt 0.3688017 0.8707224
vt 0.2107438 0.904943
vt 0.2272727 0.904943
vt 0.2272727 0.9353612
vt 0.2107438 0.9353612
vt 0.7200413 0.6463878
vt 0.7365702 0.6463878
vt 0.7365702 0.6768061
vt 0.7200413 0.6768061
vt 0.1404959 0.8726236
vt 0.1570248 0.8726236
vt 0.1570248 0.9030418
vt 0.1404959 0.9030418
vt 0.7551653 0.5494297
vt 0.7716942 0.5494297
vt 0.7716942 0.5798479
vt 0.7551653 0.5798479

# Normal
vn 0 0 -1

# Mesh description
g StartHouse_mesh_0004

# Faces
f 1/1/1 2/2/1 3/3/1 4/4/1
f 5/5/1 6/6/1 7/7/1 8/8/1
f 9/1/1 10/2/1 11/3/1 12/4/1
f 13/9/1 14/10/1 15/11/1 16/12/1
f 17/13/1 18/14/1 19/15/1 20/16/1
f 21/5/1 22/6/1 23/7/1 24/8/1
f 25/1/1 26/2/1 27/3/1 28/4/1
f 29/17/1 30/18/1 31/19/1 32/20/1
f 33/21/1 34/22/1 35/23/1 36/24/1
f 37/25/1 38/26/1 39/27/1 40/28/1
f 41/17/1 42/18/1 43/19/1 44/20/1
f 45/5/1 46/6/1 47/7/1 48/8/1
f 49/1/1 50/2/1 51/3/1 52/4/1
f 53/29/1 54/30/1 55/31/1 56/32/1
f 57/33/1 58/34/1 59/35/1 60/36/1
f 61/37/1 62/38/1 63/39/1 64/40/1
f 65/41/1 66/42/1 67/43/1 68/44/1
f 69/33/1 70/34/1 71/35/1 72/36/1
f 73/29/1 74/30/1 75/31/1 76/32/1
f 77/5/1 78/6/1 79/7/1 80/8/1
f 81/1/1 82/2/1 83/3/1 84/4/1
f 85/29/1 86/30/1 87/31/1 88/32/1
f 89/29/1 90/30/1 91/31/1 92/32/1
f 93/45/1 94/46/1 95/47/1 96/48/1
f 97/45/1 98/46/1 99/47/1 100/48/1
f 101/29/1 102/30/1 103/31/1 104/32/1
f 105/5/1 106/6/1 107/7/1 108/8/1
f 109/1/1 110/2/1 111/3/1 112/4/1
f 113/29/1 114/30/1 115/31/1 116/32/1
f 117/29/1 118/30/1 119/31/1 120/32/1
f 121/49/1 122/50/1 123/51/1 124/52/1
f 125/49/1 126/50/1 127/51/1 128/52/1
f 129/49/1 130/50/1 131/51/1 132/52/1
f 133/49/1 134/50/1 135/51/1 136/52/1
f 137/53/1 138/54/1 139/55/1 140/56/1
f 141/29/1 142/30/1 143/31/1 144/32/1
f 145/5/1 146/6/1 147/7/1 148/8/1
f 149/1/1 150/2/1 151/3/1 152/4/1
f 153/29/1 154/30/1 155/31/1 156/32/1
f 157/29/1 158/30/1 159/31/1 160/32/1
f 161/49/1 162/50/1 163/51/1 164/52/1
f 165/49/1 166/50/1 167/51/1 168/52/1
f 169/49/1 170/50/1 171/51/1 172/52/1
f 173/49/1 174/50/1 175/51/1 176/52/1
f 177/49/1 178/50/1 179/51/1 180/52/1
f 181/49/1 182/50/1 183/51/1 184/52/1
f 185/53/1 186/54/1 187/55/1 188/56/1
f 189/53/1 190/54/1 191/55/1 192/56/1
f 193/5/1 194/6/1 195/7/1 196/8/1
f 197/1/1 198/2/1 199/3/1 200/4/1
f 201/29/1 202/30/1 203/31/1 204/32/1
f 205/29/1 206/30/1 207/31/1 208/32/1
f 209/45/1 210/46/1 211/47/1 212/48/1
f 213/49/1 214/50/1 215/51/1 216/52/1
f 217/49/1 218/50/1 219/51/1 220/52/1
f 221/57/1 222/58/1 223/59/1 224/60/1
f 225/57/1 226/58/1 227/59/1 228/60/1
f 229/57/1 230/58/1 231/59/1 232/60/1
f 233/57/1 234/58/1 235/59/1 236/60/1
f 237/49/1 238/50/1 239/51/1 240/52/1
f 241/45/1 242/46/1 243/47/1 244/48/1
f 245/53/1 246/54/1 247/55/1 248/56/1
f 249/29/1 250/30/1 251/31/1 252/32/1
f 253/5/1 254/6/1 255/7/1 256/8/1
f 257/53/1 258/54/1 259/55/1 260/56/1
f 261/53/1 262/54/1 263/55/1 264/56/1
f 265/61/1 266/62/1 267/63/1 268/64/1
f 269/65/1 270/66/1 271/67/1 272/68/1
f 273/49/1 274/50/1 275/51/1 276/52/1
f 277/49/1 278/50/1 279/51/1 280/52/1
f 281/69/1 282/70/1 283/71/1 284/72/1
f 285/69/1 286/70/1 287/71/1 288/72/1
f 289/69/1 290/70/1 291/71/1 292/72/1
f 293/69/1 294/70/1 295/71/1 296/72/1
f 297/49/1 298/50/1 299/51/1 300/52/1
f 301/49/1 302/50/1 303/51/1 304/52/1
f 305/73/1 306/74/1 307/75/1 308/76/1
f 309/77/1 310/78/1 311/79/1 312/80/1
f 313/53/1 314/54/1 315/55/1 316/56/1
f 317/53/1 318/54/1 319/55/1 320/56/1
f 321/45/1 322/46/1 323/47/1 324/48/1
f 325/81/1 326/82/1 327/83/1 328/84/1
f 329/49/1 330/50/1 331/51/1 332/52/1
f 333/49/1 334/50/1 335/51/1 336/52/1
f 337/85/1 338/86/1 339/87/1 340/88/1
f 341/85/1 342/86/1 343/87/1 344/88/1
f 345/85/1 346/86/1 347/87/1 348/88/1
f 349/85/1 350/86/1 351/87/1 352/88/1
f 353/49/1 354/50/1 355/51/1 356/52/1
f 357/49/1 358/50/1 359/51/1 360/52/1
f 361/89/1 362/90/1 363/91/1 364/92/1
f 365/93/1 366/94/1 367/95/1 368/96/1
f 369/53/1 370/54/1 371/55/1 372/56/1
f 373/53/1 374/54/1 375/55/1 376/56/1
f 377/53/1 378/54/1 379/55/1 380/56/1
f 381/53/1 382/54/1 383/55/1 384/56/1
f 385/97/1 386/98/1 387/99/1 388/100/1
f 389/101/1 390/102/1 391/103/1 392/104/1
f 393/105/1 394/106/1 395/107/1 396/108/1
f 397/97/1 398/98/1 399/99/1 400/100/1
f 401/53/1 402/54/1 403/55/1 404/56/1
f 405/53/1 406/54/1 407/55/1 408/56/1
f 409/109/1 410/110/1 411/111/1 412/112/1
f 413/113/1 414/114/1 415/115/1 416/116/1
f 417/65/1 418/66/1 419/67/1 420/68/1
f 421/117/1 422/118/1 423/119/1 424/120/1
f 425/113/1 426/114/1 427/115/1 428/116/1
f 429/53/1 430/54/1 431/55/1 432/56/1
f 433/53/1 434/54/1 435/55/1 436/56/1
f 437/109/1 438/110/1 439/111/1 440/112/1
f 441/113/1 442/114/1 443/115/1 444/116/1
f 445/61/1 446/62/1 447/63/1 448/64/1
f 449/121/1 450/122/1 451/123/1 452/124/1
f 453/113/1 454/114/1 455/115/1 456/116/1
f 457/53/1 458/54/1 459/55/1 460/56/1
f 461/53/1 462/54/1 463/55/1 464/56/1
f 465/109/1 466/110/1 467/111/1 468/112/1
f 469/125/1 470/126/1 471/127/1 472/128/1
f 473/125/1 474/126/1 475/127/1 476/128/1
f 477/53/1 478/54/1 479/55/1 480/56/1
f 481/53/1 482/54/1 483/55/1 484/56/1
f 485/113/1 486/114/1 487/115/1 488/116/1
f 489/129/1 490/130/1 491/131/1 492/132/1
f 493/133/1 494/134/1 495/135/1 496/136/1
f 497/137/1 498/138/1 499/139/1 500/140/1
f 501/53/1 502/54/1 503/55/1 504/56/1
f 505/53/1 506/54/1 507/55/1 508/56/1
f 509/141/1 510/142/1 511/143/1 512/144/1
f 513/145/1 514/146/1 515/147/1 516/148/1
f 517/145/1 518/146/1 519/147/1 520/148/1
f 521/145/1 522/146/1 523/147/1 524/148/1
f 525/145/1 526/146/1 527/147/1 528/148/1
f 529/45/1 530/46/1 531/47/1 532/48/1
f 533/53/1 534/54/1 535/55/1 536/56/1
f 537/53/1 538/54/1 539/55/1 540/56/1
f 541/45/1 542/46/1 543/47/1 544/48/1
f 545/149/1 546/150/1 547/151/1 548/152/1
f 549/145/1 550/146/1 551/147/1 552/148/1
f 553/145/1 554/146/1 555/147/1 556/148/1
f 557/145/1 558/146/1 559/147/1 560/148/1
f 561/145/1 562/146/1 563/147/1 564/148/1
f 565/145/1 566/146/1 567/147/1 568/148/1
f 569/145/1 570/146/1 571/147/1 572/148/1
f 573/145/1 574/146/1 575/147/1 576/148/1
f 577/45/1 578/46/1 579/47/1 580/48/1
f 581/153/1 582/154/1 583/155/1 584/156/1
f 585/29/1 586/30/1 587/31/1 588/32/1
f 589/53/1 590/54/1 591/55/1 592/56/1

