# Tiled2Unity generated file. Do not modify by hand.
# Wavefront file for 'Castle3.1_mesh_0002.obj'

# Vertices (Count = 16)
v -816 -752 0
v -832 -752 0
v -832 -736 0
v -816 -736 0
v -832 -752 0
v -848 -752 0
v -848 -736 0
v -832 -736 0
v -816 -848 0
v -832 -848 0
v -832 -832 0
v -816 -832 0
v -832 -848 0
v -848 -848 0
v -848 -832 0
v -832 -832 0

# Texture cooridinates (Count = 4)
vt 0.5971074 0.8403042
vt 0.6136364 0.8403042
vt 0.6136364 0.8707224
vt 0.5971074 0.8707224

# Normal
vn 0 0 -1

# Mesh description
g Castle3.1_mesh_0002

# Faces
f 1/1/1 2/2/1 3/3/1 4/4/1
f 5/1/1 6/2/1 7/3/1 8/4/1
f 9/1/1 10/2/1 11/3/1 12/4/1
f 13/1/1 14/2/1 15/3/1 16/4/1

