# Tiled2Unity generated file. Do not modify by hand.
# Wavefront file for 'Castle3.1_mesh_0006.obj'

# Vertices (Count = 72)
v -816 -720 0
v -832 -720 0
v -832 -704 0
v -816 -704 0
v -832 -720 0
v -848 -720 0
v -848 -704 0
v -832 -704 0
v -736 -736 0
v -752 -736 0
v -752 -720 0
v -736 -720 0
v -896 -736 0
v -912 -736 0
v -912 -720 0
v -896 -720 0
v -832 -752 0
v -848 -752 0
v -848 -736 0
v -832 -736 0
v -768 -768 0
v -784 -768 0
v -784 -752 0
v -768 -752 0
v -864 -768 0
v -880 -768 0
v -880 -752 0
v -864 -752 0
v -800 -800 0
v -816 -800 0
v -816 -784 0
v -800 -784 0
v -912 -800 0
v -928 -800 0
v -928 -784 0
v -912 -784 0
v -736 -816 0
v -752 -816 0
v -752 -800 0
v -736 -800 0
v -848 -816 0
v -864 -816 0
v -864 -800 0
v -848 -800 0
v -768 -832 0
v -784 -832 0
v -784 -816 0
v -768 -816 0
v -896 -832 0
v -912 -832 0
v -912 -816 0
v -896 -816 0
v -832 -848 0
v -848 -848 0
v -848 -832 0
v -832 -832 0
v -736 -864 0
v -752 -864 0
v -752 -848 0
v -736 -848 0
v -816 -880 0
v -832 -880 0
v -832 -864 0
v -816 -864 0
v -832 -880 0
v -848 -880 0
v -848 -864 0
v -832 -864 0
v -880 -880 0
v -896 -880 0
v -896 -864 0
v -880 -864 0

# Texture cooridinates (Count = 8)
vt 0.5971074 0.8403042
vt 0.6136364 0.8403042
vt 0.6136364 0.8707224
vt 0.5971074 0.8707224
vt 0.5795454 0.3555133
vt 0.5960744 0.3555133
vt 0.5960744 0.3859316
vt 0.5795454 0.3859316

# Normal
vn 0 0 -1

# Mesh description
g Castle3.1_mesh_0006

# Faces
f 1/1/1 2/2/1 3/3/1 4/4/1
f 5/1/1 6/2/1 7/3/1 8/4/1
f 9/5/1 10/6/1 11/7/1 12/8/1
f 13/5/1 14/6/1 15/7/1 16/8/1
f 17/5/1 18/6/1 19/7/1 20/8/1
f 21/5/1 22/6/1 23/7/1 24/8/1
f 25/5/1 26/6/1 27/7/1 28/8/1
f 29/5/1 30/6/1 31/7/1 32/8/1
f 33/5/1 34/6/1 35/7/1 36/8/1
f 37/5/1 38/6/1 39/7/1 40/8/1
f 41/5/1 42/6/1 43/7/1 44/8/1
f 45/5/1 46/6/1 47/7/1 48/8/1
f 49/5/1 50/6/1 51/7/1 52/8/1
f 53/5/1 54/6/1 55/7/1 56/8/1
f 57/5/1 58/6/1 59/7/1 60/8/1
f 61/1/1 62/2/1 63/3/1 64/4/1
f 65/1/1 66/2/1 67/3/1 68/4/1
f 69/5/1 70/6/1 71/7/1 72/8/1

