# Tiled2Unity generated file. Do not modify by hand.
# Wavefront file for 'Forest2_mesh_0002.obj'

# Vertices (Count = 296)
v -592 -736 0
v -608 -736 0
v -608 -720 0
v -592 -720 0
v -608 -736 0
v -624 -736 0
v -624 -720 0
v -608 -720 0
v -624 -736 0
v -640 -736 0
v -640 -720 0
v -624 -720 0
v -640 -736 0
v -656 -736 0
v -656 -720 0
v -640 -720 0
v -656 -736 0
v -672 -736 0
v -672 -720 0
v -656 -720 0
v -672 -736 0
v -688 -736 0
v -688 -720 0
v -672 -720 0
v -688 -736 0
v -704 -736 0
v -704 -720 0
v -688 -720 0
v -704 -736 0
v -720 -736 0
v -720 -720 0
v -704 -720 0
v -720 -736 0
v -736 -736 0
v -736 -720 0
v -720 -720 0
v -736 -736 0
v -752 -736 0
v -752 -720 0
v -736 -720 0
v -752 -736 0
v -768 -736 0
v -768 -720 0
v -752 -720 0
v -768 -736 0
v -784 -736 0
v -784 -720 0
v -768 -720 0
v -784 -736 0
v -800 -736 0
v -800 -720 0
v -784 -720 0
v -800 -736 0
v -816 -736 0
v -816 -720 0
v -800 -720 0
v -816 -736 0
v -832 -736 0
v -832 -720 0
v -816 -720 0
v -832 -736 0
v -848 -736 0
v -848 -720 0
v -832 -720 0
v -848 -736 0
v -864 -736 0
v -864 -720 0
v -848 -720 0
v -864 -736 0
v -880 -736 0
v -880 -720 0
v -864 -720 0
v -592 -752 0
v -608 -752 0
v -608 -736 0
v -592 -736 0
v -608 -752 0
v -624 -752 0
v -624 -736 0
v -608 -736 0
v -624 -752 0
v -640 -752 0
v -640 -736 0
v -624 -736 0
v -640 -752 0
v -656 -752 0
v -656 -736 0
v -640 -736 0
v -656 -752 0
v -672 -752 0
v -672 -736 0
v -656 -736 0
v -672 -752 0
v -688 -752 0
v -688 -736 0
v -672 -736 0
v -688 -752 0
v -704 -752 0
v -704 -736 0
v -688 -736 0
v -704 -752 0
v -720 -752 0
v -720 -736 0
v -704 -736 0
v -720 -752 0
v -736 -752 0
v -736 -736 0
v -720 -736 0
v -736 -752 0
v -752 -752 0
v -752 -736 0
v -736 -736 0
v -752 -752 0
v -768 -752 0
v -768 -736 0
v -752 -736 0
v -768 -752 0
v -784 -752 0
v -784 -736 0
v -768 -736 0
v -784 -752 0
v -800 -752 0
v -800 -736 0
v -784 -736 0
v -800 -752 0
v -816 -752 0
v -816 -736 0
v -800 -736 0
v -816 -752 0
v -832 -752 0
v -832 -736 0
v -816 -736 0
v -832 -752 0
v -848 -752 0
v -848 -736 0
v -832 -736 0
v -848 -752 0
v -864 -752 0
v -864 -736 0
v -848 -736 0
v -864 -752 0
v -880 -752 0
v -880 -736 0
v -864 -736 0
v -864 -768 0
v -880 -768 0
v -880 -752 0
v -864 -752 0
v -864 -784 0
v -880 -784 0
v -880 -768 0
v -864 -768 0
v -592 -800 0
v -608 -800 0
v -608 -784 0
v -592 -784 0
v -608 -800 0
v -624 -800 0
v -624 -784 0
v -608 -784 0
v -624 -800 0
v -640 -800 0
v -640 -784 0
v -624 -784 0
v -640 -800 0
v -656 -800 0
v -656 -784 0
v -640 -784 0
v -656 -800 0
v -672 -800 0
v -672 -784 0
v -656 -784 0
v -672 -800 0
v -688 -800 0
v -688 -784 0
v -672 -784 0
v -688 -800 0
v -704 -800 0
v -704 -784 0
v -688 -784 0
v -704 -800 0
v -720 -800 0
v -720 -784 0
v -704 -784 0
v -720 -800 0
v -736 -800 0
v -736 -784 0
v -720 -784 0
v -736 -800 0
v -752 -800 0
v -752 -784 0
v -736 -784 0
v -752 -800 0
v -768 -800 0
v -768 -784 0
v -752 -784 0
v -768 -800 0
v -784 -800 0
v -784 -784 0
v -768 -784 0
v -784 -800 0
v -800 -800 0
v -800 -784 0
v -784 -784 0
v -800 -800 0
v -816 -800 0
v -816 -784 0
v -800 -784 0
v -816 -800 0
v -832 -800 0
v -832 -784 0
v -816 -784 0
v -832 -800 0
v -848 -800 0
v -848 -784 0
v -832 -784 0
v -848 -800 0
v -864 -800 0
v -864 -784 0
v -848 -784 0
v -864 -800 0
v -880 -800 0
v -880 -784 0
v -864 -784 0
v -592 -816 0
v -608 -816 0
v -608 -800 0
v -592 -800 0
v -608 -816 0
v -624 -816 0
v -624 -800 0
v -608 -800 0
v -624 -816 0
v -640 -816 0
v -640 -800 0
v -624 -800 0
v -640 -816 0
v -656 -816 0
v -656 -800 0
v -640 -800 0
v -656 -816 0
v -672 -816 0
v -672 -800 0
v -656 -800 0
v -672 -816 0
v -688 -816 0
v -688 -800 0
v -672 -800 0
v -688 -816 0
v -704 -816 0
v -704 -800 0
v -688 -800 0
v -704 -816 0
v -720 -816 0
v -720 -800 0
v -704 -800 0
v -720 -816 0
v -736 -816 0
v -736 -800 0
v -720 -800 0
v -736 -816 0
v -752 -816 0
v -752 -800 0
v -736 -800 0
v -752 -816 0
v -768 -816 0
v -768 -800 0
v -752 -800 0
v -768 -816 0
v -784 -816 0
v -784 -800 0
v -768 -800 0
v -784 -816 0
v -800 -816 0
v -800 -800 0
v -784 -800 0
v -800 -816 0
v -816 -816 0
v -816 -800 0
v -800 -800 0
v -816 -816 0
v -832 -816 0
v -832 -800 0
v -816 -800 0
v -832 -816 0
v -848 -816 0
v -848 -800 0
v -832 -800 0
v -848 -816 0
v -864 -816 0
v -864 -800 0
v -848 -800 0
v -864 -816 0
v -880 -816 0
v -880 -800 0
v -864 -800 0

# Texture cooridinates (Count = 12)
vt 0.3161157 0.6463878
vt 0.3326446 0.6463878
vt 0.3326446 0.6768061
vt 0.3161157 0.6768061
vt 0.3161157 0.6140684
vt 0.3326446 0.6140684
vt 0.3326446 0.6444867
vt 0.3161157 0.6444867
vt 0.1931818 0.5171102
vt 0.2097107 0.5171102
vt 0.2097107 0.5475285
vt 0.1931818 0.5475285

# Normal
vn 0 0 -1

# Mesh description
g Forest2_mesh_0002

# Faces
f 1/1/1 2/2/1 3/3/1 4/4/1
f 5/1/1 6/2/1 7/3/1 8/4/1
f 9/1/1 10/2/1 11/3/1 12/4/1
f 13/1/1 14/2/1 15/3/1 16/4/1
f 17/1/1 18/2/1 19/3/1 20/4/1
f 21/1/1 22/2/1 23/3/1 24/4/1
f 25/1/1 26/2/1 27/3/1 28/4/1
f 29/1/1 30/2/1 31/3/1 32/4/1
f 33/1/1 34/2/1 35/3/1 36/4/1
f 37/1/1 38/2/1 39/3/1 40/4/1
f 41/1/1 42/2/1 43/3/1 44/4/1
f 45/1/1 46/2/1 47/3/1 48/4/1
f 49/1/1 50/2/1 51/3/1 52/4/1
f 53/1/1 54/2/1 55/3/1 56/4/1
f 57/1/1 58/2/1 59/3/1 60/4/1
f 61/1/1 62/2/1 63/3/1 64/4/1
f 65/1/1 66/2/1 67/3/1 68/4/1
f 69/1/1 70/2/1 71/3/1 72/4/1
f 73/5/1 74/6/1 75/7/1 76/8/1
f 77/5/1 78/6/1 79/7/1 80/8/1
f 81/5/1 82/6/1 83/7/1 84/8/1
f 85/5/1 86/6/1 87/7/1 88/8/1
f 89/5/1 90/6/1 91/7/1 92/8/1
f 93/5/1 94/6/1 95/7/1 96/8/1
f 97/5/1 98/6/1 99/7/1 100/8/1
f 101/5/1 102/6/1 103/7/1 104/8/1
f 105/5/1 106/6/1 107/7/1 108/8/1
f 109/5/1 110/6/1 111/7/1 112/8/1
f 113/5/1 114/6/1 115/7/1 116/8/1
f 117/5/1 118/6/1 119/7/1 120/8/1
f 121/5/1 122/6/1 123/7/1 124/8/1
f 125/5/1 126/6/1 127/7/1 128/8/1
f 129/5/1 130/6/1 131/7/1 132/8/1
f 133/5/1 134/6/1 135/7/1 136/8/1
f 137/5/1 138/6/1 139/7/1 140/8/1
f 141/5/1 142/6/1 143/7/1 144/8/1
f 145/9/1 146/10/1 147/11/1 148/12/1
f 149/9/1 150/10/1 151/11/1 152/12/1
f 153/1/1 154/2/1 155/3/1 156/4/1
f 157/1/1 158/2/1 159/3/1 160/4/1
f 161/1/1 162/2/1 163/3/1 164/4/1
f 165/1/1 166/2/1 167/3/1 168/4/1
f 169/1/1 170/2/1 171/3/1 172/4/1
f 173/1/1 174/2/1 175/3/1 176/4/1
f 177/1/1 178/2/1 179/3/1 180/4/1
f 181/1/1 182/2/1 183/3/1 184/4/1
f 185/1/1 186/2/1 187/3/1 188/4/1
f 189/1/1 190/2/1 191/3/1 192/4/1
f 193/1/1 194/2/1 195/3/1 196/4/1
f 197/1/1 198/2/1 199/3/1 200/4/1
f 201/1/1 202/2/1 203/3/1 204/4/1
f 205/1/1 206/2/1 207/3/1 208/4/1
f 209/1/1 210/2/1 211/3/1 212/4/1
f 213/1/1 214/2/1 215/3/1 216/4/1
f 217/1/1 218/2/1 219/3/1 220/4/1
f 221/1/1 222/2/1 223/3/1 224/4/1
f 225/5/1 226/6/1 227/7/1 228/8/1
f 229/5/1 230/6/1 231/7/1 232/8/1
f 233/5/1 234/6/1 235/7/1 236/8/1
f 237/5/1 238/6/1 239/7/1 240/8/1
f 241/5/1 242/6/1 243/7/1 244/8/1
f 245/5/1 246/6/1 247/7/1 248/8/1
f 249/5/1 250/6/1 251/7/1 252/8/1
f 253/5/1 254/6/1 255/7/1 256/8/1
f 257/5/1 258/6/1 259/7/1 260/8/1
f 261/5/1 262/6/1 263/7/1 264/8/1
f 265/5/1 266/6/1 267/7/1 268/8/1
f 269/5/1 270/6/1 271/7/1 272/8/1
f 273/5/1 274/6/1 275/7/1 276/8/1
f 277/5/1 278/6/1 279/7/1 280/8/1
f 281/5/1 282/6/1 283/7/1 284/8/1
f 285/5/1 286/6/1 287/7/1 288/8/1
f 289/5/1 290/6/1 291/7/1 292/8/1
f 293/5/1 294/6/1 295/7/1 296/8/1

