# Tiled2Unity generated file. Do not modify by hand.
# Wavefront file for 'Castle5_mesh_0006.obj'

# Vertices (Count = 928)
v -656 -592 0
v -672 -592 0
v -672 -576 0
v -656 -576 0
v -960 -592 0
v -976 -592 0
v -976 -576 0
v -960 -576 0
v -656 -608 0
v -672 -608 0
v -672 -592 0
v -656 -592 0
v -960 -608 0
v -976 -608 0
v -976 -592 0
v -960 -592 0
v -656 -624 0
v -672 -624 0
v -672 -608 0
v -656 -608 0
v -960 -624 0
v -976 -624 0
v -976 -608 0
v -960 -608 0
v -656 -640 0
v -672 -640 0
v -672 -624 0
v -656 -624 0
v -960 -640 0
v -976 -640 0
v -976 -624 0
v -960 -624 0
v -656 -656 0
v -672 -656 0
v -672 -640 0
v -656 -640 0
v -960 -656 0
v -976 -656 0
v -976 -640 0
v -960 -640 0
v -656 -672 0
v -672 -672 0
v -672 -656 0
v -656 -656 0
v -960 -672 0
v -976 -672 0
v -976 -656 0
v -960 -656 0
v -656 -688 0
v -672 -688 0
v -672 -672 0
v -656 -672 0
v -960 -688 0
v -976 -688 0
v -976 -672 0
v -960 -672 0
v -656 -704 0
v -672 -704 0
v -672 -688 0
v -656 -688 0
v -960 -704 0
v -976 -704 0
v -976 -688 0
v -960 -688 0
v -656 -720 0
v -672 -720 0
v -672 -704 0
v -656 -704 0
v -960 -720 0
v -976 -720 0
v -976 -704 0
v -960 -704 0
v -656 -736 0
v -672 -736 0
v -672 -720 0
v -656 -720 0
v -960 -736 0
v -976 -736 0
v -976 -720 0
v -960 -720 0
v -656 -752 0
v -672 -752 0
v -672 -736 0
v -656 -736 0
v -672 -752 0
v -688 -752 0
v -688 -736 0
v -672 -736 0
v -688 -752 0
v -704 -752 0
v -704 -736 0
v -688 -736 0
v -704 -752 0
v -720 -752 0
v -720 -736 0
v -704 -736 0
v -720 -752 0
v -736 -752 0
v -736 -736 0
v -720 -736 0
v -736 -752 0
v -752 -752 0
v -752 -736 0
v -736 -736 0
v -752 -752 0
v -768 -752 0
v -768 -736 0
v -752 -736 0
v -864 -752 0
v -880 -752 0
v -880 -736 0
v -864 -736 0
v -880 -752 0
v -896 -752 0
v -896 -736 0
v -880 -736 0
v -896 -752 0
v -912 -752 0
v -912 -736 0
v -896 -736 0
v -912 -752 0
v -928 -752 0
v -928 -736 0
v -912 -736 0
v -928 -752 0
v -944 -752 0
v -944 -736 0
v -928 -736 0
v -944 -752 0
v -960 -752 0
v -960 -736 0
v -944 -736 0
v -960 -752 0
v -976 -752 0
v -976 -736 0
v -960 -736 0
v -656 -768 0
v -672 -768 0
v -672 -752 0
v -656 -752 0
v -672 -768 0
v -688 -768 0
v -688 -752 0
v -672 -752 0
v -688 -768 0
v -704 -768 0
v -704 -752 0
v -688 -752 0
v -704 -768 0
v -720 -768 0
v -720 -752 0
v -704 -752 0
v -720 -768 0
v -736 -768 0
v -736 -752 0
v -720 -752 0
v -736 -768 0
v -752 -768 0
v -752 -752 0
v -736 -752 0
v -752 -768 0
v -768 -768 0
v -768 -752 0
v -752 -752 0
v -864 -768 0
v -880 -768 0
v -880 -752 0
v -864 -752 0
v -880 -768 0
v -896 -768 0
v -896 -752 0
v -880 -752 0
v -896 -768 0
v -912 -768 0
v -912 -752 0
v -896 -752 0
v -912 -768 0
v -928 -768 0
v -928 -752 0
v -912 -752 0
v -928 -768 0
v -944 -768 0
v -944 -752 0
v -928 -752 0
v -944 -768 0
v -960 -768 0
v -960 -752 0
v -944 -752 0
v -960 -768 0
v -976 -768 0
v -976 -752 0
v -960 -752 0
v -656 -784 0
v -672 -784 0
v -672 -768 0
v -656 -768 0
v -672 -784 0
v -688 -784 0
v -688 -768 0
v -672 -768 0
v -688 -784 0
v -704 -784 0
v -704 -768 0
v -688 -768 0
v -704 -784 0
v -720 -784 0
v -720 -768 0
v -704 -768 0
v -720 -784 0
v -736 -784 0
v -736 -768 0
v -720 -768 0
v -736 -784 0
v -752 -784 0
v -752 -768 0
v -736 -768 0
v -752 -784 0
v -768 -784 0
v -768 -768 0
v -752 -768 0
v -864 -784 0
v -880 -784 0
v -880 -768 0
v -864 -768 0
v -880 -784 0
v -896 -784 0
v -896 -768 0
v -880 -768 0
v -896 -784 0
v -912 -784 0
v -912 -768 0
v -896 -768 0
v -912 -784 0
v -928 -784 0
v -928 -768 0
v -912 -768 0
v -928 -784 0
v -944 -784 0
v -944 -768 0
v -928 -768 0
v -944 -784 0
v -960 -784 0
v -960 -768 0
v -944 -768 0
v -960 -784 0
v -976 -784 0
v -976 -768 0
v -960 -768 0
v -656 -800 0
v -672 -800 0
v -672 -784 0
v -656 -784 0
v -672 -800 0
v -688 -800 0
v -688 -784 0
v -672 -784 0
v -688 -800 0
v -704 -800 0
v -704 -784 0
v -688 -784 0
v -704 -800 0
v -720 -800 0
v -720 -784 0
v -704 -784 0
v -720 -800 0
v -736 -800 0
v -736 -784 0
v -720 -784 0
v -736 -800 0
v -752 -800 0
v -752 -784 0
v -736 -784 0
v -752 -800 0
v -768 -800 0
v -768 -784 0
v -752 -784 0
v -864 -800 0
v -880 -800 0
v -880 -784 0
v -864 -784 0
v -880 -800 0
v -896 -800 0
v -896 -784 0
v -880 -784 0
v -896 -800 0
v -912 -800 0
v -912 -784 0
v -896 -784 0
v -912 -800 0
v -928 -800 0
v -928 -784 0
v -912 -784 0
v -928 -800 0
v -944 -800 0
v -944 -784 0
v -928 -784 0
v -944 -800 0
v -960 -800 0
v -960 -784 0
v -944 -784 0
v -960 -800 0
v -976 -800 0
v -976 -784 0
v -960 -784 0
v -656 -816 0
v -672 -816 0
v -672 -800 0
v -656 -800 0
v -672 -816 0
v -688 -816 0
v -688 -800 0
v -672 -800 0
v -688 -816 0
v -704 -816 0
v -704 -800 0
v -688 -800 0
v -704 -816 0
v -720 -816 0
v -720 -800 0
v -704 -800 0
v -720 -816 0
v -736 -816 0
v -736 -800 0
v -720 -800 0
v -736 -816 0
v -752 -816 0
v -752 -800 0
v -736 -800 0
v -752 -816 0
v -768 -816 0
v -768 -800 0
v -752 -800 0
v -864 -816 0
v -880 -816 0
v -880 -800 0
v -864 -800 0
v -880 -816 0
v -896 -816 0
v -896 -800 0
v -880 -800 0
v -896 -816 0
v -912 -816 0
v -912 -800 0
v -896 -800 0
v -912 -816 0
v -928 -816 0
v -928 -800 0
v -912 -800 0
v -928 -816 0
v -944 -816 0
v -944 -800 0
v -928 -800 0
v -944 -816 0
v -960 -816 0
v -960 -800 0
v -944 -800 0
v -960 -816 0
v -976 -816 0
v -976 -800 0
v -960 -800 0
v -656 -832 0
v -672 -832 0
v -672 -816 0
v -656 -816 0
v -672 -832 0
v -688 -832 0
v -688 -816 0
v -672 -816 0
v -688 -832 0
v -704 -832 0
v -704 -816 0
v -688 -816 0
v -704 -832 0
v -720 -832 0
v -720 -816 0
v -704 -816 0
v -720 -832 0
v -736 -832 0
v -736 -816 0
v -720 -816 0
v -736 -832 0
v -752 -832 0
v -752 -816 0
v -736 -816 0
v -752 -832 0
v -768 -832 0
v -768 -816 0
v -752 -816 0
v -864 -832 0
v -880 -832 0
v -880 -816 0
v -864 -816 0
v -880 -832 0
v -896 -832 0
v -896 -816 0
v -880 -816 0
v -896 -832 0
v -912 -832 0
v -912 -816 0
v -896 -816 0
v -912 -832 0
v -928 -832 0
v -928 -816 0
v -912 -816 0
v -928 -832 0
v -944 -832 0
v -944 -816 0
v -928 -816 0
v -944 -832 0
v -960 -832 0
v -960 -816 0
v -944 -816 0
v -960 -832 0
v -976 -832 0
v -976 -816 0
v -960 -816 0
v -656 -848 0
v -672 -848 0
v -672 -832 0
v -656 -832 0
v -672 -848 0
v -688 -848 0
v -688 -832 0
v -672 -832 0
v -688 -848 0
v -704 -848 0
v -704 -832 0
v -688 -832 0
v -704 -848 0
v -720 -848 0
v -720 -832 0
v -704 -832 0
v -720 -848 0
v -736 -848 0
v -736 -832 0
v -720 -832 0
v -736 -848 0
v -752 -848 0
v -752 -832 0
v -736 -832 0
v -752 -848 0
v -768 -848 0
v -768 -832 0
v -752 -832 0
v -864 -848 0
v -880 -848 0
v -880 -832 0
v -864 -832 0
v -880 -848 0
v -896 -848 0
v -896 -832 0
v -880 -832 0
v -896 -848 0
v -912 -848 0
v -912 -832 0
v -896 -832 0
v -912 -848 0
v -928 -848 0
v -928 -832 0
v -912 -832 0
v -928 -848 0
v -944 -848 0
v -944 -832 0
v -928 -832 0
v -944 -848 0
v -960 -848 0
v -960 -832 0
v -944 -832 0
v -960 -848 0
v -976 -848 0
v -976 -832 0
v -960 -832 0
v -656 -864 0
v -672 -864 0
v -672 -848 0
v -656 -848 0
v -672 -864 0
v -688 -864 0
v -688 -848 0
v -672 -848 0
v -688 -864 0
v -704 -864 0
v -704 -848 0
v -688 -848 0
v -704 -864 0
v -720 -864 0
v -720 -848 0
v -704 -848 0
v -720 -864 0
v -736 -864 0
v -736 -848 0
v -720 -848 0
v -736 -864 0
v -752 -864 0
v -752 -848 0
v -736 -848 0
v -752 -864 0
v -768 -864 0
v -768 -848 0
v -752 -848 0
v -864 -864 0
v -880 -864 0
v -880 -848 0
v -864 -848 0
v -880 -864 0
v -896 -864 0
v -896 -848 0
v -880 -848 0
v -896 -864 0
v -912 -864 0
v -912 -848 0
v -896 -848 0
v -912 -864 0
v -928 -864 0
v -928 -848 0
v -912 -848 0
v -928 -864 0
v -944 -864 0
v -944 -848 0
v -928 -848 0
v -944 -864 0
v -960 -864 0
v -960 -848 0
v -944 -848 0
v -960 -864 0
v -976 -864 0
v -976 -848 0
v -960 -848 0
v -656 -880 0
v -672 -880 0
v -672 -864 0
v -656 -864 0
v -672 -880 0
v -688 -880 0
v -688 -864 0
v -672 -864 0
v -688 -880 0
v -704 -880 0
v -704 -864 0
v -688 -864 0
v -704 -880 0
v -720 -880 0
v -720 -864 0
v -704 -864 0
v -720 -880 0
v -736 -880 0
v -736 -864 0
v -720 -864 0
v -736 -880 0
v -752 -880 0
v -752 -864 0
v -736 -864 0
v -752 -880 0
v -768 -880 0
v -768 -864 0
v -752 -864 0
v -864 -880 0
v -880 -880 0
v -880 -864 0
v -864 -864 0
v -880 -880 0
v -896 -880 0
v -896 -864 0
v -880 -864 0
v -896 -880 0
v -912 -880 0
v -912 -864 0
v -896 -864 0
v -912 -880 0
v -928 -880 0
v -928 -864 0
v -912 -864 0
v -928 -880 0
v -944 -880 0
v -944 -864 0
v -928 -864 0
v -944 -880 0
v -960 -880 0
v -960 -864 0
v -944 -864 0
v -960 -880 0
v -976 -880 0
v -976 -864 0
v -960 -864 0
v -656 -896 0
v -672 -896 0
v -672 -880 0
v -656 -880 0
v -672 -896 0
v -688 -896 0
v -688 -880 0
v -672 -880 0
v -688 -896 0
v -704 -896 0
v -704 -880 0
v -688 -880 0
v -704 -896 0
v -720 -896 0
v -720 -880 0
v -704 -880 0
v -720 -896 0
v -736 -896 0
v -736 -880 0
v -720 -880 0
v -736 -896 0
v -752 -896 0
v -752 -880 0
v -736 -880 0
v -752 -896 0
v -768 -896 0
v -768 -880 0
v -752 -880 0
v -864 -896 0
v -880 -896 0
v -880 -880 0
v -864 -880 0
v -880 -896 0
v -896 -896 0
v -896 -880 0
v -880 -880 0
v -896 -896 0
v -912 -896 0
v -912 -880 0
v -896 -880 0
v -912 -896 0
v -928 -896 0
v -928 -880 0
v -912 -880 0
v -928 -896 0
v -944 -896 0
v -944 -880 0
v -928 -880 0
v -944 -896 0
v -960 -896 0
v -960 -880 0
v -944 -880 0
v -960 -896 0
v -976 -896 0
v -976 -880 0
v -960 -880 0
v -656 -912 0
v -672 -912 0
v -672 -896 0
v -656 -896 0
v -672 -912 0
v -688 -912 0
v -688 -896 0
v -672 -896 0
v -688 -912 0
v -704 -912 0
v -704 -896 0
v -688 -896 0
v -704 -912 0
v -720 -912 0
v -720 -896 0
v -704 -896 0
v -720 -912 0
v -736 -912 0
v -736 -896 0
v -720 -896 0
v -736 -912 0
v -752 -912 0
v -752 -896 0
v -736 -896 0
v -752 -912 0
v -768 -912 0
v -768 -896 0
v -752 -896 0
v -864 -912 0
v -880 -912 0
v -880 -896 0
v -864 -896 0
v -880 -912 0
v -896 -912 0
v -896 -896 0
v -880 -896 0
v -896 -912 0
v -912 -912 0
v -912 -896 0
v -896 -896 0
v -912 -912 0
v -928 -912 0
v -928 -896 0
v -912 -896 0
v -928 -912 0
v -944 -912 0
v -944 -896 0
v -928 -896 0
v -944 -912 0
v -960 -912 0
v -960 -896 0
v -944 -896 0
v -960 -912 0
v -976 -912 0
v -976 -896 0
v -960 -896 0
v -656 -928 0
v -672 -928 0
v -672 -912 0
v -656 -912 0
v -672 -928 0
v -688 -928 0
v -688 -912 0
v -672 -912 0
v -688 -928 0
v -704 -928 0
v -704 -912 0
v -688 -912 0
v -704 -928 0
v -720 -928 0
v -720 -912 0
v -704 -912 0
v -720 -928 0
v -736 -928 0
v -736 -912 0
v -720 -912 0
v -736 -928 0
v -752 -928 0
v -752 -912 0
v -736 -912 0
v -752 -928 0
v -768 -928 0
v -768 -912 0
v -752 -912 0
v -864 -928 0
v -880 -928 0
v -880 -912 0
v -864 -912 0
v -880 -928 0
v -896 -928 0
v -896 -912 0
v -880 -912 0
v -896 -928 0
v -912 -928 0
v -912 -912 0
v -896 -912 0
v -912 -928 0
v -928 -928 0
v -928 -912 0
v -912 -912 0
v -928 -928 0
v -944 -928 0
v -944 -912 0
v -928 -912 0
v -944 -928 0
v -960 -928 0
v -960 -912 0
v -944 -912 0
v -960 -928 0
v -976 -928 0
v -976 -912 0
v -960 -912 0
v -656 -944 0
v -672 -944 0
v -672 -928 0
v -656 -928 0
v -672 -944 0
v -688 -944 0
v -688 -928 0
v -672 -928 0
v -688 -944 0
v -704 -944 0
v -704 -928 0
v -688 -928 0
v -704 -944 0
v -720 -944 0
v -720 -928 0
v -704 -928 0
v -720 -944 0
v -736 -944 0
v -736 -928 0
v -720 -928 0
v -736 -944 0
v -752 -944 0
v -752 -928 0
v -736 -928 0
v -752 -944 0
v -768 -944 0
v -768 -928 0
v -752 -928 0
v -864 -944 0
v -880 -944 0
v -880 -928 0
v -864 -928 0
v -880 -944 0
v -896 -944 0
v -896 -928 0
v -880 -928 0
v -896 -944 0
v -912 -944 0
v -912 -928 0
v -896 -928 0
v -912 -944 0
v -928 -944 0
v -928 -928 0
v -912 -928 0
v -928 -944 0
v -944 -944 0
v -944 -928 0
v -928 -928 0
v -944 -944 0
v -960 -944 0
v -960 -928 0
v -944 -928 0
v -960 -944 0
v -976 -944 0
v -976 -928 0
v -960 -928 0
v -656 -960 0
v -672 -960 0
v -672 -944 0
v -656 -944 0
v -672 -960 0
v -688 -960 0
v -688 -944 0
v -672 -944 0
v -688 -960 0
v -704 -960 0
v -704 -944 0
v -688 -944 0
v -704 -960 0
v -720 -960 0
v -720 -944 0
v -704 -944 0
v -720 -960 0
v -736 -960 0
v -736 -944 0
v -720 -944 0
v -736 -960 0
v -752 -960 0
v -752 -944 0
v -736 -944 0
v -752 -960 0
v -768 -960 0
v -768 -944 0
v -752 -944 0
v -864 -960 0
v -880 -960 0
v -880 -944 0
v -864 -944 0
v -880 -960 0
v -896 -960 0
v -896 -944 0
v -880 -944 0
v -896 -960 0
v -912 -960 0
v -912 -944 0
v -896 -944 0
v -912 -960 0
v -928 -960 0
v -928 -944 0
v -912 -944 0
v -928 -960 0
v -944 -960 0
v -944 -944 0
v -928 -944 0
v -944 -960 0
v -960 -960 0
v -960 -944 0
v -944 -944 0
v -960 -960 0
v -976 -960 0
v -976 -944 0
v -960 -944 0
v -656 -976 0
v -672 -976 0
v -672 -960 0
v -656 -960 0
v -672 -976 0
v -688 -976 0
v -688 -960 0
v -672 -960 0
v -688 -976 0
v -704 -976 0
v -704 -960 0
v -688 -960 0
v -704 -976 0
v -720 -976 0
v -720 -960 0
v -704 -960 0
v -720 -976 0
v -736 -976 0
v -736 -960 0
v -720 -960 0
v -736 -976 0
v -752 -976 0
v -752 -960 0
v -736 -960 0
v -752 -976 0
v -768 -976 0
v -768 -960 0
v -752 -960 0
v -800 -976 0
v -816 -976 0
v -816 -960 0
v -800 -960 0
v -816 -976 0
v -832 -976 0
v -832 -960 0
v -816 -960 0
v -864 -976 0
v -880 -976 0
v -880 -960 0
v -864 -960 0
v -880 -976 0
v -896 -976 0
v -896 -960 0
v -880 -960 0
v -896 -976 0
v -912 -976 0
v -912 -960 0
v -896 -960 0
v -912 -976 0
v -928 -976 0
v -928 -960 0
v -912 -960 0
v -928 -976 0
v -944 -976 0
v -944 -960 0
v -928 -960 0
v -944 -976 0
v -960 -976 0
v -960 -960 0
v -944 -960 0
v -960 -976 0
v -976 -976 0
v -976 -960 0
v -960 -960 0

# Texture cooridinates (Count = 20)
vt 0.4741735 0.3231939
vt 0.4907025 0.3231939
vt 0.4907025 0.3536122
vt 0.4741735 0.3536122
vt 0.4917355 0.3555133
vt 0.5082645 0.3555133
vt 0.5082645 0.3859316
vt 0.4917355 0.3859316
vt 0.4917355 0.3231939
vt 0.5082645 0.3231939
vt 0.5082645 0.3536122
vt 0.4917355 0.3536122
vt 0.7551653 0.6463878
vt 0.7716942 0.6463878
vt 0.7716942 0.6768061
vt 0.7551653 0.6768061
vt 0.5971074 0.8403042
vt 0.6136364 0.8403042
vt 0.6136364 0.8707224
vt 0.5971074 0.8707224

# Normal
vn 0 0 -1

# Mesh description
g Castle5_mesh_0006

# Faces
f 1/1/1 2/2/1 3/3/1 4/4/1
f 5/1/1 6/2/1 7/3/1 8/4/1
f 9/5/1 10/6/1 11/7/1 12/8/1
f 13/5/1 14/6/1 15/7/1 16/8/1
f 17/5/1 18/6/1 19/7/1 20/8/1
f 21/5/1 22/6/1 23/7/1 24/8/1
f 25/5/1 26/6/1 27/7/1 28/8/1
f 29/5/1 30/6/1 31/7/1 32/8/1
f 33/9/1 34/10/1 35/11/1 36/12/1
f 37/9/1 38/10/1 39/11/1 40/12/1
f 41/1/1 42/2/1 43/3/1 44/4/1
f 45/1/1 46/2/1 47/3/1 48/4/1
f 49/5/1 50/6/1 51/7/1 52/8/1
f 53/5/1 54/6/1 55/7/1 56/8/1
f 57/5/1 58/6/1 59/7/1 60/8/1
f 61/5/1 62/6/1 63/7/1 64/8/1
f 65/5/1 66/6/1 67/7/1 68/8/1
f 69/5/1 70/6/1 71/7/1 72/8/1
f 73/9/1 74/10/1 75/11/1 76/12/1
f 77/9/1 78/10/1 79/11/1 80/12/1
f 81/1/1 82/2/1 83/3/1 84/4/1
f 85/13/1 86/14/1 87/15/1 88/16/1
f 89/13/1 90/14/1 91/15/1 92/16/1
f 93/13/1 94/14/1 95/15/1 96/16/1
f 97/13/1 98/14/1 99/15/1 100/16/1
f 101/13/1 102/14/1 103/15/1 104/16/1
f 105/1/1 106/2/1 107/3/1 108/4/1
f 109/1/1 110/2/1 111/3/1 112/4/1
f 113/13/1 114/14/1 115/15/1 116/16/1
f 117/13/1 118/14/1 119/15/1 120/16/1
f 121/13/1 122/14/1 123/15/1 124/16/1
f 125/13/1 126/14/1 127/15/1 128/16/1
f 129/13/1 130/14/1 131/15/1 132/16/1
f 133/1/1 134/2/1 135/3/1 136/4/1
f 137/5/1 138/6/1 139/7/1 140/8/1
f 141/13/1 142/14/1 143/15/1 144/16/1
f 145/13/1 146/14/1 147/15/1 148/16/1
f 149/13/1 150/14/1 151/15/1 152/16/1
f 153/13/1 154/14/1 155/15/1 156/16/1
f 157/13/1 158/14/1 159/15/1 160/16/1
f 161/5/1 162/6/1 163/7/1 164/8/1
f 165/5/1 166/6/1 167/7/1 168/8/1
f 169/13/1 170/14/1 171/15/1 172/16/1
f 173/13/1 174/14/1 175/15/1 176/16/1
f 177/13/1 178/14/1 179/15/1 180/16/1
f 181/13/1 182/14/1 183/15/1 184/16/1
f 185/13/1 186/14/1 187/15/1 188/16/1
f 189/5/1 190/6/1 191/7/1 192/8/1
f 193/5/1 194/6/1 195/7/1 196/8/1
f 197/13/1 198/14/1 199/15/1 200/16/1
f 201/13/1 202/14/1 203/15/1 204/16/1
f 205/13/1 206/14/1 207/15/1 208/16/1
f 209/13/1 210/14/1 211/15/1 212/16/1
f 213/13/1 214/14/1 215/15/1 216/16/1
f 217/5/1 218/6/1 219/7/1 220/8/1
f 221/5/1 222/6/1 223/7/1 224/8/1
f 225/13/1 226/14/1 227/15/1 228/16/1
f 229/13/1 230/14/1 231/15/1 232/16/1
f 233/13/1 234/14/1 235/15/1 236/16/1
f 237/13/1 238/14/1 239/15/1 240/16/1
f 241/13/1 242/14/1 243/15/1 244/16/1
f 245/5/1 246/6/1 247/7/1 248/8/1
f 249/5/1 250/6/1 251/7/1 252/8/1
f 253/13/1 254/14/1 255/15/1 256/16/1
f 257/13/1 258/14/1 259/15/1 260/16/1
f 261/13/1 262/14/1 263/15/1 264/16/1
f 265/13/1 266/14/1 267/15/1 268/16/1
f 269/13/1 270/14/1 271/15/1 272/16/1
f 273/5/1 274/6/1 275/7/1 276/8/1
f 277/5/1 278/6/1 279/7/1 280/8/1
f 281/13/1 282/14/1 283/15/1 284/16/1
f 285/13/1 286/14/1 287/15/1 288/16/1
f 289/13/1 290/14/1 291/15/1 292/16/1
f 293/13/1 294/14/1 295/15/1 296/16/1
f 297/13/1 298/14/1 299/15/1 300/16/1
f 301/5/1 302/6/1 303/7/1 304/8/1
f 305/5/1 306/6/1 307/7/1 308/8/1
f 309/13/1 310/14/1 311/15/1 312/16/1
f 313/13/1 314/14/1 315/15/1 316/16/1
f 317/13/1 318/14/1 319/15/1 320/16/1
f 321/13/1 322/14/1 323/15/1 324/16/1
f 325/13/1 326/14/1 327/15/1 328/16/1
f 329/5/1 330/6/1 331/7/1 332/8/1
f 333/5/1 334/6/1 335/7/1 336/8/1
f 337/13/1 338/14/1 339/15/1 340/16/1
f 341/13/1 342/14/1 343/15/1 344/16/1
f 345/13/1 346/14/1 347/15/1 348/16/1
f 349/13/1 350/14/1 351/15/1 352/16/1
f 353/13/1 354/14/1 355/15/1 356/16/1
f 357/5/1 358/6/1 359/7/1 360/8/1
f 361/5/1 362/6/1 363/7/1 364/8/1
f 365/13/1 366/14/1 367/15/1 368/16/1
f 369/13/1 370/14/1 371/15/1 372/16/1
f 373/13/1 374/14/1 375/15/1 376/16/1
f 377/13/1 378/14/1 379/15/1 380/16/1
f 381/13/1 382/14/1 383/15/1 384/16/1
f 385/5/1 386/6/1 387/7/1 388/8/1
f 389/5/1 390/6/1 391/7/1 392/8/1
f 393/13/1 394/14/1 395/15/1 396/16/1
f 397/13/1 398/14/1 399/15/1 400/16/1
f 401/13/1 402/14/1 403/15/1 404/16/1
f 405/13/1 406/14/1 407/15/1 408/16/1
f 409/13/1 410/14/1 411/15/1 412/16/1
f 413/5/1 414/6/1 415/7/1 416/8/1
f 417/5/1 418/6/1 419/7/1 420/8/1
f 421/13/1 422/14/1 423/15/1 424/16/1
f 425/13/1 426/14/1 427/15/1 428/16/1
f 429/13/1 430/14/1 431/15/1 432/16/1
f 433/13/1 434/14/1 435/15/1 436/16/1
f 437/13/1 438/14/1 439/15/1 440/16/1
f 441/5/1 442/6/1 443/7/1 444/8/1
f 445/5/1 446/6/1 447/7/1 448/8/1
f 449/13/1 450/14/1 451/15/1 452/16/1
f 453/13/1 454/14/1 455/15/1 456/16/1
f 457/13/1 458/14/1 459/15/1 460/16/1
f 461/13/1 462/14/1 463/15/1 464/16/1
f 465/13/1 466/14/1 467/15/1 468/16/1
f 469/5/1 470/6/1 471/7/1 472/8/1
f 473/5/1 474/6/1 475/7/1 476/8/1
f 477/13/1 478/14/1 479/15/1 480/16/1
f 481/13/1 482/14/1 483/15/1 484/16/1
f 485/13/1 486/14/1 487/15/1 488/16/1
f 489/13/1 490/14/1 491/15/1 492/16/1
f 493/13/1 494/14/1 495/15/1 496/16/1
f 497/5/1 498/6/1 499/7/1 500/8/1
f 501/5/1 502/6/1 503/7/1 504/8/1
f 505/13/1 506/14/1 507/15/1 508/16/1
f 509/13/1 510/14/1 511/15/1 512/16/1
f 513/13/1 514/14/1 515/15/1 516/16/1
f 517/13/1 518/14/1 519/15/1 520/16/1
f 521/13/1 522/14/1 523/15/1 524/16/1
f 525/5/1 526/6/1 527/7/1 528/8/1
f 529/5/1 530/6/1 531/7/1 532/8/1
f 533/13/1 534/14/1 535/15/1 536/16/1
f 537/13/1 538/14/1 539/15/1 540/16/1
f 541/13/1 542/14/1 543/15/1 544/16/1
f 545/13/1 546/14/1 547/15/1 548/16/1
f 549/13/1 550/14/1 551/15/1 552/16/1
f 553/5/1 554/6/1 555/7/1 556/8/1
f 557/5/1 558/6/1 559/7/1 560/8/1
f 561/13/1 562/14/1 563/15/1 564/16/1
f 565/13/1 566/14/1 567/15/1 568/16/1
f 569/13/1 570/14/1 571/15/1 572/16/1
f 573/13/1 574/14/1 575/15/1 576/16/1
f 577/13/1 578/14/1 579/15/1 580/16/1
f 581/5/1 582/6/1 583/7/1 584/8/1
f 585/5/1 586/6/1 587/7/1 588/8/1
f 589/13/1 590/14/1 591/15/1 592/16/1
f 593/13/1 594/14/1 595/15/1 596/16/1
f 597/13/1 598/14/1 599/15/1 600/16/1
f 601/13/1 602/14/1 603/15/1 604/16/1
f 605/13/1 606/14/1 607/15/1 608/16/1
f 609/5/1 610/6/1 611/7/1 612/8/1
f 613/5/1 614/6/1 615/7/1 616/8/1
f 617/13/1 618/14/1 619/15/1 620/16/1
f 621/13/1 622/14/1 623/15/1 624/16/1
f 625/13/1 626/14/1 627/15/1 628/16/1
f 629/13/1 630/14/1 631/15/1 632/16/1
f 633/13/1 634/14/1 635/15/1 636/16/1
f 637/5/1 638/6/1 639/7/1 640/8/1
f 641/5/1 642/6/1 643/7/1 644/8/1
f 645/13/1 646/14/1 647/15/1 648/16/1
f 649/13/1 650/14/1 651/15/1 652/16/1
f 653/13/1 654/14/1 655/15/1 656/16/1
f 657/13/1 658/14/1 659/15/1 660/16/1
f 661/13/1 662/14/1 663/15/1 664/16/1
f 665/5/1 666/6/1 667/7/1 668/8/1
f 669/5/1 670/6/1 671/7/1 672/8/1
f 673/13/1 674/14/1 675/15/1 676/16/1
f 677/13/1 678/14/1 679/15/1 680/16/1
f 681/13/1 682/14/1 683/15/1 684/16/1
f 685/13/1 686/14/1 687/15/1 688/16/1
f 689/13/1 690/14/1 691/15/1 692/16/1
f 693/5/1 694/6/1 695/7/1 696/8/1
f 697/5/1 698/6/1 699/7/1 700/8/1
f 701/13/1 702/14/1 703/15/1 704/16/1
f 705/13/1 706/14/1 707/15/1 708/16/1
f 709/13/1 710/14/1 711/15/1 712/16/1
f 713/13/1 714/14/1 715/15/1 716/16/1
f 717/13/1 718/14/1 719/15/1 720/16/1
f 721/5/1 722/6/1 723/7/1 724/8/1
f 725/5/1 726/6/1 727/7/1 728/8/1
f 729/13/1 730/14/1 731/15/1 732/16/1
f 733/13/1 734/14/1 735/15/1 736/16/1
f 737/13/1 738/14/1 739/15/1 740/16/1
f 741/13/1 742/14/1 743/15/1 744/16/1
f 745/13/1 746/14/1 747/15/1 748/16/1
f 749/5/1 750/6/1 751/7/1 752/8/1
f 753/5/1 754/6/1 755/7/1 756/8/1
f 757/13/1 758/14/1 759/15/1 760/16/1
f 761/13/1 762/14/1 763/15/1 764/16/1
f 765/13/1 766/14/1 767/15/1 768/16/1
f 769/13/1 770/14/1 771/15/1 772/16/1
f 773/13/1 774/14/1 775/15/1 776/16/1
f 777/5/1 778/6/1 779/7/1 780/8/1
f 781/5/1 782/6/1 783/7/1 784/8/1
f 785/13/1 786/14/1 787/15/1 788/16/1
f 789/13/1 790/14/1 791/15/1 792/16/1
f 793/13/1 794/14/1 795/15/1 796/16/1
f 797/13/1 798/14/1 799/15/1 800/16/1
f 801/13/1 802/14/1 803/15/1 804/16/1
f 805/5/1 806/6/1 807/7/1 808/8/1
f 809/5/1 810/6/1 811/7/1 812/8/1
f 813/13/1 814/14/1 815/15/1 816/16/1
f 817/13/1 818/14/1 819/15/1 820/16/1
f 821/13/1 822/14/1 823/15/1 824/16/1
f 825/13/1 826/14/1 827/15/1 828/16/1
f 829/13/1 830/14/1 831/15/1 832/16/1
f 833/5/1 834/6/1 835/7/1 836/8/1
f 837/5/1 838/6/1 839/7/1 840/8/1
f 841/13/1 842/14/1 843/15/1 844/16/1
f 845/13/1 846/14/1 847/15/1 848/16/1
f 849/13/1 850/14/1 851/15/1 852/16/1
f 853/13/1 854/14/1 855/15/1 856/16/1
f 857/13/1 858/14/1 859/15/1 860/16/1
f 861/5/1 862/6/1 863/7/1 864/8/1
f 865/9/1 866/10/1 867/11/1 868/12/1
f 869/13/1 870/14/1 871/15/1 872/16/1
f 873/13/1 874/14/1 875/15/1 876/16/1
f 877/13/1 878/14/1 879/15/1 880/16/1
f 881/13/1 882/14/1 883/15/1 884/16/1
f 885/13/1 886/14/1 887/15/1 888/16/1
f 889/9/1 890/10/1 891/11/1 892/12/1
f 893/17/1 894/18/1 895/19/1 896/20/1
f 897/17/1 898/18/1 899/19/1 900/20/1
f 901/9/1 902/10/1 903/11/1 904/12/1
f 905/13/1 906/14/1 907/15/1 908/16/1
f 909/13/1 910/14/1 911/15/1 912/16/1
f 913/13/1 914/14/1 915/15/1 916/16/1
f 917/13/1 918/14/1 919/15/1 920/16/1
f 921/13/1 922/14/1 923/15/1 924/16/1
f 925/9/1 926/10/1 927/11/1 928/12/1

