# Tiled2Unity generated file. Do not modify by hand.
# Wavefront file for 'Castle5_mesh_0006.obj'

# Vertices (Count = 988)
v -656 -592 0
v -672 -592 0
v -672 -576 0
v -656 -576 0
v -960 -592 0
v -976 -592 0
v -976 -576 0
v -960 -576 0
v -656 -608 0
v -672 -608 0
v -672 -592 0
v -656 -592 0
v -736 -608 0
v -752 -608 0
v -752 -592 0
v -736 -592 0
v -960 -608 0
v -976 -608 0
v -976 -592 0
v -960 -592 0
v -656 -624 0
v -672 -624 0
v -672 -608 0
v -656 -608 0
v -784 -624 0
v -800 -624 0
v -800 -608 0
v -784 -608 0
v -896 -624 0
v -912 -624 0
v -912 -608 0
v -896 -608 0
v -960 -624 0
v -976 -624 0
v -976 -608 0
v -960 -608 0
v -656 -640 0
v -672 -640 0
v -672 -624 0
v -656 -624 0
v -960 -640 0
v -976 -640 0
v -976 -624 0
v -960 -624 0
v -656 -656 0
v -672 -656 0
v -672 -640 0
v -656 -640 0
v -704 -656 0
v -720 -656 0
v -720 -640 0
v -704 -640 0
v -928 -656 0
v -944 -656 0
v -944 -640 0
v -928 -640 0
v -960 -656 0
v -976 -656 0
v -976 -640 0
v -960 -640 0
v -656 -672 0
v -672 -672 0
v -672 -656 0
v -656 -656 0
v -832 -672 0
v -848 -672 0
v -848 -656 0
v -832 -656 0
v -960 -672 0
v -976 -672 0
v -976 -656 0
v -960 -656 0
v -656 -688 0
v -672 -688 0
v -672 -672 0
v -656 -672 0
v -960 -688 0
v -976 -688 0
v -976 -672 0
v -960 -672 0
v -656 -704 0
v -672 -704 0
v -672 -688 0
v -656 -688 0
v -736 -704 0
v -752 -704 0
v -752 -688 0
v -736 -688 0
v -896 -704 0
v -912 -704 0
v -912 -688 0
v -896 -688 0
v -960 -704 0
v -976 -704 0
v -976 -688 0
v -960 -688 0
v -656 -720 0
v -672 -720 0
v -672 -704 0
v -656 -704 0
v -960 -720 0
v -976 -720 0
v -976 -704 0
v -960 -704 0
v -656 -736 0
v -672 -736 0
v -672 -720 0
v -656 -720 0
v -800 -736 0
v -816 -736 0
v -816 -720 0
v -800 -720 0
v -960 -736 0
v -976 -736 0
v -976 -720 0
v -960 -720 0
v -656 -752 0
v -672 -752 0
v -672 -736 0
v -656 -736 0
v -672 -752 0
v -688 -752 0
v -688 -736 0
v -672 -736 0
v -688 -752 0
v -704 -752 0
v -704 -736 0
v -688 -736 0
v -704 -752 0
v -720 -752 0
v -720 -736 0
v -704 -736 0
v -720 -752 0
v -736 -752 0
v -736 -736 0
v -720 -736 0
v -736 -752 0
v -752 -752 0
v -752 -736 0
v -736 -736 0
v -752 -752 0
v -768 -752 0
v -768 -736 0
v -752 -736 0
v -864 -752 0
v -880 -752 0
v -880 -736 0
v -864 -736 0
v -880 -752 0
v -896 -752 0
v -896 -736 0
v -880 -736 0
v -896 -752 0
v -912 -752 0
v -912 -736 0
v -896 -736 0
v -912 -752 0
v -928 -752 0
v -928 -736 0
v -912 -736 0
v -928 -752 0
v -944 -752 0
v -944 -736 0
v -928 -736 0
v -944 -752 0
v -960 -752 0
v -960 -736 0
v -944 -736 0
v -960 -752 0
v -976 -752 0
v -976 -736 0
v -960 -736 0
v -656 -768 0
v -672 -768 0
v -672 -752 0
v -656 -752 0
v -672 -768 0
v -688 -768 0
v -688 -752 0
v -672 -752 0
v -688 -768 0
v -704 -768 0
v -704 -752 0
v -688 -752 0
v -704 -768 0
v -720 -768 0
v -720 -752 0
v -704 -752 0
v -720 -768 0
v -736 -768 0
v -736 -752 0
v -720 -752 0
v -736 -768 0
v -752 -768 0
v -752 -752 0
v -736 -752 0
v -752 -768 0
v -768 -768 0
v -768 -752 0
v -752 -752 0
v -800 -768 0
v -816 -768 0
v -816 -752 0
v -800 -752 0
v -864 -768 0
v -880 -768 0
v -880 -752 0
v -864 -752 0
v -880 -768 0
v -896 -768 0
v -896 -752 0
v -880 -752 0
v -896 -768 0
v -912 -768 0
v -912 -752 0
v -896 -752 0
v -912 -768 0
v -928 -768 0
v -928 -752 0
v -912 -752 0
v -928 -768 0
v -944 -768 0
v -944 -752 0
v -928 -752 0
v -944 -768 0
v -960 -768 0
v -960 -752 0
v -944 -752 0
v -960 -768 0
v -976 -768 0
v -976 -752 0
v -960 -752 0
v -656 -784 0
v -672 -784 0
v -672 -768 0
v -656 -768 0
v -672 -784 0
v -688 -784 0
v -688 -768 0
v -672 -768 0
v -688 -784 0
v -704 -784 0
v -704 -768 0
v -688 -768 0
v -704 -784 0
v -720 -784 0
v -720 -768 0
v -704 -768 0
v -720 -784 0
v -736 -784 0
v -736 -768 0
v -720 -768 0
v -736 -784 0
v -752 -784 0
v -752 -768 0
v -736 -768 0
v -752 -784 0
v -768 -784 0
v -768 -768 0
v -752 -768 0
v -864 -784 0
v -880 -784 0
v -880 -768 0
v -864 -768 0
v -880 -784 0
v -896 -784 0
v -896 -768 0
v -880 -768 0
v -896 -784 0
v -912 -784 0
v -912 -768 0
v -896 -768 0
v -912 -784 0
v -928 -784 0
v -928 -768 0
v -912 -768 0
v -928 -784 0
v -944 -784 0
v -944 -768 0
v -928 -768 0
v -944 -784 0
v -960 -784 0
v -960 -768 0
v -944 -768 0
v -960 -784 0
v -976 -784 0
v -976 -768 0
v -960 -768 0
v -656 -800 0
v -672 -800 0
v -672 -784 0
v -656 -784 0
v -672 -800 0
v -688 -800 0
v -688 -784 0
v -672 -784 0
v -688 -800 0
v -704 -800 0
v -704 -784 0
v -688 -784 0
v -704 -800 0
v -720 -800 0
v -720 -784 0
v -704 -784 0
v -720 -800 0
v -736 -800 0
v -736 -784 0
v -720 -784 0
v -736 -800 0
v -752 -800 0
v -752 -784 0
v -736 -784 0
v -752 -800 0
v -768 -800 0
v -768 -784 0
v -752 -784 0
v -864 -800 0
v -880 -800 0
v -880 -784 0
v -864 -784 0
v -880 -800 0
v -896 -800 0
v -896 -784 0
v -880 -784 0
v -896 -800 0
v -912 -800 0
v -912 -784 0
v -896 -784 0
v -912 -800 0
v -928 -800 0
v -928 -784 0
v -912 -784 0
v -928 -800 0
v -944 -800 0
v -944 -784 0
v -928 -784 0
v -944 -800 0
v -960 -800 0
v -960 -784 0
v -944 -784 0
v -960 -800 0
v -976 -800 0
v -976 -784 0
v -960 -784 0
v -656 -816 0
v -672 -816 0
v -672 -800 0
v -656 -800 0
v -672 -816 0
v -688 -816 0
v -688 -800 0
v -672 -800 0
v -688 -816 0
v -704 -816 0
v -704 -800 0
v -688 -800 0
v -704 -816 0
v -720 -816 0
v -720 -800 0
v -704 -800 0
v -720 -816 0
v -736 -816 0
v -736 -800 0
v -720 -800 0
v -736 -816 0
v -752 -816 0
v -752 -800 0
v -736 -800 0
v -752 -816 0
v -768 -816 0
v -768 -800 0
v -752 -800 0
v -832 -816 0
v -848 -816 0
v -848 -800 0
v -832 -800 0
v -864 -816 0
v -880 -816 0
v -880 -800 0
v -864 -800 0
v -880 -816 0
v -896 -816 0
v -896 -800 0
v -880 -800 0
v -896 -816 0
v -912 -816 0
v -912 -800 0
v -896 -800 0
v -912 -816 0
v -928 -816 0
v -928 -800 0
v -912 -800 0
v -928 -816 0
v -944 -816 0
v -944 -800 0
v -928 -800 0
v -944 -816 0
v -960 -816 0
v -960 -800 0
v -944 -800 0
v -960 -816 0
v -976 -816 0
v -976 -800 0
v -960 -800 0
v -656 -832 0
v -672 -832 0
v -672 -816 0
v -656 -816 0
v -672 -832 0
v -688 -832 0
v -688 -816 0
v -672 -816 0
v -688 -832 0
v -704 -832 0
v -704 -816 0
v -688 -816 0
v -704 -832 0
v -720 -832 0
v -720 -816 0
v -704 -816 0
v -720 -832 0
v -736 -832 0
v -736 -816 0
v -720 -816 0
v -736 -832 0
v -752 -832 0
v -752 -816 0
v -736 -816 0
v -752 -832 0
v -768 -832 0
v -768 -816 0
v -752 -816 0
v -864 -832 0
v -880 -832 0
v -880 -816 0
v -864 -816 0
v -880 -832 0
v -896 -832 0
v -896 -816 0
v -880 -816 0
v -896 -832 0
v -912 -832 0
v -912 -816 0
v -896 -816 0
v -912 -832 0
v -928 -832 0
v -928 -816 0
v -912 -816 0
v -928 -832 0
v -944 -832 0
v -944 -816 0
v -928 -816 0
v -944 -832 0
v -960 -832 0
v -960 -816 0
v -944 -816 0
v -960 -832 0
v -976 -832 0
v -976 -816 0
v -960 -816 0
v -656 -848 0
v -672 -848 0
v -672 -832 0
v -656 -832 0
v -672 -848 0
v -688 -848 0
v -688 -832 0
v -672 -832 0
v -688 -848 0
v -704 -848 0
v -704 -832 0
v -688 -832 0
v -704 -848 0
v -720 -848 0
v -720 -832 0
v -704 -832 0
v -720 -848 0
v -736 -848 0
v -736 -832 0
v -720 -832 0
v -736 -848 0
v -752 -848 0
v -752 -832 0
v -736 -832 0
v -752 -848 0
v -768 -848 0
v -768 -832 0
v -752 -832 0
v -832 -848 0
v -848 -848 0
v -848 -832 0
v -832 -832 0
v -864 -848 0
v -880 -848 0
v -880 -832 0
v -864 -832 0
v -880 -848 0
v -896 -848 0
v -896 -832 0
v -880 -832 0
v -896 -848 0
v -912 -848 0
v -912 -832 0
v -896 -832 0
v -912 -848 0
v -928 -848 0
v -928 -832 0
v -912 -832 0
v -928 -848 0
v -944 -848 0
v -944 -832 0
v -928 -832 0
v -944 -848 0
v -960 -848 0
v -960 -832 0
v -944 -832 0
v -960 -848 0
v -976 -848 0
v -976 -832 0
v -960 -832 0
v -656 -864 0
v -672 -864 0
v -672 -848 0
v -656 -848 0
v -672 -864 0
v -688 -864 0
v -688 -848 0
v -672 -848 0
v -688 -864 0
v -704 -864 0
v -704 -848 0
v -688 -848 0
v -704 -864 0
v -720 -864 0
v -720 -848 0
v -704 -848 0
v -720 -864 0
v -736 -864 0
v -736 -848 0
v -720 -848 0
v -736 -864 0
v -752 -864 0
v -752 -848 0
v -736 -848 0
v -752 -864 0
v -768 -864 0
v -768 -848 0
v -752 -848 0
v -768 -864 0
v -784 -864 0
v -784 -848 0
v -768 -848 0
v -864 -864 0
v -880 -864 0
v -880 -848 0
v -864 -848 0
v -880 -864 0
v -896 -864 0
v -896 -848 0
v -880 -848 0
v -896 -864 0
v -912 -864 0
v -912 -848 0
v -896 -848 0
v -912 -864 0
v -928 -864 0
v -928 -848 0
v -912 -848 0
v -928 -864 0
v -944 -864 0
v -944 -848 0
v -928 -848 0
v -944 -864 0
v -960 -864 0
v -960 -848 0
v -944 -848 0
v -960 -864 0
v -976 -864 0
v -976 -848 0
v -960 -848 0
v -656 -880 0
v -672 -880 0
v -672 -864 0
v -656 -864 0
v -672 -880 0
v -688 -880 0
v -688 -864 0
v -672 -864 0
v -688 -880 0
v -704 -880 0
v -704 -864 0
v -688 -864 0
v -704 -880 0
v -720 -880 0
v -720 -864 0
v -704 -864 0
v -720 -880 0
v -736 -880 0
v -736 -864 0
v -720 -864 0
v -736 -880 0
v -752 -880 0
v -752 -864 0
v -736 -864 0
v -752 -880 0
v -768 -880 0
v -768 -864 0
v -752 -864 0
v -864 -880 0
v -880 -880 0
v -880 -864 0
v -864 -864 0
v -880 -880 0
v -896 -880 0
v -896 -864 0
v -880 -864 0
v -896 -880 0
v -912 -880 0
v -912 -864 0
v -896 -864 0
v -912 -880 0
v -928 -880 0
v -928 -864 0
v -912 -864 0
v -928 -880 0
v -944 -880 0
v -944 -864 0
v -928 -864 0
v -944 -880 0
v -960 -880 0
v -960 -864 0
v -944 -864 0
v -960 -880 0
v -976 -880 0
v -976 -864 0
v -960 -864 0
v -656 -896 0
v -672 -896 0
v -672 -880 0
v -656 -880 0
v -672 -896 0
v -688 -896 0
v -688 -880 0
v -672 -880 0
v -688 -896 0
v -704 -896 0
v -704 -880 0
v -688 -880 0
v -704 -896 0
v -720 -896 0
v -720 -880 0
v -704 -880 0
v -720 -896 0
v -736 -896 0
v -736 -880 0
v -720 -880 0
v -736 -896 0
v -752 -896 0
v -752 -880 0
v -736 -880 0
v -752 -896 0
v -768 -896 0
v -768 -880 0
v -752 -880 0
v -864 -896 0
v -880 -896 0
v -880 -880 0
v -864 -880 0
v -880 -896 0
v -896 -896 0
v -896 -880 0
v -880 -880 0
v -896 -896 0
v -912 -896 0
v -912 -880 0
v -896 -880 0
v -912 -896 0
v -928 -896 0
v -928 -880 0
v -912 -880 0
v -928 -896 0
v -944 -896 0
v -944 -880 0
v -928 -880 0
v -944 -896 0
v -960 -896 0
v -960 -880 0
v -944 -880 0
v -960 -896 0
v -976 -896 0
v -976 -880 0
v -960 -880 0
v -656 -912 0
v -672 -912 0
v -672 -896 0
v -656 -896 0
v -672 -912 0
v -688 -912 0
v -688 -896 0
v -672 -896 0
v -688 -912 0
v -704 -912 0
v -704 -896 0
v -688 -896 0
v -704 -912 0
v -720 -912 0
v -720 -896 0
v -704 -896 0
v -720 -912 0
v -736 -912 0
v -736 -896 0
v -720 -896 0
v -736 -912 0
v -752 -912 0
v -752 -896 0
v -736 -896 0
v -752 -912 0
v -768 -912 0
v -768 -896 0
v -752 -896 0
v -832 -912 0
v -848 -912 0
v -848 -896 0
v -832 -896 0
v -864 -912 0
v -880 -912 0
v -880 -896 0
v -864 -896 0
v -880 -912 0
v -896 -912 0
v -896 -896 0
v -880 -896 0
v -896 -912 0
v -912 -912 0
v -912 -896 0
v -896 -896 0
v -912 -912 0
v -928 -912 0
v -928 -896 0
v -912 -896 0
v -928 -912 0
v -944 -912 0
v -944 -896 0
v -928 -896 0
v -944 -912 0
v -960 -912 0
v -960 -896 0
v -944 -896 0
v -960 -912 0
v -976 -912 0
v -976 -896 0
v -960 -896 0
v -656 -928 0
v -672 -928 0
v -672 -912 0
v -656 -912 0
v -672 -928 0
v -688 -928 0
v -688 -912 0
v -672 -912 0
v -688 -928 0
v -704 -928 0
v -704 -912 0
v -688 -912 0
v -704 -928 0
v -720 -928 0
v -720 -912 0
v -704 -912 0
v -720 -928 0
v -736 -928 0
v -736 -912 0
v -720 -912 0
v -736 -928 0
v -752 -928 0
v -752 -912 0
v -736 -912 0
v -752 -928 0
v -768 -928 0
v -768 -912 0
v -752 -912 0
v -864 -928 0
v -880 -928 0
v -880 -912 0
v -864 -912 0
v -880 -928 0
v -896 -928 0
v -896 -912 0
v -880 -912 0
v -896 -928 0
v -912 -928 0
v -912 -912 0
v -896 -912 0
v -912 -928 0
v -928 -928 0
v -928 -912 0
v -912 -912 0
v -928 -928 0
v -944 -928 0
v -944 -912 0
v -928 -912 0
v -944 -928 0
v -960 -928 0
v -960 -912 0
v -944 -912 0
v -960 -928 0
v -976 -928 0
v -976 -912 0
v -960 -912 0
v -656 -944 0
v -672 -944 0
v -672 -928 0
v -656 -928 0
v -672 -944 0
v -688 -944 0
v -688 -928 0
v -672 -928 0
v -688 -944 0
v -704 -944 0
v -704 -928 0
v -688 -928 0
v -704 -944 0
v -720 -944 0
v -720 -928 0
v -704 -928 0
v -720 -944 0
v -736 -944 0
v -736 -928 0
v -720 -928 0
v -736 -944 0
v -752 -944 0
v -752 -928 0
v -736 -928 0
v -752 -944 0
v -768 -944 0
v -768 -928 0
v -752 -928 0
v -784 -944 0
v -800 -944 0
v -800 -928 0
v -784 -928 0
v -864 -944 0
v -880 -944 0
v -880 -928 0
v -864 -928 0
v -880 -944 0
v -896 -944 0
v -896 -928 0
v -880 -928 0
v -896 -944 0
v -912 -944 0
v -912 -928 0
v -896 -928 0
v -912 -944 0
v -928 -944 0
v -928 -928 0
v -912 -928 0
v -928 -944 0
v -944 -944 0
v -944 -928 0
v -928 -928 0
v -944 -944 0
v -960 -944 0
v -960 -928 0
v -944 -928 0
v -960 -944 0
v -976 -944 0
v -976 -928 0
v -960 -928 0
v -656 -960 0
v -672 -960 0
v -672 -944 0
v -656 -944 0
v -672 -960 0
v -688 -960 0
v -688 -944 0
v -672 -944 0
v -688 -960 0
v -704 -960 0
v -704 -944 0
v -688 -944 0
v -704 -960 0
v -720 -960 0
v -720 -944 0
v -704 -944 0
v -720 -960 0
v -736 -960 0
v -736 -944 0
v -720 -944 0
v -736 -960 0
v -752 -960 0
v -752 -944 0
v -736 -944 0
v -752 -960 0
v -768 -960 0
v -768 -944 0
v -752 -944 0
v -864 -960 0
v -880 -960 0
v -880 -944 0
v -864 -944 0
v -880 -960 0
v -896 -960 0
v -896 -944 0
v -880 -944 0
v -896 -960 0
v -912 -960 0
v -912 -944 0
v -896 -944 0
v -912 -960 0
v -928 -960 0
v -928 -944 0
v -912 -944 0
v -928 -960 0
v -944 -960 0
v -944 -944 0
v -928 -944 0
v -944 -960 0
v -960 -960 0
v -960 -944 0
v -944 -944 0
v -960 -960 0
v -976 -960 0
v -976 -944 0
v -960 -944 0
v -656 -976 0
v -672 -976 0
v -672 -960 0
v -656 -960 0
v -672 -976 0
v -688 -976 0
v -688 -960 0
v -672 -960 0
v -688 -976 0
v -704 -976 0
v -704 -960 0
v -688 -960 0
v -704 -976 0
v -720 -976 0
v -720 -960 0
v -704 -960 0
v -720 -976 0
v -736 -976 0
v -736 -960 0
v -720 -960 0
v -736 -976 0
v -752 -976 0
v -752 -960 0
v -736 -960 0
v -752 -976 0
v -768 -976 0
v -768 -960 0
v -752 -960 0
v -800 -976 0
v -816 -976 0
v -816 -960 0
v -800 -960 0
v -816 -976 0
v -832 -976 0
v -832 -960 0
v -816 -960 0
v -864 -976 0
v -880 -976 0
v -880 -960 0
v -864 -960 0
v -880 -976 0
v -896 -976 0
v -896 -960 0
v -880 -960 0
v -896 -976 0
v -912 -976 0
v -912 -960 0
v -896 -960 0
v -912 -976 0
v -928 -976 0
v -928 -960 0
v -912 -960 0
v -928 -976 0
v -944 -976 0
v -944 -960 0
v -928 -960 0
v -944 -976 0
v -960 -976 0
v -960 -960 0
v -944 -960 0
v -960 -976 0
v -976 -976 0
v -976 -960 0
v -960 -960 0

# Texture cooridinates (Count = 24)
vt 0.4741735 0.3231939
vt 0.4907025 0.3231939
vt 0.4907025 0.3536122
vt 0.4741735 0.3536122
vt 0.4917355 0.3555133
vt 0.5082645 0.3555133
vt 0.5082645 0.3859316
vt 0.4917355 0.3859316
vt 0.5795454 0.3555133
vt 0.5960744 0.3555133
vt 0.5960744 0.3859316
vt 0.5795454 0.3859316
vt 0.4917355 0.3231939
vt 0.5082645 0.3231939
vt 0.5082645 0.3536122
vt 0.4917355 0.3536122
vt 0.7551653 0.6463878
vt 0.7716942 0.6463878
vt 0.7716942 0.6768061
vt 0.7551653 0.6768061
vt 0.5971074 0.8403042
vt 0.6136364 0.8403042
vt 0.6136364 0.8707224
vt 0.5971074 0.8707224

# Normal
vn 0 0 -1

# Mesh description
g Castle5_mesh_0006

# Faces
f 1/1/1 2/2/1 3/3/1 4/4/1
f 5/1/1 6/2/1 7/3/1 8/4/1
f 9/5/1 10/6/1 11/7/1 12/8/1
f 13/9/1 14/10/1 15/11/1 16/12/1
f 17/5/1 18/6/1 19/7/1 20/8/1
f 21/5/1 22/6/1 23/7/1 24/8/1
f 25/9/1 26/10/1 27/11/1 28/12/1
f 29/9/1 30/10/1 31/11/1 32/12/1
f 33/5/1 34/6/1 35/7/1 36/8/1
f 37/5/1 38/6/1 39/7/1 40/8/1
f 41/5/1 42/6/1 43/7/1 44/8/1
f 45/13/1 46/14/1 47/15/1 48/16/1
f 49/9/1 50/10/1 51/11/1 52/12/1
f 53/9/1 54/10/1 55/11/1 56/12/1
f 57/13/1 58/14/1 59/15/1 60/16/1
f 61/1/1 62/2/1 63/3/1 64/4/1
f 65/9/1 66/10/1 67/11/1 68/12/1
f 69/1/1 70/2/1 71/3/1 72/4/1
f 73/5/1 74/6/1 75/7/1 76/8/1
f 77/5/1 78/6/1 79/7/1 80/8/1
f 81/5/1 82/6/1 83/7/1 84/8/1
f 85/9/1 86/10/1 87/11/1 88/12/1
f 89/9/1 90/10/1 91/11/1 92/12/1
f 93/5/1 94/6/1 95/7/1 96/8/1
f 97/5/1 98/6/1 99/7/1 100/8/1
f 101/5/1 102/6/1 103/7/1 104/8/1
f 105/13/1 106/14/1 107/15/1 108/16/1
f 109/9/1 110/10/1 111/11/1 112/12/1
f 113/13/1 114/14/1 115/15/1 116/16/1
f 117/1/1 118/2/1 119/3/1 120/4/1
f 121/17/1 122/18/1 123/19/1 124/20/1
f 125/17/1 126/18/1 127/19/1 128/20/1
f 129/17/1 130/18/1 131/19/1 132/20/1
f 133/17/1 134/18/1 135/19/1 136/20/1
f 137/17/1 138/18/1 139/19/1 140/20/1
f 141/1/1 142/2/1 143/3/1 144/4/1
f 145/1/1 146/2/1 147/3/1 148/4/1
f 149/17/1 150/18/1 151/19/1 152/20/1
f 153/17/1 154/18/1 155/19/1 156/20/1
f 157/17/1 158/18/1 159/19/1 160/20/1
f 161/17/1 162/18/1 163/19/1 164/20/1
f 165/17/1 166/18/1 167/19/1 168/20/1
f 169/1/1 170/2/1 171/3/1 172/4/1
f 173/5/1 174/6/1 175/7/1 176/8/1
f 177/17/1 178/18/1 179/19/1 180/20/1
f 181/17/1 182/18/1 183/19/1 184/20/1
f 185/17/1 186/18/1 187/19/1 188/20/1
f 189/17/1 190/18/1 191/19/1 192/20/1
f 193/17/1 194/18/1 195/19/1 196/20/1
f 197/5/1 198/6/1 199/7/1 200/8/1
f 201/9/1 202/10/1 203/11/1 204/12/1
f 205/5/1 206/6/1 207/7/1 208/8/1
f 209/17/1 210/18/1 211/19/1 212/20/1
f 213/17/1 214/18/1 215/19/1 216/20/1
f 217/17/1 218/18/1 219/19/1 220/20/1
f 221/17/1 222/18/1 223/19/1 224/20/1
f 225/17/1 226/18/1 227/19/1 228/20/1
f 229/5/1 230/6/1 231/7/1 232/8/1
f 233/5/1 234/6/1 235/7/1 236/8/1
f 237/17/1 238/18/1 239/19/1 240/20/1
f 241/17/1 242/18/1 243/19/1 244/20/1
f 245/17/1 246/18/1 247/19/1 248/20/1
f 249/17/1 250/18/1 251/19/1 252/20/1
f 253/17/1 254/18/1 255/19/1 256/20/1
f 257/5/1 258/6/1 259/7/1 260/8/1
f 261/5/1 262/6/1 263/7/1 264/8/1
f 265/17/1 266/18/1 267/19/1 268/20/1
f 269/17/1 270/18/1 271/19/1 272/20/1
f 273/17/1 274/18/1 275/19/1 276/20/1
f 277/17/1 278/18/1 279/19/1 280/20/1
f 281/17/1 282/18/1 283/19/1 284/20/1
f 285/5/1 286/6/1 287/7/1 288/8/1
f 289/5/1 290/6/1 291/7/1 292/8/1
f 293/17/1 294/18/1 295/19/1 296/20/1
f 297/17/1 298/18/1 299/19/1 300/20/1
f 301/17/1 302/18/1 303/19/1 304/20/1
f 305/17/1 306/18/1 307/19/1 308/20/1
f 309/17/1 310/18/1 311/19/1 312/20/1
f 313/5/1 314/6/1 315/7/1 316/8/1
f 317/5/1 318/6/1 319/7/1 320/8/1
f 321/17/1 322/18/1 323/19/1 324/20/1
f 325/17/1 326/18/1 327/19/1 328/20/1
f 329/17/1 330/18/1 331/19/1 332/20/1
f 333/17/1 334/18/1 335/19/1 336/20/1
f 337/17/1 338/18/1 339/19/1 340/20/1
f 341/5/1 342/6/1 343/7/1 344/8/1
f 345/5/1 346/6/1 347/7/1 348/8/1
f 349/17/1 350/18/1 351/19/1 352/20/1
f 353/17/1 354/18/1 355/19/1 356/20/1
f 357/17/1 358/18/1 359/19/1 360/20/1
f 361/17/1 362/18/1 363/19/1 364/20/1
f 365/17/1 366/18/1 367/19/1 368/20/1
f 369/5/1 370/6/1 371/7/1 372/8/1
f 373/9/1 374/10/1 375/11/1 376/12/1
f 377/5/1 378/6/1 379/7/1 380/8/1
f 381/17/1 382/18/1 383/19/1 384/20/1
f 385/17/1 386/18/1 387/19/1 388/20/1
f 389/17/1 390/18/1 391/19/1 392/20/1
f 393/17/1 394/18/1 395/19/1 396/20/1
f 397/17/1 398/18/1 399/19/1 400/20/1
f 401/5/1 402/6/1 403/7/1 404/8/1
f 405/5/1 406/6/1 407/7/1 408/8/1
f 409/17/1 410/18/1 411/19/1 412/20/1
f 413/17/1 414/18/1 415/19/1 416/20/1
f 417/17/1 418/18/1 419/19/1 420/20/1
f 421/17/1 422/18/1 423/19/1 424/20/1
f 425/17/1 426/18/1 427/19/1 428/20/1
f 429/5/1 430/6/1 431/7/1 432/8/1
f 433/5/1 434/6/1 435/7/1 436/8/1
f 437/17/1 438/18/1 439/19/1 440/20/1
f 441/17/1 442/18/1 443/19/1 444/20/1
f 445/17/1 446/18/1 447/19/1 448/20/1
f 449/17/1 450/18/1 451/19/1 452/20/1
f 453/17/1 454/18/1 455/19/1 456/20/1
f 457/5/1 458/6/1 459/7/1 460/8/1
f 461/5/1 462/6/1 463/7/1 464/8/1
f 465/17/1 466/18/1 467/19/1 468/20/1
f 469/17/1 470/18/1 471/19/1 472/20/1
f 473/17/1 474/18/1 475/19/1 476/20/1
f 477/17/1 478/18/1 479/19/1 480/20/1
f 481/17/1 482/18/1 483/19/1 484/20/1
f 485/5/1 486/6/1 487/7/1 488/8/1
f 489/9/1 490/10/1 491/11/1 492/12/1
f 493/5/1 494/6/1 495/7/1 496/8/1
f 497/17/1 498/18/1 499/19/1 500/20/1
f 501/17/1 502/18/1 503/19/1 504/20/1
f 505/17/1 506/18/1 507/19/1 508/20/1
f 509/17/1 510/18/1 511/19/1 512/20/1
f 513/17/1 514/18/1 515/19/1 516/20/1
f 517/5/1 518/6/1 519/7/1 520/8/1
f 521/5/1 522/6/1 523/7/1 524/8/1
f 525/17/1 526/18/1 527/19/1 528/20/1
f 529/17/1 530/18/1 531/19/1 532/20/1
f 533/17/1 534/18/1 535/19/1 536/20/1
f 537/17/1 538/18/1 539/19/1 540/20/1
f 541/17/1 542/18/1 543/19/1 544/20/1
f 545/5/1 546/6/1 547/7/1 548/8/1
f 549/9/1 550/10/1 551/11/1 552/12/1
f 553/5/1 554/6/1 555/7/1 556/8/1
f 557/17/1 558/18/1 559/19/1 560/20/1
f 561/17/1 562/18/1 563/19/1 564/20/1
f 565/17/1 566/18/1 567/19/1 568/20/1
f 569/17/1 570/18/1 571/19/1 572/20/1
f 573/17/1 574/18/1 575/19/1 576/20/1
f 577/5/1 578/6/1 579/7/1 580/8/1
f 581/5/1 582/6/1 583/7/1 584/8/1
f 585/17/1 586/18/1 587/19/1 588/20/1
f 589/17/1 590/18/1 591/19/1 592/20/1
f 593/17/1 594/18/1 595/19/1 596/20/1
f 597/17/1 598/18/1 599/19/1 600/20/1
f 601/17/1 602/18/1 603/19/1 604/20/1
f 605/5/1 606/6/1 607/7/1 608/8/1
f 609/5/1 610/6/1 611/7/1 612/8/1
f 613/17/1 614/18/1 615/19/1 616/20/1
f 617/17/1 618/18/1 619/19/1 620/20/1
f 621/17/1 622/18/1 623/19/1 624/20/1
f 625/17/1 626/18/1 627/19/1 628/20/1
f 629/17/1 630/18/1 631/19/1 632/20/1
f 633/5/1 634/6/1 635/7/1 636/8/1
f 637/5/1 638/6/1 639/7/1 640/8/1
f 641/17/1 642/18/1 643/19/1 644/20/1
f 645/17/1 646/18/1 647/19/1 648/20/1
f 649/17/1 650/18/1 651/19/1 652/20/1
f 653/17/1 654/18/1 655/19/1 656/20/1
f 657/17/1 658/18/1 659/19/1 660/20/1
f 661/5/1 662/6/1 663/7/1 664/8/1
f 665/5/1 666/6/1 667/7/1 668/8/1
f 669/17/1 670/18/1 671/19/1 672/20/1
f 673/17/1 674/18/1 675/19/1 676/20/1
f 677/17/1 678/18/1 679/19/1 680/20/1
f 681/17/1 682/18/1 683/19/1 684/20/1
f 685/17/1 686/18/1 687/19/1 688/20/1
f 689/5/1 690/6/1 691/7/1 692/8/1
f 693/5/1 694/6/1 695/7/1 696/8/1
f 697/17/1 698/18/1 699/19/1 700/20/1
f 701/17/1 702/18/1 703/19/1 704/20/1
f 705/17/1 706/18/1 707/19/1 708/20/1
f 709/17/1 710/18/1 711/19/1 712/20/1
f 713/17/1 714/18/1 715/19/1 716/20/1
f 717/5/1 718/6/1 719/7/1 720/8/1
f 721/9/1 722/10/1 723/11/1 724/12/1
f 725/5/1 726/6/1 727/7/1 728/8/1
f 729/17/1 730/18/1 731/19/1 732/20/1
f 733/17/1 734/18/1 735/19/1 736/20/1
f 737/17/1 738/18/1 739/19/1 740/20/1
f 741/17/1 742/18/1 743/19/1 744/20/1
f 745/17/1 746/18/1 747/19/1 748/20/1
f 749/5/1 750/6/1 751/7/1 752/8/1
f 753/5/1 754/6/1 755/7/1 756/8/1
f 757/17/1 758/18/1 759/19/1 760/20/1
f 761/17/1 762/18/1 763/19/1 764/20/1
f 765/17/1 766/18/1 767/19/1 768/20/1
f 769/17/1 770/18/1 771/19/1 772/20/1
f 773/17/1 774/18/1 775/19/1 776/20/1
f 777/5/1 778/6/1 779/7/1 780/8/1
f 781/5/1 782/6/1 783/7/1 784/8/1
f 785/17/1 786/18/1 787/19/1 788/20/1
f 789/17/1 790/18/1 791/19/1 792/20/1
f 793/17/1 794/18/1 795/19/1 796/20/1
f 797/17/1 798/18/1 799/19/1 800/20/1
f 801/17/1 802/18/1 803/19/1 804/20/1
f 805/5/1 806/6/1 807/7/1 808/8/1
f 809/5/1 810/6/1 811/7/1 812/8/1
f 813/17/1 814/18/1 815/19/1 816/20/1
f 817/17/1 818/18/1 819/19/1 820/20/1
f 821/17/1 822/18/1 823/19/1 824/20/1
f 825/17/1 826/18/1 827/19/1 828/20/1
f 829/17/1 830/18/1 831/19/1 832/20/1
f 833/5/1 834/6/1 835/7/1 836/8/1
f 837/9/1 838/10/1 839/11/1 840/12/1
f 841/5/1 842/6/1 843/7/1 844/8/1
f 845/17/1 846/18/1 847/19/1 848/20/1
f 849/17/1 850/18/1 851/19/1 852/20/1
f 853/17/1 854/18/1 855/19/1 856/20/1
f 857/17/1 858/18/1 859/19/1 860/20/1
f 861/17/1 862/18/1 863/19/1 864/20/1
f 865/5/1 866/6/1 867/7/1 868/8/1
f 869/5/1 870/6/1 871/7/1 872/8/1
f 873/17/1 874/18/1 875/19/1 876/20/1
f 877/17/1 878/18/1 879/19/1 880/20/1
f 881/17/1 882/18/1 883/19/1 884/20/1
f 885/17/1 886/18/1 887/19/1 888/20/1
f 889/17/1 890/18/1 891/19/1 892/20/1
f 893/5/1 894/6/1 895/7/1 896/8/1
f 897/5/1 898/6/1 899/7/1 900/8/1
f 901/17/1 902/18/1 903/19/1 904/20/1
f 905/17/1 906/18/1 907/19/1 908/20/1
f 909/17/1 910/18/1 911/19/1 912/20/1
f 913/17/1 914/18/1 915/19/1 916/20/1
f 917/17/1 918/18/1 919/19/1 920/20/1
f 921/5/1 922/6/1 923/7/1 924/8/1
f 925/13/1 926/14/1 927/15/1 928/16/1
f 929/17/1 930/18/1 931/19/1 932/20/1
f 933/17/1 934/18/1 935/19/1 936/20/1
f 937/17/1 938/18/1 939/19/1 940/20/1
f 941/17/1 942/18/1 943/19/1 944/20/1
f 945/17/1 946/18/1 947/19/1 948/20/1
f 949/13/1 950/14/1 951/15/1 952/16/1
f 953/21/1 954/22/1 955/23/1 956/24/1
f 957/21/1 958/22/1 959/23/1 960/24/1
f 961/13/1 962/14/1 963/15/1 964/16/1
f 965/17/1 966/18/1 967/19/1 968/20/1
f 969/17/1 970/18/1 971/19/1 972/20/1
f 973/17/1 974/18/1 975/19/1 976/20/1
f 977/17/1 978/18/1 979/19/1 980/20/1
f 981/17/1 982/18/1 983/19/1 984/20/1
f 985/13/1 986/14/1 987/15/1 988/16/1

