# Tiled2Unity generated file. Do not modify by hand.
# Wavefront file for 'Castle2_mesh_0003.obj'

# Vertices (Count = 216)
v -768 -672 0
v -784 -672 0
v -784 -656 0
v -768 -656 0
v -944 -672 0
v -960 -672 0
v -960 -656 0
v -944 -656 0
v -768 -688 0
v -784 -688 0
v -784 -672 0
v -768 -672 0
v -944 -688 0
v -960 -688 0
v -960 -672 0
v -944 -672 0
v -768 -704 0
v -784 -704 0
v -784 -688 0
v -768 -688 0
v -944 -704 0
v -960 -704 0
v -960 -688 0
v -944 -688 0
v -768 -720 0
v -784 -720 0
v -784 -704 0
v -768 -704 0
v -944 -720 0
v -960 -720 0
v -960 -704 0
v -944 -704 0
v -768 -736 0
v -784 -736 0
v -784 -720 0
v -768 -720 0
v -944 -736 0
v -960 -736 0
v -960 -720 0
v -944 -720 0
v -768 -752 0
v -784 -752 0
v -784 -736 0
v -768 -736 0
v -944 -752 0
v -960 -752 0
v -960 -736 0
v -944 -736 0
v -768 -768 0
v -784 -768 0
v -784 -752 0
v -768 -752 0
v -944 -768 0
v -960 -768 0
v -960 -752 0
v -944 -752 0
v -768 -784 0
v -784 -784 0
v -784 -768 0
v -768 -768 0
v -944 -784 0
v -960 -784 0
v -960 -768 0
v -944 -768 0
v -768 -800 0
v -784 -800 0
v -784 -784 0
v -768 -784 0
v -944 -800 0
v -960 -800 0
v -960 -784 0
v -944 -784 0
v -768 -816 0
v -784 -816 0
v -784 -800 0
v -768 -800 0
v -944 -816 0
v -960 -816 0
v -960 -800 0
v -944 -800 0
v -768 -832 0
v -784 -832 0
v -784 -816 0
v -768 -816 0
v -944 -832 0
v -960 -832 0
v -960 -816 0
v -944 -816 0
v -768 -848 0
v -784 -848 0
v -784 -832 0
v -768 -832 0
v -944 -848 0
v -960 -848 0
v -960 -832 0
v -944 -832 0
v -768 -864 0
v -784 -864 0
v -784 -848 0
v -768 -848 0
v -944 -864 0
v -960 -864 0
v -960 -848 0
v -944 -848 0
v -768 -880 0
v -784 -880 0
v -784 -864 0
v -768 -864 0
v -944 -880 0
v -960 -880 0
v -960 -864 0
v -944 -864 0
v -768 -896 0
v -784 -896 0
v -784 -880 0
v -768 -880 0
v -944 -896 0
v -960 -896 0
v -960 -880 0
v -944 -880 0
v -768 -912 0
v -784 -912 0
v -784 -896 0
v -768 -896 0
v -944 -912 0
v -960 -912 0
v -960 -896 0
v -944 -896 0
v -768 -928 0
v -784 -928 0
v -784 -912 0
v -768 -912 0
v -944 -928 0
v -960 -928 0
v -960 -912 0
v -944 -912 0
v -768 -944 0
v -784 -944 0
v -784 -928 0
v -768 -928 0
v -944 -944 0
v -960 -944 0
v -960 -928 0
v -944 -928 0
v -768 -960 0
v -784 -960 0
v -784 -944 0
v -768 -944 0
v -944 -960 0
v -960 -960 0
v -960 -944 0
v -944 -944 0
v -768 -976 0
v -784 -976 0
v -784 -960 0
v -768 -960 0
v -944 -976 0
v -960 -976 0
v -960 -960 0
v -944 -960 0
v -768 -992 0
v -784 -992 0
v -784 -976 0
v -768 -976 0
v -944 -992 0
v -960 -992 0
v -960 -976 0
v -944 -976 0
v -768 -1008 0
v -784 -1008 0
v -784 -992 0
v -768 -992 0
v -944 -1008 0
v -960 -1008 0
v -960 -992 0
v -944 -992 0
v -768 -1024 0
v -784 -1024 0
v -784 -1008 0
v -768 -1008 0
v -944 -1024 0
v -960 -1024 0
v -960 -1008 0
v -944 -1008 0
v -768 -1040 0
v -784 -1040 0
v -784 -1024 0
v -768 -1024 0
v -944 -1040 0
v -960 -1040 0
v -960 -1024 0
v -944 -1024 0
v -768 -1056 0
v -784 -1056 0
v -784 -1040 0
v -768 -1040 0
v -944 -1056 0
v -960 -1056 0
v -960 -1040 0
v -944 -1040 0
v -768 -1072 0
v -784 -1072 0
v -784 -1056 0
v -768 -1056 0
v -848 -1072 0
v -864 -1072 0
v -864 -1056 0
v -848 -1056 0
v -864 -1072 0
v -880 -1072 0
v -880 -1056 0
v -864 -1056 0
v -944 -1072 0
v -960 -1072 0
v -960 -1056 0
v -944 -1056 0

# Texture cooridinates (Count = 28)
vt 0.8780992 0.9695817
vt 0.8946281 0.9695817
vt 0.8946281 1
vt 0.8780992 1
vt 0.8780992 0.9372624
vt 0.8946281 0.9372624
vt 0.8946281 0.9676806
vt 0.8780992 0.9676806
vt 0.8780992 0.904943
vt 0.8946281 0.904943
vt 0.8946281 0.9353612
vt 0.8780992 0.9353612
vt 0.4741735 0.3231939
vt 0.4907025 0.3231939
vt 0.4907025 0.3536122
vt 0.4741735 0.3536122
vt 0.4917355 0.3555133
vt 0.5082645 0.3555133
vt 0.5082645 0.3859316
vt 0.4917355 0.3859316
vt 0.4917355 0.3231939
vt 0.5082645 0.3231939
vt 0.5082645 0.3536122
vt 0.4917355 0.3536122
vt 0.5971074 0.8403042
vt 0.6136364 0.8403042
vt 0.6136364 0.8707224
vt 0.5971074 0.8707224

# Normal
vn 0 0 -1

# Mesh description
g Castle2_mesh_0003

# Faces
f 1/1/1 2/2/1 3/3/1 4/4/1
f 5/1/1 6/2/1 7/3/1 8/4/1
f 9/5/1 10/6/1 11/7/1 12/8/1
f 13/5/1 14/6/1 15/7/1 16/8/1
f 17/9/1 18/10/1 19/11/1 20/12/1
f 21/9/1 22/10/1 23/11/1 24/12/1
f 25/13/1 26/14/1 27/15/1 28/16/1
f 29/13/1 30/14/1 31/15/1 32/16/1
f 33/17/1 34/18/1 35/19/1 36/20/1
f 37/17/1 38/18/1 39/19/1 40/20/1
f 41/17/1 42/18/1 43/19/1 44/20/1
f 45/17/1 46/18/1 47/19/1 48/20/1
f 49/17/1 50/18/1 51/19/1 52/20/1
f 53/17/1 54/18/1 55/19/1 56/20/1
f 57/21/1 58/22/1 59/23/1 60/24/1
f 61/21/1 62/22/1 63/23/1 64/24/1
f 65/13/1 66/14/1 67/15/1 68/16/1
f 69/13/1 70/14/1 71/15/1 72/16/1
f 73/17/1 74/18/1 75/19/1 76/20/1
f 77/17/1 78/18/1 79/19/1 80/20/1
f 81/17/1 82/18/1 83/19/1 84/20/1
f 85/17/1 86/18/1 87/19/1 88/20/1
f 89/17/1 90/18/1 91/19/1 92/20/1
f 93/17/1 94/18/1 95/19/1 96/20/1
f 97/21/1 98/22/1 99/23/1 100/24/1
f 101/21/1 102/22/1 103/23/1 104/24/1
f 105/13/1 106/14/1 107/15/1 108/16/1
f 109/13/1 110/14/1 111/15/1 112/16/1
f 113/17/1 114/18/1 115/19/1 116/20/1
f 117/17/1 118/18/1 119/19/1 120/20/1
f 121/17/1 122/18/1 123/19/1 124/20/1
f 125/17/1 126/18/1 127/19/1 128/20/1
f 129/17/1 130/18/1 131/19/1 132/20/1
f 133/17/1 134/18/1 135/19/1 136/20/1
f 137/21/1 138/22/1 139/23/1 140/24/1
f 141/21/1 142/22/1 143/23/1 144/24/1
f 145/13/1 146/14/1 147/15/1 148/16/1
f 149/13/1 150/14/1 151/15/1 152/16/1
f 153/17/1 154/18/1 155/19/1 156/20/1
f 157/17/1 158/18/1 159/19/1 160/20/1
f 161/17/1 162/18/1 163/19/1 164/20/1
f 165/17/1 166/18/1 167/19/1 168/20/1
f 169/17/1 170/18/1 171/19/1 172/20/1
f 173/17/1 174/18/1 175/19/1 176/20/1
f 177/21/1 178/22/1 179/23/1 180/24/1
f 181/21/1 182/22/1 183/23/1 184/24/1
f 185/1/1 186/2/1 187/3/1 188/4/1
f 189/1/1 190/2/1 191/3/1 192/4/1
f 193/5/1 194/6/1 195/7/1 196/8/1
f 197/5/1 198/6/1 199/7/1 200/8/1
f 201/9/1 202/10/1 203/11/1 204/12/1
f 205/25/1 206/26/1 207/27/1 208/28/1
f 209/25/1 210/26/1 211/27/1 212/28/1
f 213/9/1 214/10/1 215/11/1 216/12/1

