# Tiled2Unity generated file. Do not modify by hand.
# Wavefront file for 'Castle2_mesh_0009.obj'

# Vertices (Count = 64)
v -944 -768 0
v -960 -768 0
v -960 -752 0
v -944 -752 0
v -944 -784 0
v -960 -784 0
v -960 -768 0
v -944 -768 0
v -944 -800 0
v -960 -800 0
v -960 -784 0
v -944 -784 0
v -944 -816 0
v -960 -816 0
v -960 -800 0
v -944 -800 0
v -944 -832 0
v -960 -832 0
v -960 -816 0
v -944 -816 0
v -944 -880 0
v -960 -880 0
v -960 -864 0
v -944 -864 0
v -944 -896 0
v -960 -896 0
v -960 -880 0
v -944 -880 0
v -944 -960 0
v -960 -960 0
v -960 -944 0
v -944 -944 0
v -944 -976 0
v -960 -976 0
v -960 -960 0
v -944 -960 0
v -944 -992 0
v -960 -992 0
v -960 -976 0
v -944 -976 0
v -944 -1008 0
v -960 -1008 0
v -960 -992 0
v -944 -992 0
v -944 -1024 0
v -960 -1024 0
v -960 -1008 0
v -944 -1008 0
v -944 -1040 0
v -960 -1040 0
v -960 -1024 0
v -944 -1024 0
v -944 -1056 0
v -960 -1056 0
v -960 -1040 0
v -944 -1040 0
v -768 -1072 0
v -784 -1072 0
v -784 -1056 0
v -768 -1056 0
v -944 -1072 0
v -960 -1072 0
v -960 -1056 0
v -944 -1056 0

# Texture cooridinates (Count = 4)
vt 0.4741735 0.2585551
vt 0.4907025 0.2585551
vt 0.4907025 0.2889734
vt 0.4741735 0.2889734

# Normal
vn 0 0 -1

# Mesh description
g Castle2_mesh_0009

# Faces
f 1/1/1 2/2/1 3/3/1 4/4/1
f 5/1/1 6/2/1 7/3/1 8/4/1
f 9/1/1 10/2/1 11/3/1 12/4/1
f 13/1/1 14/2/1 15/3/1 16/4/1
f 17/1/1 18/2/1 19/3/1 20/4/1
f 21/1/1 22/2/1 23/3/1 24/4/1
f 25/1/1 26/2/1 27/3/1 28/4/1
f 29/1/1 30/2/1 31/3/1 32/4/1
f 33/1/1 34/2/1 35/3/1 36/4/1
f 37/1/1 38/2/1 39/3/1 40/4/1
f 41/1/1 42/2/1 43/3/1 44/4/1
f 45/1/1 46/2/1 47/3/1 48/4/1
f 49/1/1 50/2/1 51/3/1 52/4/1
f 53/1/1 54/2/1 55/3/1 56/4/1
f 57/1/1 58/2/1 59/3/1 60/4/1
f 61/1/1 62/2/1 63/3/1 64/4/1

