# Tiled2Unity generated file. Do not modify by hand.
# Wavefront file for 'Castle3.2_mesh_0006.obj'

# Vertices (Count = 148)
v -672 -672 0
v -688 -672 0
v -688 -656 0
v -672 -656 0
v -784 -672 0
v -800 -672 0
v -800 -656 0
v -784 -656 0
v -800 -672 0
v -816 -672 0
v -816 -656 0
v -800 -656 0
v -912 -672 0
v -928 -672 0
v -928 -656 0
v -912 -656 0
v -672 -688 0
v -688 -688 0
v -688 -672 0
v -672 -672 0
v -704 -688 0
v -720 -688 0
v -720 -672 0
v -704 -672 0
v -880 -688 0
v -896 -688 0
v -896 -672 0
v -880 -672 0
v -912 -688 0
v -928 -688 0
v -928 -672 0
v -912 -672 0
v -672 -704 0
v -688 -704 0
v -688 -688 0
v -672 -688 0
v -736 -704 0
v -752 -704 0
v -752 -688 0
v -736 -688 0
v -912 -704 0
v -928 -704 0
v -928 -688 0
v -912 -688 0
v -672 -720 0
v -688 -720 0
v -688 -704 0
v -672 -704 0
v -848 -720 0
v -864 -720 0
v -864 -704 0
v -848 -704 0
v -912 -720 0
v -928 -720 0
v -928 -704 0
v -912 -704 0
v -672 -736 0
v -688 -736 0
v -688 -720 0
v -672 -720 0
v -768 -736 0
v -784 -736 0
v -784 -720 0
v -768 -720 0
v -912 -736 0
v -928 -736 0
v -928 -720 0
v -912 -720 0
v -704 -768 0
v -720 -768 0
v -720 -752 0
v -704 -752 0
v -768 -784 0
v -784 -784 0
v -784 -768 0
v -768 -768 0
v -816 -784 0
v -832 -784 0
v -832 -768 0
v -816 -768 0
v -880 -784 0
v -896 -784 0
v -896 -768 0
v -880 -768 0
v -672 -800 0
v -688 -800 0
v -688 -784 0
v -672 -784 0
v -912 -800 0
v -928 -800 0
v -928 -784 0
v -912 -784 0
v -672 -816 0
v -688 -816 0
v -688 -800 0
v -672 -800 0
v -912 -816 0
v -928 -816 0
v -928 -800 0
v -912 -800 0
v -672 -832 0
v -688 -832 0
v -688 -816 0
v -672 -816 0
v -704 -832 0
v -720 -832 0
v -720 -816 0
v -704 -816 0
v -752 -832 0
v -768 -832 0
v -768 -816 0
v -752 -816 0
v -816 -832 0
v -832 -832 0
v -832 -816 0
v -816 -816 0
v -912 -832 0
v -928 -832 0
v -928 -816 0
v -912 -816 0
v -672 -848 0
v -688 -848 0
v -688 -832 0
v -672 -832 0
v -864 -848 0
v -880 -848 0
v -880 -832 0
v -864 -832 0
v -912 -848 0
v -928 -848 0
v -928 -832 0
v -912 -832 0
v -672 -864 0
v -688 -864 0
v -688 -848 0
v -672 -848 0
v -784 -864 0
v -800 -864 0
v -800 -848 0
v -784 -848 0
v -800 -864 0
v -816 -864 0
v -816 -848 0
v -800 -848 0
v -912 -864 0
v -928 -864 0
v -928 -848 0
v -912 -848 0

# Texture cooridinates (Count = 20)
vt 0.4741735 0.3231939
vt 0.4907025 0.3231939
vt 0.4907025 0.3536122
vt 0.4741735 0.3536122
vt 0.5971074 0.8403042
vt 0.6136364 0.8403042
vt 0.6136364 0.8707224
vt 0.5971074 0.8707224
vt 0.4917355 0.3555133
vt 0.5082645 0.3555133
vt 0.5082645 0.3859316
vt 0.4917355 0.3859316
vt 0.5795454 0.3555133
vt 0.5960744 0.3555133
vt 0.5960744 0.3859316
vt 0.5795454 0.3859316
vt 0.4917355 0.3231939
vt 0.5082645 0.3231939
vt 0.5082645 0.3536122
vt 0.4917355 0.3536122

# Normal
vn 0 0 -1

# Mesh description
g Castle3.2_mesh_0006

# Faces
f 1/1/1 2/2/1 3/3/1 4/4/1
f 5/5/1 6/6/1 7/7/1 8/8/1
f 9/5/1 10/6/1 11/7/1 12/8/1
f 13/1/1 14/2/1 15/3/1 16/4/1
f 17/9/1 18/10/1 19/11/1 20/12/1
f 21/13/1 22/14/1 23/15/1 24/16/1
f 25/13/1 26/14/1 27/15/1 28/16/1
f 29/9/1 30/10/1 31/11/1 32/12/1
f 33/9/1 34/10/1 35/11/1 36/12/1
f 37/13/1 38/14/1 39/15/1 40/16/1
f 41/9/1 42/10/1 43/11/1 44/12/1
f 45/9/1 46/10/1 47/11/1 48/12/1
f 49/13/1 50/14/1 51/15/1 52/16/1
f 53/9/1 54/10/1 55/11/1 56/12/1
f 57/17/1 58/18/1 59/19/1 60/20/1
f 61/13/1 62/14/1 63/15/1 64/16/1
f 65/17/1 66/18/1 67/19/1 68/20/1
f 69/13/1 70/14/1 71/15/1 72/16/1
f 73/13/1 74/14/1 75/15/1 76/16/1
f 77/13/1 78/14/1 79/15/1 80/16/1
f 81/13/1 82/14/1 83/15/1 84/16/1
f 85/1/1 86/2/1 87/3/1 88/4/1
f 89/1/1 90/2/1 91/3/1 92/4/1
f 93/9/1 94/10/1 95/11/1 96/12/1
f 97/9/1 98/10/1 99/11/1 100/12/1
f 101/9/1 102/10/1 103/11/1 104/12/1
f 105/13/1 106/14/1 107/15/1 108/16/1
f 109/13/1 110/14/1 111/15/1 112/16/1
f 113/13/1 114/14/1 115/15/1 116/16/1
f 117/9/1 118/10/1 119/11/1 120/12/1
f 121/9/1 122/10/1 123/11/1 124/12/1
f 125/13/1 126/14/1 127/15/1 128/16/1
f 129/9/1 130/10/1 131/11/1 132/12/1
f 133/17/1 134/18/1 135/19/1 136/20/1
f 137/5/1 138/6/1 139/7/1 140/8/1
f 141/5/1 142/6/1 143/7/1 144/8/1
f 145/17/1 146/18/1 147/19/1 148/20/1

