# Tiled2Unity generated file. Do not modify by hand.
# Wavefront file for 'Castle3.2_mesh_0002.obj'

# Vertices (Count = 16)
v -784 -704 0
v -800 -704 0
v -800 -688 0
v -784 -688 0
v -800 -704 0
v -816 -704 0
v -816 -688 0
v -800 -688 0
v -784 -832 0
v -800 -832 0
v -800 -816 0
v -784 -816 0
v -800 -832 0
v -816 -832 0
v -816 -816 0
v -800 -816 0

# Texture cooridinates (Count = 4)
vt 0.5971074 0.8403042
vt 0.6136364 0.8403042
vt 0.6136364 0.8707224
vt 0.5971074 0.8707224

# Normal
vn 0 0 -1

# Mesh description
g Castle3.2_mesh_0002

# Faces
f 1/1/1 2/2/1 3/3/1 4/4/1
f 5/1/1 6/2/1 7/3/1 8/4/1
f 9/1/1 10/2/1 11/3/1 12/4/1
f 13/1/1 14/2/1 15/3/1 16/4/1

